<?xml version="1.0" encoding="UTF-8"?>
<!-- Created with Inkscape (http://www.inkscape.org/) -->
<svg width="180mm" height="215mm" version="1.1" viewBox="0 0 180 215" xml:space="preserve" xmlns="http://www.w3.org/2000/svg"><g><rect x="-17.586" y="-14.219" width="212.91" height="240.22" ry="2.712" fill="#fff" stroke-width=".5"/><text transform="scale(.26458)" fill="#2c5aa0" font-family="Arial" font-size="14.667px" font-weight="bold" text-align="center" style="font-variant-caps:normal;font-variant-east-asian:normal;font-variant-ligatures:normal;font-variant-numeric:normal;shape-inside:url(#rect240);white-space:pre" xml:space="preserve"/><g fill="#214478" font-weight="bold"><text transform="scale(.26458)" font-family="Arial" font-size="14.667px" text-align="center" style="font-variant-caps:normal;font-variant-east-asian:normal;font-variant-ligatures:normal;font-variant-numeric:normal;shape-inside:url(#rect241);white-space:pre" xml:space="preserve"/><text transform="scale(.26458)" font-family="Sans" font-size="14.667px" text-align="center" style="font-variant-caps:normal;font-variant-east-asian:normal;font-variant-ligatures:normal;font-variant-numeric:normal;shape-inside:url(#rect248);white-space:pre" xml:space="preserve"/><text x="202.63574" y="142.77148" font-family="Arial" font-size="3.8806px" stroke-opacity=".5" stroke-width="18.521" text-align="center" text-anchor="middle" style="font-variant-caps:normal;font-variant-east-asian:normal;font-variant-ligatures:normal;font-variant-numeric:normal" xml:space="preserve"><tspan x="202.63574" y="142.77148" stroke-width="18.521"/></text><text x="90.746605" y="49.886875" font-family="Arial" font-size="3.8806px" stroke-opacity=".5" stroke-width="18.521" text-align="center" text-anchor="middle" style="font-variant-caps:normal;font-variant-east-asian:normal;font-variant-ligatures:normal;font-variant-numeric:normal" xml:space="preserve"><tspan x="90.746605" y="49.886875" stroke-width="18.521"/></text></g><text x="114.1241" y="14.218739" fill="#162d50" font-family="Arial" font-size="5.2917px" font-weight="bold" stroke-width=".767" text-align="justify" style="font-variant-caps:normal;font-variant-east-asian:normal;font-variant-ligatures:normal;font-variant-numeric:normal;line-height:5.29167px" xml:space="preserve"><tspan x="114.1241" y="14.218739" font-family="Arial" font-size="5.2917px" font-weight="bold" stroke-width=".767" style="font-variant-caps:normal;font-variant-east-asian:normal;font-variant-ligatures:normal;font-variant-numeric:normal"/></text><text transform="scale(.26458)" fill="#162d50" font-family="Arial" font-size="20px" font-weight="bold" text-align="justify" style="font-variant-caps:normal;font-variant-east-asian:normal;font-variant-ligatures:normal;font-variant-numeric:normal;line-height:20px;shape-inside:url(#rect14);white-space:pre" xml:space="preserve"/><g transform="translate(-34.925 21.769)"><path d="m111.1 17.745h-3.2866c-3.5912 0-6.4823-2.8911-6.4823-6.4823 0-3.5912 2.8911-6.4823 6.4823-6.4823l3.2866-1e-6 34.633 1e-6h4.6788c3.5912 0 6.4823 2.8911 6.4823 6.4823 0 3.5912-2.8911 6.4823-6.4823 6.4823l-4.6788-1e-6z" fill="#162d50" fill-opacity=".15"/><path d="m111.1 17.745h-3.2866c-3.5912 0-6.4823-2.8911-6.4823-6.4823 0-3.5912 2.8911-6.4823 6.4823-6.4823l3.2866-1e-6" fill="none" stroke="#162d50" stroke-width=".767"/><path d="m145.73 4.7806h4.6788c3.5912 0 6.4823 2.8911 6.4823 6.4823 0 3.5912-2.8911 6.4823-6.4823 6.4823l-4.6788-1e-6" fill="none" stroke="#162d50" stroke-width=".767"/><g transform="translate(34.149 -37.302)" fill="#162d50" stroke="#162d50" stroke-width=".767"><path d="m94.854 55.047-19.831 1e-6"/><path d="m75.023 42.083 19.831 1e-6"/></g><g transform="translate(52.67 -37.302)" fill="none" stroke="#162d50" stroke-width=".767"><path d="m94.854 55.047-19.831 1e-6"/><path d="m75.023 42.083 19.831 1e-6"/></g></g><text transform="scale(.26458)" fill="#162d50" font-family="Sans" font-size="16px" text-align="center" style="font-variant-caps:normal;font-variant-east-asian:normal;font-variant-ligatures:normal;font-variant-numeric:normal;line-height:20px;shape-inside:url(#rect33);white-space:pre" xml:space="preserve"/><g transform="translate(-9.2604 .52917)"><g transform="translate(-29.633)"><path transform="translate(4.2333 -2.6458)" d="m121.68 17.745h-3.2866c-3.5912 0-6.4823-2.8911-6.4823-6.4823 0-3.5912 2.8911-6.4823 6.4823-6.4823l3.2866-1e-6 12.937 1e-6h4.6788c3.5912 0 6.4823 2.8911 6.4823 6.4823 0 3.5912-2.8911 6.4823-6.4823 6.4823l-4.6788-1e-6z" fill="#162d50" fill-opacity=".15"/><path transform="translate(14.817 -2.6458)" d="m111.1 17.745h-3.2866c-3.5912 0-6.4823-2.8911-6.4823-6.4823 0-3.5912 2.8911-6.4823 6.4823-6.4823l3.2866-1e-6" fill="none" stroke="#162d50" stroke-width=".767"/><path transform="translate(-6.8792 -2.6458)" d="m145.73 4.7806h4.6788c3.5912 0 6.4823 2.8911 6.4823 6.4823 0 3.5912-2.8911 6.4823-6.4823 6.4823l-4.6788-1e-6" fill="none" stroke="#162d50" stroke-width=".767"/><g transform="translate(47.378 -39.948)" fill="#162d50" stroke="#162d50" stroke-width=".767"><path d="m94.854 55.047-19.831 1e-6"/><path d="m75.023 42.083 19.831 1e-6"/></g><g transform="translate(48.966 -39.948)" fill="none" stroke="#162d50" stroke-width=".767"><path d="m94.854 55.047-19.831 1e-6"/><path d="m75.023 42.083 19.831 1e-6"/></g></g><text transform="matrix(.26458 0 0 .26458 57.547 -.1376)" fill="#000000" font-family="Arial" font-size="20px" font-weight="bold" stroke-width="2.8989" text-align="justify" style="font-variant-caps:normal;font-variant-east-asian:normal;font-variant-ligatures:normal;font-variant-numeric:normal;line-height:20px;shape-inside:url(#rect15);white-space:pre" xml:space="preserve"><tspan x="119.50195" y="38.142042">Biocatalyst</tspan></text><path d="m103.32 15.483v8.2176h-0.89968l1.2862 1.9296 1.2862-1.9296h-0.90588v-8.2176z" fill="#162d50"/></g><text transform="matrix(.26458 0 0 .26458 57.631 -118.25)" fill="#000000" font-family="Arial" font-size="20px" stroke-width="2.8989" text-align="justify" style="font-variant-caps:normal;font-variant-east-asian:normal;font-variant-ligatures:normal;font-variant-numeric:normal;line-height:20px;shape-inside:url(#rect19-46);white-space:pre" xml:space="preserve"><tspan x="43.839844" y="576.95845">Source of Biocatalyst</tspan></text><g transform="translate(-9.525 1.1498)"><g transform="translate(-25.368 77.359)"><path d="m111.1 17.745h-3.2866c-3.5912 0-6.4823-2.8911-6.4823-6.4823 0-3.5912 2.8911-6.4823 6.4823-6.4823l3.2866-1e-6 34.633 1e-6h4.6788c3.5912 0 6.4823 2.8911 6.4823 6.4823 0 3.5912-2.8911 6.4823-6.4823 6.4823l-4.6788-1e-6z" fill="#162d50" fill-opacity=".15"/><path d="m111.1 17.745h-3.2866c-3.5912 0-6.4823-2.8911-6.4823-6.4823 0-3.5912 2.8911-6.4823 6.4823-6.4823l3.2866-1e-6" fill="none" stroke="#162d50" stroke-width=".767"/><path d="m145.73 4.7806h4.6788c3.5912 0 6.4823 2.8911 6.4823 6.4823 0 3.5912-2.8911 6.4823-6.4823 6.4823l-4.6788-1e-6" fill="none" stroke="#162d50" stroke-width=".767"/><g transform="translate(34.149 -37.302)" fill="#162d50" stroke="#162d50" stroke-width=".767"><path d="m94.854 55.047-19.831 1e-6"/><path d="m75.023 42.083 19.831 1e-6"/></g><g transform="translate(52.67 -37.302)" fill="none" stroke="#162d50" stroke-width=".767"><path d="m94.854 55.047-19.831 1e-6"/><path d="m75.023 42.083 19.831 1e-6"/></g></g><text transform="matrix(.26458 0 0 .26458 65.95 -62.694)" fill="#000000" font-family="Arial" font-size="20px" stroke-width="2.8989" text-align="justify" style="font-variant-caps:normal;font-variant-east-asian:normal;font-variant-ligatures:normal;font-variant-numeric:normal;line-height:20px;shape-inside:url(#rect19-46-7);white-space:pre" xml:space="preserve"><tspan x="43.839844" y="576.95845">Biocatalyst application</tspan></text></g><g transform="translate(-39.158 .52917)" fill="#162d50"><path d="m122.34 38.821-5.8107 5.8107-0.63618-0.63617-0.45493 2.2739 2.2739-0.45493-0.64056-0.64056 5.8107-5.8107z"/><path d="m144.34 38.821 5.8107 5.8107 0.63616-0.63617 0.45494 2.2739-2.2739-0.45493 0.64056-0.64056-5.8107-5.8107z"/></g><text transform="matrix(.26458 0 0 .26458 -17.407 -67.612)" fill="#000000" font-family="Sans" font-size="13.333px" stroke-width="2.8989" text-align="center" style="font-variant-caps:normal;font-variant-east-asian:normal;font-variant-ligatures:normal;font-variant-numeric:normal;line-height:19.2px;shape-inside:url(#rect28-00);white-space:pre" xml:space="preserve"><tspan x="315.48438" y="446.05504"><tspan font-family="Arial" font-size="16px">Purchased</tspan></tspan></text><text transform="matrix(.26458 0 0 .26458 -12.185 -69.665)" fill="#000000" font-family="Sans" font-size="13.333px" stroke-width="2.8989" text-align="center" style="font-variant-caps:normal;font-variant-east-asian:normal;font-variant-ligatures:normal;font-variant-numeric:normal;line-height:19.2px;shape-inside:url(#rect29-32);white-space:pre" xml:space="preserve"><tspan x="420.79102" y="452.41832"><tspan font-family="Arial" font-size="16px">Self-produced</tspan></tspan></text><path transform="translate(-96.776 33.997)" d="m197 25.414h4.6788c3.5912 0 6.4823 2.8911 6.4823 6.4823s-2.8911 6.4823-6.4823 6.4823l-4.6788-1e-6 -13.466 2e-6h-3.2866c-3.5912 0-6.4823-2.8911-6.4823-6.4823s2.8911-6.4823 6.4823-6.4823l3.2866-1e-6z" fill="#162d50" fill-opacity=".15"/><g transform="translate(-17.122 .52917)"><g fill="none" stroke="#162d50" stroke-width=".767"><path transform="translate(-57.617 33.468)" d="m161.49 38.378h-3.2866c-3.5912 0-6.4823-2.8911-6.4823-6.4823s2.8911-6.4823 6.4823-6.4823l3.2866-1e-6"/><path transform="translate(-105.24 33.468)" d="m222.58 25.414h4.6788c3.5912 0 6.4823 2.8911 6.4823 6.4823s-2.8911 6.4823-6.4823 6.4823l-4.6788-1e-6"/><g transform="translate(26.401 16.799)"><path d="m94.854 55.047-19.831 1e-6"/><path d="m75.023 42.083 19.831 1e-6"/></g></g><text transform="matrix(.26458 0 0 .26458 -55.074 7.0302)" fill="#000000" font-family="Arial" font-size="20px" font-weight="bold" stroke-width="2.8989" text-align="justify" style="font-variant-caps:normal;font-variant-east-asian:normal;font-variant-ligatures:normal;font-variant-numeric:normal;line-height:20px;shape-inside:url(#rect17-2);white-space:pre" xml:space="preserve"><tspan x="571" y="227.51509">Formulation</tspan></text></g><path d="m111.54 51.543-5.8107 5.8107-0.63617-0.63617-0.45494 2.2739 2.2739-0.45493-0.64056-0.64056 5.8107-5.8107z" fill="#162d50"/><path d="m76.822 51.543 5.8107 5.8107 0.63617-0.63617 0.45494 2.2739-2.2739-0.45493 0.64055-0.64056-5.8107-5.8107z" fill="#162d50"/><g transform="translate(-33.433 28.497)"><path transform="translate(-34.087 107.93)" d="m176.77 46.181h4.6788c3.5912 0 6.4823 2.8911 6.4823 6.4823s-2.8911 6.4823-6.4823 6.4823l-4.6788-1e-6 -31.457 1e-6h-3.2866c-3.5912 0-6.4823-2.8911-6.4823-6.4823s2.8911-6.4823 6.4823-6.4823l3.2866-1e-6z" fill="#162d50" fill-opacity=".15"/><path transform="translate(-34.087 107.93)" d="m145.31 59.146h-3.2866c-3.5912 0-6.4823-2.8911-6.4823-6.4823s2.8911-6.4823 6.4823-6.4823l3.2866-1e-6" fill="none" stroke="#162d50" stroke-width=".767"/><path transform="translate(-34.087 107.93)" d="m176.77 46.181h4.6788c3.5912 0 6.4823 2.8911 6.4823 6.4823s-2.8911 6.4823-6.4823 6.4823l-4.6788-1e-6" fill="none" stroke="#162d50" stroke-width=".767"/><g transform="translate(35.864 112.02)" fill="none" stroke="#162d50" stroke-width=".767"><path d="m94.854 55.047-19.831 1e-6"/><path d="m75.023 42.083 19.831 1e-6"/></g><g transform="translate(48.564 112.02)" fill="none" stroke="#162d50" stroke-width=".767"><path d="m94.854 55.047-19.831 1e-6"/><path d="m75.023 42.083 19.831 1e-6"/></g></g><g><text transform="matrix(.26458 0 0 .26458 59.062 49.775)" fill="#000000" font-family="Arial" font-size="20px" stroke-width="2.8989" text-align="justify" style="font-variant-caps:normal;font-variant-east-asian:normal;font-variant-ligatures:normal;font-variant-numeric:normal;line-height:20px;shape-inside:url(#rect18-6-14);white-space:pre" xml:space="preserve"><tspan x="42.425781" y="531.70259"><tspan font-weight="bold">Storage conditions</tspan></tspan></text><path d="m93.829 195.95v8.2176h-0.89967l1.2862 1.9296 1.2862-1.9296h-0.90587v-8.2176z" fill="#162d50"/><text transform="matrix(.26458 0 0 .26458 -7.9989 91.71)" fill="#000000" font-family="Arial" font-size="16px" stroke-width="2.8989" text-align="center" style="font-variant-caps:normal;font-variant-east-asian:normal;font-variant-ligatures:normal;font-variant-numeric:normal;line-height:19.2px;shape-inside:url(#rect28-6-8);white-space:pre" xml:space="preserve"><tspan x="320.00586" y="446.05504">Storage conditions</tspan></text><text transform="matrix(.26458 0 0 .26458 -41.287 49.257)" fill="#000000" font-family="Sans" font-size="13.333px" stroke-width="2.8989" text-align="center" style="font-variant-caps:normal;font-variant-east-asian:normal;font-variant-ligatures:normal;font-variant-numeric:normal;line-height:33.1779px;shape-inside:url(#rect29-6-6);white-space:pre" xml:space="preserve"><tspan x="428.74805" y="459.40727"><tspan font-family="Arial" font-size="16px">Immobilised biocatalyst</tspan></tspan></text><path d="m93.829 156.73v8.2176h-0.89967l1.2862 1.9296 1.2862-1.9296h-0.90587v-8.2176z" fill="#162d50"/></g><g fill="#000000" stroke-width="2.8989"><text transform="matrix(.26458 0 0 .26458 74.805 3.2881)" font-family="Arial" font-size="16px" text-align="center" style="font-variant-caps:normal;font-variant-east-asian:normal;font-variant-ligatures:normal;font-variant-numeric:normal;line-height:15px;shape-inside:url(#rect28-4);white-space:pre" xml:space="preserve"><tspan x="316.875" y="443.95504">Cell-free-</tspan><tspan x="312.41016" y="458.95504">production</tspan></text><g font-family="Sans" font-size="13.333px"><text transform="matrix(.26458 0 0 .26458 4.7945 1.6045)" text-align="center" style="font-variant-caps:normal;font-variant-east-asian:normal;font-variant-ligatures:normal;font-variant-numeric:normal;line-height:15px;shape-inside:url(#rect29-8);white-space:pre" xml:space="preserve"><tspan x="447.32715" y="450.31832"><tspan font-family="Arial" font-size="16px">Secreted </tspan></tspan><tspan x="441.5498" y="465.89934"><tspan font-family="Arial" font-size="16px">biocatalyst</tspan></tspan></text><text transform="matrix(.26458 0 0 .26458 -141.68 2.5399)" text-align="center" style="font-variant-caps:normal;font-variant-east-asian:normal;font-variant-ligatures:normal;font-variant-numeric:normal;line-height:15px;shape-inside:url(#rect30-26);white-space:pre" xml:space="preserve"><tspan x="556.0332" y="446.78316"><tspan font-family="Arial" font-size="16px">Purified </tspan></tspan><tspan x="545.36133" y="462.36419"><tspan font-family="Arial" font-size="16px">biocatalyst</tspan></tspan></text><text transform="matrix(.26458 0 0 .26458 -40.614 3.2881)" text-align="center" style="font-variant-caps:normal;font-variant-east-asian:normal;font-variant-ligatures:normal;font-variant-numeric:normal;line-height:15px;shape-inside:url(#rect28-6);white-space:pre" xml:space="preserve"><tspan x="312.38867" y="443.95504"><tspan font-family="Arial" font-size="16px">Crude cell </tspan></tspan><tspan x="324.39648" y="459.53606"><tspan font-family="Arial" font-size="16px">extract</tspan></tspan></text><text transform="matrix(.26458 0 0 .26458 -63.798 2.4882)" text-align="center" style="font-variant-caps:normal;font-variant-east-asian:normal;font-variant-ligatures:normal;font-variant-numeric:normal;line-height:15px;shape-inside:url(#rect30-7);white-space:pre" xml:space="preserve"><tspan x="559.84863" y="446.78316"><tspan font-family="Arial" font-size="16px">Whole cell </tspan></tspan><tspan x="558.9541" y="462.36419"><tspan font-family="Arial" font-size="16px">biocatalyst</tspan></tspan></text></g></g><g fill="#162d50"><g><path d="m93.829 107.45v8.2176h-0.89967l1.2862 1.9296 1.2862-1.9296h-0.90587v-8.2176z"/><path d="m51.287 107.45v8.2176h-0.89968l1.2862 1.9296 1.2862-1.9296h-0.90588v-8.2176z"/><path d="m12.349 107.45v8.2176h-0.89968l1.2862 1.9296 1.2862-1.9296h-0.90588v-8.2176z"/><path d="m131.36 107.45v8.2176h-0.89968l1.2862 1.9296 1.2862-1.9296h-0.90588v-8.2176z"/><path d="m166.96 107.45v8.2176h-0.89968l1.2862 1.9296 1.2862-1.9296h-0.90588v-8.2176z"/></g><path transform="translate(-61.434 97.197)" d="m164.6 46.181h4.6788c3.5912 0 6.4823 2.8911 6.4823 6.4823s-2.8911 6.4823-6.4823 6.4823l-4.6788-1e-6 -19.287 1e-6h-3.2866c-3.5912 0-6.4823-2.8911-6.4823-6.4823s2.8911-6.4823 6.4823-6.4823l3.2866-1e-6z" fill-opacity=".15"/></g><g transform="translate(-95.345 81.626)" fill="none" stroke="#162d50" stroke-width=".767"><path transform="translate(33.911 15.571)" d="m145.31 59.146h-3.2866c-3.5912 0-6.4823-2.8911-6.4823-6.4823s2.8911-6.4823 6.4823-6.4823l3.2866-1e-6"/><path transform="translate(21.74 15.571)" d="m176.77 46.181h4.6788c3.5912 0 6.4823 2.8911 6.4823 6.4823s-2.8911 6.4823-6.4823 6.4823l-4.6788-1e-6"/><g transform="translate(103.86 19.67)"><path d="m94.854 55.047-19.831 1e-6"/><path d="m75.023 42.083 19.831 1e-6"/></g></g><text transform="matrix(.26458 0 0 .26458 64.318 11.044)" fill="#000000" font-family="Arial" font-size="20px" stroke-width="2.8989" text-align="justify" style="font-variant-caps:normal;font-variant-east-asian:normal;font-variant-ligatures:normal;font-variant-numeric:normal;line-height:20px;shape-inside:url(#rect18-6-8);white-space:pre" xml:space="preserve"><tspan x="42.425781" y="531.70259"><tspan font-weight="bold">Immobilisation</tspan></tspan></text><g fill="#162d50"><rect transform="matrix(0,-1,-1,0,0,0)" x="-107.45" y="-167.72" width=".767" height="155.37" ry="0"/><path d="m94.602 132.85v8.2176h0.89967l-1.2862 1.9296-1.2862-1.9296h0.90587v-8.2176z"/><rect transform="rotate(90)" x="132.08" y="-167.72" width=".767" height="155.37" ry="0"/></g><text transform="matrix(.26458 0 0 .26458 -11.533 22.39)" fill="#000000" font-family="Arial" font-size="20px" font-weight="bold" stroke-width="2.8989" text-align="center" style="font-variant-caps:normal;font-variant-east-asian:normal;font-variant-ligatures:normal;font-variant-numeric:normal;line-height:30px;shape-inside:url(#rect11);white-space:pre" xml:space="preserve"><tspan x="404.81836" y="440.89009"><tspan font-size="16px" font-weight="normal">if applicable</tspan></tspan></text><g fill="#162d50"><rect transform="scale(1,-1)" x="12.352" y="-132.08" width=".767" height="5.844" ry="0"/><rect transform="scale(1,-1)" x="51.29" y="-132.08" width=".767" height="5.844" ry="0"/><rect transform="scale(1,-1)" x="93.832" y="-132.08" width=".767" height="5.844" ry="0"/><rect transform="scale(1,-1)" x="93.832" y="-106.76" width=".767" height="10.147" ry="0"/><rect transform="scale(1,-1)" x="131.36" y="-132.08" width=".767" height="5.844" ry="0"/><rect transform="scale(1,-1)" x="166.96" y="-132.08" width=".767" height="5.844" ry="0"/><path d="m93.829 172.07v8.2176h-0.89967l1.2862 1.9296 1.2862-1.9296h-0.90587v-8.2176z"/><path d="m93.829 72.759v8.2175h-0.89967l1.2862 1.9296 1.2862-1.9296h-0.90587v-8.2175z"/></g></g></svg>
