<?xml version="1.0" encoding="UTF-8"?>
<!-- Created with Inkscape (http://www.inkscape.org/) -->
<svg width="47.5mm" height="54mm" version="1.1" viewBox="0 0 47.5 54" xmlns="http://www.w3.org/2000/svg">
 <rect x="-2.235" y="-4.8426" width="55.007" height="60.967" ry="2.712" fill="#fff"/>
 <g transform="translate(-165.85 -8.2528)" clip-rule="evenodd" fill-rule="evenodd" stroke-linecap="round" stroke-linejoin="round" stroke-miterlimit="1.5">
  <g transform="matrix(.083946 0 0 .083946 115.62 -49.337)">
   <path d="m879.6 694.21 271.76 156.9v313.81l-271.76 156.91-271.77-156.91v-313.81z" fill="none" stroke="#b9d25f" stroke-width="12.5px"/>
  </g>
  <g transform="matrix(.083946 0 0 .083946 68.41 -80.947)">
   <g transform="matrix(.15068 0 0 .15068 1290.8 1088.2)">
    <g transform="rotate(37.151 952.07 520.24)">
     <g transform="rotate(250.68 1075.6 1378.9)">
      <path d="m811.77 1339.4s152.57-37.03 226.63-37.03c69.73 0 217.74 37.03 217.74 37.03" fill="none" stroke="#000" stroke-width="17.38px"/>
     </g>
     <g transform="rotate(250.68 1096.8 1293.7)">
      <path d="m811.77 1339.4s152.57-37.03 226.63-37.03c69.73 0 217.74 37.03 217.74 37.03" fill="none" stroke="#000" stroke-width="17.38px"/>
     </g>
     <g transform="rotate(-57.201 1066 1291.4)">
      <path d="m1077.3 1180.1 137.35 40.86" fill="none" stroke="#000" stroke-width="17.38px"/>
     </g>
     <g transform="rotate(-57.201 1524.1 1366.2)">
      <path d="m1077.3 1180.1 137.35 40.86" fill="none" stroke="#000" stroke-width="17.38px"/>
     </g>
    </g>
    <g transform="rotate(37.151 1078.4 925.29)">
     <g transform="rotate(250.68 1075.6 1378.9)">
      <path d="m811.77 1339.4s152.57-37.03 226.63-37.03c69.73 0 217.74 37.03 217.74 37.03" fill="none" stroke="#000" stroke-width="17.38px"/>
     </g>
     <g transform="rotate(250.68 1096.8 1293.7)">
      <path d="m811.77 1339.4s152.57-37.03 226.63-37.03c69.73 0 217.74 37.03 217.74 37.03" fill="none" stroke="#000" stroke-width="17.38px"/>
     </g>
     <g transform="rotate(-57.201 1066 1291.4)">
      <path d="m1077.3 1180.1 137.35 40.86" fill="none" stroke="#000" stroke-width="17.38px"/>
     </g>
     <g transform="rotate(-57.201 1524.1 1366.2)">
      <path d="m1077.3 1180.1 137.35 40.86" fill="none" stroke="#000" stroke-width="17.38px"/>
     </g>
    </g>
    <g transform="matrix(.80506 .62167 -.59956 .8067 490.17 -507.55)">
     <path d="m1138.2 1370.6 205.71 111.87" fill="none" stroke="#000" stroke-width="17.03px"/>
    </g>
    <g transform="matrix(.81279 .65338 -.59838 .81721 756.98 -571.28)">
     <path d="m1138.2 1370.6 205.71 111.87" fill="none" stroke="#000" stroke-width="16.54px"/>
    </g>
    <g transform="rotate(37.151 952.07 520.24)">
     <path d="m1087.3 1128.3 118.39 8.74" fill="none" stroke="#000" stroke-width="17.38px"/>
    </g>
    <g transform="rotate(37.151 1078.4 925.29)">
     <path d="m1087.3 1128.3 118.39 8.74" fill="none" stroke="#000" stroke-width="17.38px"/>
    </g>
    <g transform="rotate(37.151 1226.4 1336.5)">
     <g transform="rotate(250.68 1075.6 1378.9)">
      <path d="m811.77 1339.4s152.57-37.03 226.63-37.03c69.73 0 217.74 37.03 217.74 37.03" fill="none" stroke="#000" stroke-width="17.38px"/>
     </g>
     <g transform="rotate(250.68 1096.8 1293.7)">
      <path d="m811.77 1339.4s152.57-37.03 226.63-37.03c69.73 0 217.74 37.03 217.74 37.03" fill="none" stroke="#000" stroke-width="17.38px"/>
     </g>
     <g transform="rotate(-57.201 1066 1291.4)">
      <path d="m1077.3 1180.1 137.35 40.86" fill="none" stroke="#000" stroke-width="17.38px"/>
     </g>
     <g transform="rotate(-57.201 1524.1 1366.2)">
      <path d="m1077.3 1180.1 137.35 40.86" fill="none" stroke="#000" stroke-width="17.38px"/>
     </g>
    </g>
    <g transform="rotate(37.151 1352.7 1741.6)">
     <g transform="rotate(250.68 1075.6 1378.9)">
      <path d="m811.77 1339.4s152.57-37.03 226.63-37.03c69.73 0 217.74 37.03 217.74 37.03" fill="none" stroke="#000" stroke-width="17.38px"/>
     </g>
     <g transform="rotate(250.68 1096.8 1293.7)">
      <path d="m811.77 1339.4s152.57-37.03 226.63-37.03c69.73 0 217.74 37.03 217.74 37.03" fill="none" stroke="#000" stroke-width="17.38px"/>
     </g>
     <g transform="rotate(-57.201 1066 1291.4)">
      <path d="m1077.3 1180.1 137.35 40.86" fill="none" stroke="#000" stroke-width="17.38px"/>
     </g>
     <g transform="rotate(-57.201 1524.1 1366.2)">
      <path d="m1077.3 1180.1 137.35 40.86" fill="none" stroke="#000" stroke-width="17.38px"/>
     </g>
    </g>
    <g transform="matrix(.80506 .62167 -.59956 .8067 1038.8 -507.55)">
     <path d="m1138.2 1370.6 205.71 111.87" fill="none" stroke="#000" stroke-width="17.03px"/>
    </g>
    <g transform="rotate(37.151 1226.4 1336.5)">
     <path d="m1087.3 1128.3 118.39 8.74" fill="none" stroke="#000" stroke-width="17.38px"/>
    </g>
    <g transform="rotate(37.151 1352.7 1741.6)">
     <path d="m1087.3 1128.3 118.39 8.74" fill="none" stroke="#000" stroke-width="17.38px"/>
    </g>
   </g>
   <g transform="matrix(-.078606 .12856 -.12856 -.078606 1787.3 1403.2)">
    <g transform="rotate(37.151 952.07 520.24)">
     <g transform="rotate(250.68 1075.6 1378.9)">
      <path d="m811.77 1339.4s152.57-37.03 226.63-37.03c69.73 0 217.74 37.03 217.74 37.03" fill="none" stroke="#000" stroke-width="17.38px"/>
     </g>
     <g transform="rotate(250.68 1096.8 1293.7)">
      <path d="m811.77 1339.4s152.57-37.03 226.63-37.03c69.73 0 217.74 37.03 217.74 37.03" fill="none" stroke="#000" stroke-width="17.38px"/>
     </g>
     <g transform="rotate(-57.201 1066 1291.4)">
      <path d="m1077.3 1180.1 137.35 40.86" fill="none" stroke="#000" stroke-width="17.38px"/>
     </g>
     <g transform="rotate(-57.201 1524.1 1366.2)">
      <path d="m1077.3 1180.1 137.35 40.86" fill="none" stroke="#000" stroke-width="17.38px"/>
     </g>
    </g>
    <g transform="rotate(37.151 1078.4 925.29)">
     <g transform="rotate(250.68 1075.6 1378.9)">
      <path d="m811.77 1339.4s152.57-37.03 226.63-37.03c69.73 0 217.74 37.03 217.74 37.03" fill="none" stroke="#000" stroke-width="17.38px"/>
     </g>
     <g transform="rotate(250.68 1096.8 1293.7)">
      <path d="m811.77 1339.4s152.57-37.03 226.63-37.03c69.73 0 217.74 37.03 217.74 37.03" fill="none" stroke="#000" stroke-width="17.38px"/>
     </g>
     <g transform="rotate(-57.201 1066 1291.4)">
      <path d="m1077.3 1180.1 137.35 40.86" fill="none" stroke="#000" stroke-width="17.38px"/>
     </g>
     <g transform="rotate(-57.201 1524.1 1366.2)">
      <path d="m1077.3 1180.1 137.35 40.86" fill="none" stroke="#000" stroke-width="17.38px"/>
     </g>
    </g>
    <g transform="matrix(.80506 .62167 -.59956 .8067 490.17 -507.55)">
     <path d="m1138.2 1370.6 205.71 111.87" fill="none" stroke="#000" stroke-width="17.03px"/>
    </g>
    <g transform="matrix(.81279 .65338 -.59838 .81721 756.98 -571.28)">
     <path d="m1138.2 1370.6 205.71 111.87" fill="none" stroke="#000" stroke-width="16.54px"/>
    </g>
    <g transform="rotate(37.151 952.07 520.24)">
     <path d="m1087.3 1128.3 118.39 8.74" fill="none" stroke="#000" stroke-width="17.38px"/>
    </g>
    <g transform="rotate(37.151 1078.4 925.29)">
     <path d="m1087.3 1128.3 118.39 8.74" fill="none" stroke="#000" stroke-width="17.38px"/>
    </g>
    <g transform="rotate(37.151 1226.4 1336.5)">
     <g transform="rotate(250.68 1075.6 1378.9)">
      <path d="m811.77 1339.4s152.57-37.03 226.63-37.03c69.73 0 217.74 37.03 217.74 37.03" fill="none" stroke="#000" stroke-width="17.38px"/>
     </g>
     <g transform="rotate(250.68 1096.8 1293.7)">
      <path d="m811.77 1339.4s152.57-37.03 226.63-37.03c69.73 0 217.74 37.03 217.74 37.03" fill="none" stroke="#000" stroke-width="17.38px"/>
     </g>
     <g transform="rotate(-57.201 1066 1291.4)">
      <path d="m1077.3 1180.1 137.35 40.86" fill="none" stroke="#000" stroke-width="17.38px"/>
     </g>
     <g transform="rotate(-57.201 1524.1 1366.2)">
      <path d="m1077.3 1180.1 137.35 40.86" fill="none" stroke="#000" stroke-width="17.38px"/>
     </g>
    </g>
    <g transform="rotate(37.151 1352.7 1741.6)">
     <g transform="rotate(250.68 1075.6 1378.9)">
      <path d="m811.77 1339.4s152.57-37.03 226.63-37.03c69.73 0 217.74 37.03 217.74 37.03" fill="none" stroke="#000" stroke-width="17.38px"/>
     </g>
     <g transform="rotate(250.68 1096.8 1293.7)">
      <path d="m811.77 1339.4s152.57-37.03 226.63-37.03c69.73 0 217.74 37.03 217.74 37.03" fill="none" stroke="#000" stroke-width="17.38px"/>
     </g>
     <g transform="rotate(-57.201 1066 1291.4)">
      <path d="m1077.3 1180.1 137.35 40.86" fill="none" stroke="#000" stroke-width="17.38px"/>
     </g>
     <g transform="rotate(-57.201 1524.1 1366.2)">
      <path d="m1077.3 1180.1 137.35 40.86" fill="none" stroke="#000" stroke-width="17.38px"/>
     </g>
    </g>
    <g transform="matrix(.80506 .62167 -.59956 .8067 1038.8 -507.55)">
     <path d="m1138.2 1370.6 205.71 111.87" fill="none" stroke="#000" stroke-width="17.03px"/>
    </g>
    <g transform="rotate(37.151 1226.4 1336.5)">
     <path d="m1087.3 1128.3 118.39 8.74" fill="none" stroke="#000" stroke-width="17.38px"/>
    </g>
    <g transform="rotate(37.151 1352.7 1741.6)">
     <path d="m1087.3 1128.3 118.39 8.74" fill="none" stroke="#000" stroke-width="17.38px"/>
    </g>
   </g>
   <g transform="matrix(-.10655 -.10655 .10655 -.10655 1351.4 1665.2)">
    <g transform="rotate(37.151 952.07 520.24)">
     <g transform="rotate(250.68 1075.6 1378.9)">
      <path d="m811.77 1339.4s152.57-37.03 226.63-37.03c69.73 0 217.74 37.03 217.74 37.03" fill="none" stroke="#000" stroke-width="17.38px"/>
     </g>
     <g transform="rotate(250.68 1096.8 1293.7)">
      <path d="m811.77 1339.4s152.57-37.03 226.63-37.03c69.73 0 217.74 37.03 217.74 37.03" fill="none" stroke="#000" stroke-width="17.38px"/>
     </g>
     <g transform="rotate(-57.201 1066 1291.4)">
      <path d="m1077.3 1180.1 137.35 40.86" fill="none" stroke="#000" stroke-width="17.38px"/>
     </g>
     <g transform="rotate(-57.201 1524.1 1366.2)">
      <path d="m1077.3 1180.1 137.35 40.86" fill="none" stroke="#000" stroke-width="17.38px"/>
     </g>
    </g>
    <g transform="rotate(37.151 1078.4 925.29)">
     <g transform="rotate(250.68 1075.6 1378.9)">
      <path d="m811.77 1339.4s152.57-37.03 226.63-37.03c69.73 0 217.74 37.03 217.74 37.03" fill="none" stroke="#000" stroke-width="17.38px"/>
     </g>
     <g transform="rotate(250.68 1096.8 1293.7)">
      <path d="m811.77 1339.4s152.57-37.03 226.63-37.03c69.73 0 217.74 37.03 217.74 37.03" fill="none" stroke="#000" stroke-width="17.38px"/>
     </g>
     <g transform="rotate(-57.201 1066 1291.4)">
      <path d="m1077.3 1180.1 137.35 40.86" fill="none" stroke="#000" stroke-width="17.38px"/>
     </g>
     <g transform="rotate(-57.201 1524.1 1366.2)">
      <path d="m1077.3 1180.1 137.35 40.86" fill="none" stroke="#000" stroke-width="17.38px"/>
     </g>
    </g>
    <g transform="matrix(.80506 .62167 -.59956 .8067 490.17 -507.55)">
     <path d="m1138.2 1370.6 205.71 111.87" fill="none" stroke="#000" stroke-width="17.03px"/>
    </g>
    <g transform="matrix(.81279 .65338 -.59838 .81721 756.98 -571.28)">
     <path d="m1138.2 1370.6 205.71 111.87" fill="none" stroke="#000" stroke-width="16.54px"/>
    </g>
    <g transform="rotate(37.151 952.07 520.24)">
     <path d="m1087.3 1128.3 118.39 8.74" fill="none" stroke="#000" stroke-width="17.38px"/>
    </g>
    <g transform="rotate(37.151 1078.4 925.29)">
     <path d="m1087.3 1128.3 118.39 8.74" fill="none" stroke="#000" stroke-width="17.38px"/>
    </g>
    <g transform="rotate(37.151 1226.4 1336.5)">
     <g transform="rotate(250.68 1075.6 1378.9)">
      <path d="m811.77 1339.4s152.57-37.03 226.63-37.03c69.73 0 217.74 37.03 217.74 37.03" fill="none" stroke="#000" stroke-width="17.38px"/>
     </g>
     <g transform="rotate(250.68 1096.8 1293.7)">
      <path d="m811.77 1339.4s152.57-37.03 226.63-37.03c69.73 0 217.74 37.03 217.74 37.03" fill="none" stroke="#000" stroke-width="17.38px"/>
     </g>
     <g transform="rotate(-57.201 1066 1291.4)">
      <path d="m1077.3 1180.1 137.35 40.86" fill="none" stroke="#000" stroke-width="17.38px"/>
     </g>
     <g transform="rotate(-57.201 1524.1 1366.2)">
      <path d="m1077.3 1180.1 137.35 40.86" fill="none" stroke="#000" stroke-width="17.38px"/>
     </g>
    </g>
    <g transform="rotate(37.151 1352.7 1741.6)">
     <g transform="rotate(250.68 1075.6 1378.9)">
      <path d="m811.77 1339.4s152.57-37.03 226.63-37.03c69.73 0 217.74 37.03 217.74 37.03" fill="none" stroke="#000" stroke-width="17.38px"/>
     </g>
     <g transform="rotate(250.68 1096.8 1293.7)">
      <path d="m811.77 1339.4s152.57-37.03 226.63-37.03c69.73 0 217.74 37.03 217.74 37.03" fill="none" stroke="#000" stroke-width="17.38px"/>
     </g>
     <g transform="rotate(-57.201 1066 1291.4)">
      <path d="m1077.3 1180.1 137.35 40.86" fill="none" stroke="#000" stroke-width="17.38px"/>
     </g>
     <g transform="rotate(-57.201 1524.1 1366.2)">
      <path d="m1077.3 1180.1 137.35 40.86" fill="none" stroke="#000" stroke-width="17.38px"/>
     </g>
    </g>
    <g transform="matrix(.80506 .62167 -.59956 .8067 1038.8 -507.55)">
     <path d="m1138.2 1370.6 205.71 111.87" fill="none" stroke="#000" stroke-width="17.03px"/>
    </g>
    <g transform="rotate(37.151 1226.4 1336.5)">
     <path d="m1087.3 1128.3 118.39 8.74" fill="none" stroke="#000" stroke-width="17.38px"/>
    </g>
    <g transform="rotate(37.151 1352.7 1741.6)">
     <path d="m1087.3 1128.3 118.39 8.74" fill="none" stroke="#000" stroke-width="17.38px"/>
    </g>
   </g>
   <g transform="matrix(.15068 0 0 .15068 1246.4 1183.2)">
    <path d="m1755.7 2214.5s-18.04-165.62-179.2-120.59-8.3-247.66 62.8-80.58c71.1 167.09-60.43 241.67-130.35 183.64-69.91-58.03-30.92-364.49-30.92-364.49" fill="none" stroke="#000" stroke-width="17.38px"/>
   </g>
   <g transform="matrix(.14718 -.00045448 -.00045448 .15062 1303.4 1115.2)">
    <path d="m1556.6 997.34c56.41-9.155 104.38-1.726 142.27 25.485" fill="none" stroke="#000" stroke-width="17.64px"/>
   </g>
   <g transform="matrix(.13683 .054205 -.056329 .1397 1396.1 1044.8)">
    <path d="m1556.6 997.34c56.41-9.155 104.38-1.726 142.27 25.485" fill="none" stroke="#000" stroke-width="17.64px"/>
   </g>
   <g transform="matrix(.14677 .034136 -.034136 .14677 1337.4 1041.4)">
    <ellipse cx="1733.6" cy="1198" rx="39.058" ry="53.088" fill="#fff" stroke="#000" stroke-width="17.38px"/>
   </g>
   <g transform="matrix(.15068 0 0 .15068 1297.5 1114.4)">
    <path d="m1739.6 1477.1 189.78-155s-332.78-70.29-112-224.93" fill="none" stroke="#000" stroke-width="17.38px"/>
   </g>
   <g transform="matrix(.15068 0 0 .15068 1246.4 1183.2)">
    <path d="m393.07 1238.7s419.42-90.4 134.28-244.09c-285.14-153.68 142.57 159.24-190.71 137.02-333.28-22.22 225.89-499.92-22.219-427.71" fill="none" stroke="#000" stroke-width="17.38px"/>
   </g>
  </g>
 </g>
</svg>
