<?xml version="1.0" encoding="UTF-8"?>
<!-- Created with Inkscape (http://www.inkscape.org/) -->
<svg width="276mm" height="70mm" version="1.1" viewBox="0 0 276 70" xml:space="preserve" xmlns="http://www.w3.org/2000/svg"><defs><linearGradient id="linearGradient65" x1="145.39" x2="155.54" y1="102.52" y2="108.51" gradientTransform="translate(-49.609,-45.225)" gradientUnits="userSpaceOnUse"><stop stop-color="#008033" stop-opacity=".5" offset="0"/><stop stop-color="#008033" offset="1"/></linearGradient><linearGradient id="linearGradient67" x1="172" x2="184.97" y1="87.199" y2="97.981" gradientTransform="translate(-49.609,-45.225)" gradientUnits="userSpaceOnUse"><stop stop-color="#ffcf00" stop-opacity=".50121" offset="0"/><stop stop-color="#fc0" offset="1"/></linearGradient><linearGradient id="linearGradient73" x1="203.29" x2="215.75" y1="105.99" y2="115.71" gradientTransform="translate(-49.609,-45.225)" gradientUnits="userSpaceOnUse"><stop stop-color="#f95" stop-opacity=".5" offset="0"/><stop stop-color="#f95" offset="1"/></linearGradient></defs><rect x="-3.449" y="-25.293" width="285.12" height="112.29" ry="2.712" fill="#fff" stroke-width=".5"/><text transform="scale(.26458)" fill="#2c5aa0" font-family="Arial" font-size="14.667px" font-weight="bold" text-align="center" style="font-variant-caps:normal;font-variant-east-asian:normal;font-variant-ligatures:normal;font-variant-numeric:normal;shape-inside:url(#rect240);white-space:pre" xml:space="preserve"/><g fill="#214478" font-weight="bold"><text transform="scale(.26458)" font-family="Arial" font-size="14.667px" text-align="center" style="font-variant-caps:normal;font-variant-east-asian:normal;font-variant-ligatures:normal;font-variant-numeric:normal;shape-inside:url(#rect241);white-space:pre" xml:space="preserve"/><text transform="scale(.26458)" font-family="Sans" font-size="14.667px" text-align="center" style="font-variant-caps:normal;font-variant-east-asian:normal;font-variant-ligatures:normal;font-variant-numeric:normal;shape-inside:url(#rect248);white-space:pre" xml:space="preserve"/><text x="202.63574" y="142.77148" font-family="Arial" font-size="3.8806px" stroke-opacity=".5" stroke-width="18.521" text-align="center" text-anchor="middle" style="font-variant-caps:normal;font-variant-east-asian:normal;font-variant-ligatures:normal;font-variant-numeric:normal" xml:space="preserve"><tspan x="202.63574" y="142.77148" stroke-width="18.521"/></text><text x="90.746605" y="49.886875" font-family="Arial" font-size="3.8806px" stroke-opacity=".5" stroke-width="18.521" text-align="center" text-anchor="middle" style="font-variant-caps:normal;font-variant-east-asian:normal;font-variant-ligatures:normal;font-variant-numeric:normal" xml:space="preserve"><tspan x="90.746605" y="49.886875" stroke-width="18.521"/></text></g><g transform="translate(-62.177 -64.823)"><path transform="translate(-6.3832,-8.9028)" d="m75.758 104.65c-1.6887-0.78456-3.102-2.1479-3.9468-3.8073s-1.1157-3.6043-0.75655-5.4315c0.34602-1.7603 1.2862-3.4155 2.6876-4.5354 1.7966-1.4357 4.2426-1.9105 6.5189-1.5831s4.3951 1.3959 6.2474 2.7589c1.3692 1.0076 2.6141 2.18 4.0172 3.1398s3.0178 1.7136 4.7177 1.7316c1.5361 0.01624 3.0232-0.57048 4.3449-1.3533 1.3217-0.78286 2.5141-1.7631 3.7783-2.6357s2.6327-1.6501 4.139-1.9517c0.75313-0.15075 1.5348-0.17874 2.2899-0.03805 0.75507 0.14068 1.4829 0.45348 2.0777 0.93939 0.64234 0.52472 1.114 1.2359 1.4479 1.9952 0.33391 0.75924 0.53705 1.569 0.70979 2.3802 0.34549 1.6225 0.59892 3.3279 1.5379 4.6954 0.66426 0.96747 1.641 1.7002 2.7213 2.1586 1.0804 0.45834 2.2616 0.65119 3.4351 0.66003 2.347 0.0177 4.6314-0.68005 6.9012-1.2774 2.2698-0.5973 4.6384-1.1022 6.9498-0.69456 1.1557 0.20384 2.2809 0.64168 3.2139 1.3536 0.93296 0.71191 1.6651 1.7072 1.9754 2.839 0.3421 1.2479 0.16454 2.5696 0.16797 3.8635 3e-3 1.2897 0.18907 2.5877 0 3.8635-0.20469 1.3812-0.85046 2.6808-1.759 3.741-0.90852 1.0602-2.0725 1.8868-3.3354 2.4824-2.5257 1.1911-5.3838 1.4575-8.1759 1.5036-1.7501 0.0289-3.5238-0.0249-5.2073-0.50393-3.2307-0.91924-5.8061-3.2906-8.3623-5.4696-1.2781-1.0895-2.5892-2.1533-4.0408-2.9979-1.4516-0.84459-3.0573-1.4674-4.7306-1.6112-2.1855-0.18788-4.3536 0.44292-6.4286 1.1544s-4.1518 1.5181-6.3377 1.7012c-0.89832 0.0753-1.8111 0.0425-2.6876-0.16798-1.4812-0.35573-2.8002-1.2029-3.9768-2.1705-1.1766-0.96758-2.24-2.0664-3.4142-3.0368-1.9819-1.638-4.2744-2.8989-6.7191-3.6955z" fill="#87aade" stroke="#5f8dd3" stroke-width="1.096" style="paint-order:normal"/><g fill="#afc6e9"><path transform="matrix(.97501 0 0 .97501 3.1437 2.5093)" d="m119.6 94.068c0.64842 0.39664 1.0793 1.1276 1.1123 1.887s-0.33281 1.525-0.94436 1.9765c-0.48237 0.35607-1.0849 0.51324-1.681 0.57815-0.59603 0.06491-1.198 0.04517-1.7962 0.08691-0.59811 0.04173-1.2057 0.14995-1.7262 0.44758-0.26024 0.14881-0.49556 0.34451-0.67536 0.58439-0.1798 0.23987-0.30275 0.52478-0.33654 0.82265-0.0326 0.28693 0.0182 0.58101 0.13188 0.84646 0.11368 0.26546 0.28907 0.50262 0.49984 0.70002 0.42153 0.3948 0.97365 0.62521 1.5349 0.76135s1.1393 0.18541 1.7112 0.26578c0.57193 0.0804 1.1473 0.19479 1.6654 0.44999 0.79543 0.39179 1.4024 1.091 1.8592 1.851s0.78211 1.59 1.1607 2.3918c0.37855 0.80181 0.82193 1.5913 1.4659 2.2008 0.322 0.30474 0.69263 0.56122 1.1018 0.73181 0.4092 0.1706 0.85775 0.25364 1.2995 0.21562 0.79181-0.0682 1.5113-0.51993 2.0569-1.0978 0.54562-0.57785 0.94086-1.2783 1.3271-1.9728s0.77417-1.398 1.3085-1.9863c0.53434-0.58828 1.238-1.0596 2.0266-1.1583 0.64988-0.0814 1.3292 0.1039 1.8478 0.50393-2.8e-4 -0.33783 3e-3 -0.67566 0.0112-1.0134 0.0195-0.84913 0.0643-1.6977 0.13568-2.544 0.11367-1.3487 0.29171-2.7317-0.0678-4.0366-0.11616-0.42161-0.2867-0.82639-0.47489-1.2211-0.32374-0.6791-0.70364-1.3361-1.188-1.9118-0.48432-0.57569-1.0773-1.0694-1.7632-1.3785-0.54304-0.24474-1.1355-0.37008-1.73-0.40705-0.226-0.01405-0.45272-0.01559-0.67841-0.03392-0.738-0.05995-1.4706-0.29903-2.2048-0.20352-0.43373 0.05642-0.84274 0.22717-1.2551 0.37313-0.38409 0.13597-0.78022 0.25237-1.1872 0.27136-0.25985 0.01213-0.52052-0.01567-0.78018 0-0.43106 0.02601-0.84481 0.17044-1.2551 0.30529-0.82728 0.27192-1.6657 0.51007-2.5124 0.71364z" style="paint-order:normal"/><path d="m96.083 84.661c0.67558 0.42343 1.1753 1.1186 1.3614 1.8939s0.05631 1.6216-0.3535 2.3055c-0.23105 0.38559-0.54334 0.71603-0.79358 1.0895-0.12512 0.18671-0.23505 0.38517-0.30697 0.59812-0.07192 0.21294-0.10493 0.44133-0.07529 0.66412 0.03834 0.28817 0.17947 0.55467 0.35846 0.78374 0.17898 0.22907 0.39573 0.42529 0.60857 0.62329 0.21285 0.19801 0.42448 0.40082 0.5903 0.63959s0.28467 0.51836 0.29043 0.80901c0.0065 0.32688-0.13026 0.64297-0.31861 0.91021-0.18836 0.26724-0.42737 0.49386-0.6562 0.72738s-0.45182 0.47979-0.59815 0.77216c-0.07317 0.14619-0.12637 0.30319-0.14776 0.46526-0.0214 0.16207-0.01042 0.32935 0.04095 0.48455 0.07954 0.24031 0.25427 0.44322 0.46725 0.58001s0.46237 0.21045 0.71399 0.23811c0.50323 0.05531 1.0064-0.06709 1.5064-0.14621 0.42795-0.06772 0.86358-0.10401 1.2948-0.06192 0.43123 0.04209 0.85937 0.1652 1.2249 0.39788 0.5608 0.35701 0.93282 0.93864 1.4054 1.4062 0.23627 0.2338 0.50388 0.44292 0.81227 0.56694s0.66189 0.15703 0.97395 0.0425c0.2348-0.0862 0.43681-0.25262 0.57948-0.45804s0.22737-0.44838 0.25938-0.69642c0.064-0.4961-0.0789-0.99803-0.28695-1.4529-0.20803-0.4549-0.481-0.87727-0.69974-1.3271-0.21874-0.44985-0.38475-0.94139-0.3561-1.4408 0.0275-0.47997 0.23393-0.93473 0.50318-1.333 0.26925-0.39829 0.60138-0.7492 0.91579-1.1129s0.61566-0.74724 0.8084-1.1877c0.19275-0.44043 0.26938-0.9474 0.12431-1.4057-0.11186-0.35344-0.34939-0.65871-0.63752-0.89198s-0.62565-0.39874-0.97244-0.52976c-0.69359-0.26204-1.4405-0.39634-2.0856-0.76197-0.55237-0.31311-1.0042-0.7843-1.356-1.3129s-0.60807-1.115-0.82776-1.7107c-0.28234-0.76563-0.50715-1.5525-0.67191-2.3517-0.40292 0.24025-0.82246 0.45263-1.2546 0.63511-0.31572 0.13331-0.64771 0.25672-0.89297 0.49609-0.04464 0.04357-0.08591 0.09058-0.13229 0.13229-0.11426 0.10276-0.25574 0.17007-0.39882 0.22615-0.14307 0.05608-0.29029 0.10254-0.42801 0.17072-0.23814 0.1179-0.44377 0.30067-0.5888 0.52334z"/><path transform="matrix(.98686 0 0 .99251 1.176 .75227)" d="m66.855 81.973c0.9331-0.0711 1.8864 0.15157 2.6915 0.62864 0.80507 0.47708 1.4582 1.2064 1.8439 2.059 0.44271 0.97861 0.52846 2.0743 0.6464 3.1419s0.2874 2.168 0.8654 3.0733c0.4856 0.76059 1.2231 1.3235 1.9781 1.8176 0.75506 0.49417 1.5486 0.94039 2.2213 1.5419 0.7426 0.66406 1.3125 1.4946 1.8906 2.306 0.57802 0.81137 1.1824 1.6232 1.9729 2.2294 0.68409 0.52454 1.499 0.88112 2.3517 1.0079 1.1746 0.17461 2.409-0.09848 3.4046-0.74596 0.99552-0.64748 1.7445-1.6625 2.0769-2.8025s0.24699-2.3958-0.22971-3.4835-1.3399-1.9999-2.3961-2.5428c-0.87867-0.45159-1.8636-0.64674-2.8369-0.81602s-1.9604-0.32064-2.8744-0.69578c-1.4421-0.59195-2.6439-1.748-3.2913-3.1661s-0.73365-3.0834-0.23623-4.5608c-0.36489 0.05366-0.74791-0.02603-1.0611-0.22076-0.06916-0.043-0.13608-0.0919-0.21328-0.11781-0.07172-0.02407-0.14892-0.02702-0.22442-0.02227-0.0755 0.0047-0.15037 0.01692-0.22584 0.02227-0.25553 0.01812-0.51006-0.04236-0.7549-0.11773-0.24483-0.07537-0.486-0.16635-0.73805-0.21214-0.44411-0.08069-0.89973-0.0178-1.3508 0-0.56229 0.02219-1.1327-0.02561-1.6825 0.09425-0.41288 0.09001-0.80979 0.27375-1.2323 0.28275-0.05528 0.0012-0.11059-6.77e-4 -0.16588 0-0.33547 0.0041-0.66407 0.10151-0.9716 0.23562-0.55588 0.24242-1.0575 0.60836-1.458 1.0637z" style="paint-order:normal"/></g><path transform="translate(-6.3832,-8.9028)" d="m75.758 104.65c-1.6887-0.78456-3.102-2.1479-3.9468-3.8073s-1.1157-3.6043-0.75655-5.4315c0.34602-1.7603 1.2862-3.4155 2.6876-4.5354 1.7966-1.4357 4.2426-1.9105 6.5189-1.5831s4.3951 1.3959 6.2474 2.7589c1.3692 1.0076 2.6141 2.18 4.0172 3.1398s3.0178 1.7136 4.7177 1.7316c1.5361 0.01624 3.0232-0.57048 4.3449-1.3533 1.3217-0.78286 2.5141-1.7631 3.7783-2.6357s2.6327-1.6501 4.139-1.9517c0.75313-0.15075 1.5348-0.17874 2.2899-0.03805 0.75507 0.14068 1.4829 0.45348 2.0777 0.93939 0.64234 0.52472 1.114 1.2359 1.4479 1.9952 0.33391 0.75924 0.53705 1.569 0.70979 2.3802 0.34549 1.6225 0.59892 3.3279 1.5379 4.6954 0.66426 0.96747 1.641 1.7002 2.7213 2.1586 1.0804 0.45834 2.2616 0.65119 3.4351 0.66003 2.347 0.0177 4.6314-0.68005 6.9012-1.2774 2.2698-0.5973 4.6384-1.1022 6.9498-0.69456 1.1557 0.20384 2.2809 0.64168 3.2139 1.3536 0.93296 0.71191 1.6651 1.7072 1.9754 2.839 0.3421 1.2479 0.16454 2.5696 0.16797 3.8635 3e-3 1.2897 0.18907 2.5877 0 3.8635-0.20469 1.3812-0.85046 2.6808-1.759 3.741-0.90852 1.0602-2.0725 1.8868-3.3354 2.4824-2.5257 1.1911-5.3838 1.4575-8.1759 1.5036-1.7501 0.0289-3.5238-0.0249-5.2073-0.50393-3.2307-0.91924-5.8061-3.2906-8.3623-5.4696-1.2781-1.0895-2.5892-2.1533-4.0408-2.9979-1.4516-0.84459-3.0573-1.4674-4.7306-1.6112-2.1855-0.18788-4.3536 0.44292-6.4286 1.1544s-4.1518 1.5181-6.3377 1.7012c-0.89832 0.0753-1.8111 0.0425-2.6876-0.16798-1.4812-0.35573-2.8002-1.2029-3.9768-2.1705-1.1766-0.96758-2.24-2.0664-3.4142-3.0368-1.9819-1.638-4.2744-2.8989-6.7191-3.6955z" fill="none" stroke="#5f8dd3" stroke-width="1.096" style="paint-order:normal"/></g><g transform="translate(-3.175 -25.929)"><g stroke-width=".4"><path d="m107.98 57.765a8.9441 8.9441 0 0 1-8.9441 8.9441 8.9441 8.9441 0 0 1-8.9441-8.9441 8.9441 8.9441 0 0 1 8.9441-8.9441 8.9441 8.9441 0 0 1 8.9441 8.9441z" fill="url(#linearGradient65)" fill-opacity=".47035" stroke="#050"/><path d="m139.99 42.239a14.39 14.39 0 0 1-14.39 14.39 14.39 14.39 0 0 1-14.39-14.39 14.39 14.39 0 0 1 14.39-14.39 14.39 14.39 0 0 1 14.39 14.39z" fill="url(#linearGradient67)" stroke="#a80"/><path d="m169.58 60.765a15.359 15.359 0 0 1-15.359 15.359 15.359 15.359 0 0 1-15.359-15.359 15.359 15.359 0 0 1 15.359-15.359 15.359 15.359 0 0 1 15.359 15.359z" fill="url(#linearGradient73)" stroke="#ff7f2a"/></g><path transform="matrix(.84831 .52949 -.56342 .82617 0 0)" d="m109.18-3.6623a1.2944 2.1441 0 0 1-1.2944 2.1441 1.2944 2.1441 0 0 1-1.2944-2.1441 1.2944 2.1441 0 0 1 1.2944-2.1441 1.2944 2.1441 0 0 1 1.2944 2.1441z" fill="#d5ffe6" fill-opacity=".6"/><path transform="rotate(40.172)" d="m115.82-48.383a2.6728 4.1206 0 0 1-2.6728 4.1206 2.6728 4.1206 0 0 1-2.6728-4.1206 2.6728 4.1206 0 0 1 2.6728-4.1206 2.6728 4.1206 0 0 1 2.6728 4.1206z" fill="#fff6d5" stroke="#fff6d5" stroke-width=".33673"/><path transform="rotate(29.457)" d="m155.91-23.101a1.9844 5.9531 0 0 1-1.9844 5.9531 1.9844 5.9531 0 0 1-1.9844-5.9531 1.9844 5.9531 0 0 1 1.9844-5.9531 1.9844 5.9531 0 0 1 1.9844 5.9531z" fill="#ffe6d5"/><g stroke-width="1.5118"><g transform="matrix(.26458 0 0 .26458 94.953 62.019)" style="white-space:pre" aria-label="K +"><path d="m1.9531 0v-19.089h2.5261v9.4663l9.4793-9.4663h3.4245l-8.0079 7.7345 8.3595 11.354h-3.3334l-6.797-9.6616-3.125 3.0469v6.6147z"/><path d="m28.723-10.848v-3.9258h-3.8965v-1.6406h3.8965v-3.8965h1.6602v3.8965h3.8965v1.6406h-3.8965v3.9258z" baseline-shift="super"/></g><g transform="matrix(.26458 0 0 .26458 119.03 49.305)" style="white-space:pre" aria-label="Ca 2+"><path d="m15.677-6.6928 2.5261 0.63803q-0.79428 3.112-2.8646 4.7527-2.0573 1.6276-5.0391 1.6276-3.086 0-5.0261-1.25-1.9271-1.263-2.9427-3.6459-1.0026-2.3828-1.0026-5.1173 0-2.9818 1.1328-5.1954 1.1458-2.2266 3.2422-3.3724 2.1094-1.1589 4.6355-1.1589 2.8646 0 4.8178 1.4584t2.7214 4.1016l-2.487 0.58594q-0.66407-2.0834-1.9271-3.0339-1.263-0.95053-3.1771-0.95053-2.2005 0-3.6849 1.0547-1.4714 1.0547-2.0703 2.8386-0.59897 1.7709-0.59897 3.6589 0 2.4349 0.70313 4.2579 0.71615 1.8099 2.2136 2.7084 1.4974 0.89845 3.2422 0.89845 2.1224 0 3.5938-1.224t1.9922-3.6329zm14.362 4.987q-1.3021 1.1068-2.5131 1.5625-1.1979 0.45573-2.5782 0.45573-2.2787 0-3.5026-1.1068-1.224-1.1198-1.224-2.8516 0-1.0156 0.45573-1.849 0.46876-0.84636 1.211-1.3542 0.75522-0.50782 1.6927-0.76824 0.69011-0.18229 2.0834-0.35157 2.8386-0.33855 4.1797-0.8073 0.01302-0.48178 0.01302-0.61199 0-1.4323-0.66407-2.0183-0.89845-0.79428-2.6693-0.79428-1.6537 0-2.4479 0.58594-0.78126 0.57292-1.1589 2.0443l-2.2917-0.3125q0.3125-1.4714 1.0287-2.3698 0.71616-0.91147 2.0703-1.3932 1.3542-0.4948 3.1381-0.4948 1.7709 0 2.8776 0.41667 1.1068 0.41667 1.6276 1.0547 0.52084 0.62501 0.72918 1.5886 0.11719 0.59897 0.11719 2.1615v3.125q0 3.2683 0.14323 4.1407 0.15625 0.85939 0.59897 1.6537h-2.4479q-0.36459-0.72918-0.46876-1.7058zm-0.19532-5.2344q-1.2761 0.52084-3.8282 0.88543-1.4453 0.20834-2.0443 0.46876-0.59896 0.26042-0.92449 0.76824-0.32552 0.4948-0.32552 1.1068 0 0.93751 0.70313 1.5625 0.71615 0.62501 2.0834 0.62501 1.3542 0 2.4089-0.58594 1.0547-0.59897 1.5495-1.6276 0.37761-0.79428 0.37761-2.3438z"/><path d="m50.084-10.223v1.6895h-9.4629q-0.01953-0.63477 0.20508-1.2207 0.36133-0.9668 1.1523-1.9043 0.80078-0.9375 2.3047-2.168 2.334-1.9141 3.1543-3.0273 0.82031-1.123 0.82031-2.1191 0-1.0449-0.75195-1.7578-0.74219-0.72266-1.9434-0.72266-1.2695 0-2.0312 0.76172-0.76172 0.76172-0.77148 2.1094l-1.8066-0.18555q0.18555-2.0215 1.3965-3.0762 1.2109-1.0645 3.252-1.0645 2.0605 0 3.2617 1.1426t1.2012 2.832q0 0.85938-0.35156 1.6895-0.35156 0.83008-1.1719 1.748-0.81055 0.91797-2.7051 2.5195-1.582 1.3281-2.0312 1.8066-0.44922 0.46875-0.74219 0.94727zm6.0645-0.625v-3.9258h-3.8965v-1.6406h3.8965v-3.8965h1.6602v3.8965h3.8965v1.6406h-3.8965v3.9258z" baseline-shift="super"/></g><g transform="matrix(.26458 0 0 .26458 147.6 68.366)" style="white-space:pre" aria-label="Mg 2+"><path d="m1.9792 0v-19.089h3.8021l4.5183 13.516q0.62501 1.888 0.91147 2.8256 0.32552-1.0417 1.0156-3.0599l4.5704-13.281h3.3985v19.089h-2.4349v-15.977l-5.5469 15.977h-2.2787l-5.5209-16.25v16.25zm21.563 1.1458 2.2787 0.33855q0.14323 1.0547 0.79428 1.5365 0.87241 0.65105 2.3828 0.65105 1.6276 0 2.5131-0.65105 0.88543-0.65105 1.1979-1.8229 0.18229-0.71615 0.16927-3.0078-1.5365 1.8099-3.8282 1.8099-2.8516 0-4.4141-2.0573t-1.5625-4.935q0-1.9792 0.71616-3.6459 0.71616-1.6797 2.0703-2.5912 1.3672-0.91147 3.2032-0.91147 2.4479 0 4.0365 1.9792v-1.6667h2.1615v11.953q0 3.2292-0.66407 4.5704-0.65105 1.3542-2.0834 2.1354-1.4193 0.78126-3.5026 0.78126-2.474 0-3.9974-1.1198-1.5235-1.1068-1.4714-3.3464zm1.9401-8.3074q0 2.7214 1.0807 3.9714t2.7084 1.25q1.6146 0 2.7084-1.237 1.0938-1.25 1.0938-3.9063 0-2.5391-1.1328-3.8282-1.1198-1.2891-2.7084-1.2891-1.5625 0-2.6563 1.2761-1.0938 1.263-1.0938 3.7631z"/><path d="m53.04-10.223v1.6895h-9.4629q-0.01953-0.63477 0.20508-1.2207 0.36133-0.9668 1.1523-1.9043 0.80078-0.9375 2.3047-2.168 2.334-1.9141 3.1543-3.0273 0.82031-1.123 0.82031-2.1191 0-1.0449-0.75195-1.7578-0.74219-0.72266-1.9434-0.72266-1.2695 0-2.0312 0.76172-0.76172 0.76172-0.77148 2.1094l-1.8066-0.18555q0.18555-2.0215 1.3965-3.0762 1.2109-1.0645 3.252-1.0645 2.0605 0 3.2617 1.1426t1.2012 2.832q0 0.85938-0.35156 1.6895-0.35156 0.83008-1.1719 1.748-0.81055 0.91797-2.7051 2.5195-1.582 1.3281-2.0312 1.8066-0.44922 0.46875-0.74219 0.94727zm6.0645-0.625v-3.9258h-3.8965v-1.6406h3.8965v-3.8965h1.6602v3.8965h3.8965v1.6406h-3.8965v3.9258z" baseline-shift="super"/></g></g></g><g transform="translate(-3.175 -25.929)"><path d="m199.47 45.089c2.0226-3.0344 5.2173-5.2654 8.7625-6.1193 1.2219-0.29428 2.479-0.43038 3.7356-0.45313 0.51284-0.0093 1.051 0.0065 1.4975 0.25908 0.24605 0.13918 0.44887 0.34242 0.64245 0.5484 0.1936 0.20599 0.38323 0.41903 0.61215 0.58488 0.51636 0.3741 1.1799 0.47331 1.7487 0.76156 0.28438 0.14412 0.5501 0.34188 0.72032 0.61143 0.0851 0.13478 0.14506 0.28636 0.16725 0.44421 0.0222 0.15786 6e-3 0.32197-0.0542 0.46961-0.0625 0.15363-0.17001 0.28514-0.28905 0.40066-0.11905 0.11551-0.25071 0.21718-0.3741 0.32804-0.12338 0.11087-0.23985 0.23284-0.31962 0.37828-0.0798 0.14543-0.12048 0.31731-0.0858 0.47952 0.0225 0.10523 0.0752 0.20159 0.13457 0.29135 0.0594 0.08976 0.12606 0.17471 0.1811 0.26718 0.11289 0.18967 0.17421 0.4085 0.18519 0.62895 0.011 0.22045-0.0276 0.44234-0.10411 0.64938-0.15296 0.41411-0.45293 0.76181-0.80158 1.0326-0.6307 0.48986-1.4111 0.74166-2.1836 0.9443-0.77244 0.20264-1.5632 0.3683-2.2807 0.71896-0.76883 0.37577-1.4254 0.95195-1.9907 1.5944-0.56533 0.64243-1.0462 1.3535-1.5346 2.0561-1.1008 1.5836-2.268 3.1755-2.809 5.0266-0.26192 0.89626-0.37239 1.8409-0.74885 2.6955-0.33151 0.75248-0.86256 1.4181-1.0848 2.2098-0.0554 0.19728-0.0912 0.40146-0.17462 0.58862-0.0417 0.09358-0.0955 0.18252-0.1656 0.25722-0.0701 0.07471-0.15714 0.13486-0.25475 0.16598-0.11448 0.0365-0.23753 0.03199-0.35747 0.02487-0.11996-0.0071-0.24201-0.01634-0.3589 0.01152-0.10908 0.02599-0.20889 0.08353-0.29495 0.15542-0.0861 0.07189-0.15918 0.15796-0.22727 0.24704-0.1362 0.17816-0.25751 0.37372-0.43702 0.50813-0.13762 0.10306-0.30426 0.16473-0.47484 0.18622-0.17059 0.02149-0.34498 0.0036-0.51072-0.04206-0.33147-0.0915-0.62301-0.29022-0.88854-0.50877-0.26548-0.21854-0.51238-0.4604-0.79303-0.65912-0.28064-0.1987-0.60362-0.35508-0.94704-0.37272-0.30274-0.01555-0.6008 0.07728-0.88063 0.19382-0.27984 0.11654-0.5501 0.25811-0.83947 0.34845-0.40322 0.12588-0.83873 0.14808-1.252 0.06081-0.41329-0.0873-0.80335-0.28418-1.1169-0.5672-0.31353-0.28302-0.54963-0.65171-0.67242-1.0559-0.12283-0.40416-0.1317-0.84272-0.0223-1.2507 0.13975-0.52226 0.46122-0.97311 0.72971-1.4423 0.13425-0.23462 0.25693-0.47763 0.3368-0.73588 0.0799-0.25825 0.11591-0.53334 0.0749-0.80051-0.0429-0.27934-0.16858-0.54717-0.16186-0.82969 5e-3 -0.21808 0.09-0.42757 0.20159-0.615 0.1116-0.18744 0.25018-0.35713 0.37623-0.53516 0.12606-0.17804 0.24129-0.36815 0.29758-0.57891 0.0281-0.10539 0.0411-0.21528 0.0325-0.32401-9e-3 -0.10873-0.0393-0.21628-0.0943-0.31048-0.0548-0.09392-0.13204-0.17235-0.20752-0.25064-0.0755-0.07827-0.151-0.15884-0.20123-0.25529-0.0913-0.17521-0.089-0.38882-0.0265-0.57623 0.0625-0.18742 0.18023-0.35177 0.31195-0.499 0.13171-0.14724 0.27861-0.28019 0.41239-0.42555s0.25587-0.30585 0.32623-0.49044c0.07-0.18376 0.086-0.38421 0.0776-0.58071-8e-3 -0.19647-0.0403-0.39106-0.0629-0.58641s-0.0359-0.39364-7e-3 -0.58818c0.0288-0.19453 0.10209-0.38668 0.23535-0.53142 0.13979-0.15213 0.33328-0.24146 0.52151-0.32662 0.18823-0.08517 0.38191-0.17376 0.52272-0.32495 0.14713-0.15799 0.22272-0.37151 0.25307-0.58528 0.0303-0.21375 0.0191-0.43087 0.0142-0.64672-5e-3 -0.21585-3e-3 -0.43462 0.0518-0.6434 0.055-0.20876 0.16917-0.4091 0.34888-0.52876 0.16418-0.10929 0.36811-0.14315 0.5383-0.24282 0.13688-0.08016 0.24617-0.19948 0.34679-0.3221 0.10061-0.12263 0.19552-0.25117 0.31294-0.35782 0.18293-0.16612 0.41828-0.27362 0.66361-0.3031 0.24532-0.02949 0.49945 0.01918 0.71652 0.13722z" fill="#d35f5f" stroke="#c83737" stroke-width=".22862" style="paint-order:normal"/><g transform="translate(0,-47.096)" fill="#de8787"><path transform="translate(-39.158)" d="m234.98 97.567c0.14779-0.08245 0.3278-0.1052 0.49146-0.06214 0.16366 0.04307 0.30915 0.15148 0.39722 0.296 0.0997 0.16366 0.12396 0.36404 0.10769 0.555-0.0163 0.19096-0.0702 0.37636-0.11697 0.56222-0.0468 0.18585-0.087 0.37637-0.0751 0.56765 6e-3 0.09564 0.0252 0.19089 0.0619 0.2794s0.0913 0.1702 0.16279 0.23402c0.0881 0.07868 0.19913 0.12807 0.31311 0.15909 0.11399 0.031 0.23185 0.0447 0.34902 0.0597 0.11718 0.015 0.23489 0.0316 0.34726 0.068 0.11236 0.0365 0.22008 0.0941 0.30023 0.1809 0.11234 0.12165 0.16138 0.29084 0.16943 0.45623 8e-3 0.16539-0.0211 0.33001-0.0464 0.49365s-0.0469 0.33033-0.024 0.49432c0.0115 0.082 0.0343 0.16279 0.0718 0.23656 0.0376 0.0738 0.0903 0.14042 0.15647 0.19013 0.11319 0.085 0.26059 0.11609 0.40183 0.10665 0.14123-9e-3 0.27748-0.0566 0.40617-0.11556 0.1287-0.059 0.25155-0.12992 0.37935-0.19078 0.1278-0.0609 0.26223-0.11198 0.4029-0.12772 0.27014-0.0302 0.53521 0.0711 0.79285 0.1578 0.12882 0.0433 0.25944 0.0836 0.39404 0.10243 0.1346 0.0189 0.27413 0.0157 0.40337-0.0264 0.19065-0.0621 0.3471-0.2057 0.45651-0.37372 0.1094-0.16802 0.17601-0.36008 0.23086-0.55294 0.0549-0.19285 0.0991-0.38912 0.16895-0.57707 0.0698-0.18796 0.16735-0.36965 0.31298-0.50747 0.11807-0.11174 0.26354-0.1907 0.4135-0.25344 0.14997-0.06274 0.30575-0.1104 0.45788-0.16768 0.15214-0.05727 0.30211-0.12503 0.4316-0.22331s0.23814-0.2296 0.28727-0.38456c0.0323-0.10196 0.0381-0.21138 0.0238-0.31739-0.0143-0.106-0.0481-0.20877-0.0929-0.30587-0.0897-0.1942-0.22211-0.36484-0.344-0.54063s-0.2361-0.36294-0.28147-0.57198c-0.0227-0.10452-0.0275-0.21364-7e-3 -0.31857 0.0207-0.10493 0.0676-0.20555 0.14011-0.28418 0.10838-0.11752 0.26665-0.17891 0.42496-0.20118s0.31916-0.0092 0.47872 7.98e-4c0.15955 0.01 0.32156 0.01658 0.47759-0.01821 0.078-0.0174 0.15408-0.04522 0.22257-0.08644 0.0685-0.04121 0.12931-0.09608 0.1735-0.16269 0.0709-0.10686 0.0959-0.23917 0.0915-0.36733-4e-3 -0.12816-0.0365-0.25367-0.072-0.37692-0.0354-0.12325-0.0745-0.24603-0.0936-0.37284s-0.0174-0.25943 0.0274-0.37962c0.0619-0.16641 0.20456-0.29668 0.37002-0.3611s0.35133-0.0665 0.52388-0.0246c0.34509 0.08379 0.62497 0.32926 0.88344 0.57279 0.0888 0.08364 0.17757 0.16863 0.28063 0.23386 0.12527 0.07929 0.27026 0.12753 0.41818 0.13752 0.14792 0.01 0.29847-0.01846 0.43187-0.08314 0.13341-0.06468 0.24925-0.16559 0.33031-0.28973 0.0811-0.12414 0.12694-0.27122 0.12926-0.41946 3e-3 -0.20699-0.0784-0.41068-0.20823-0.57194-0.12982-0.16126-0.30542-0.28191-0.49485-0.36541-0.37886-0.167-0.80288-0.18807-1.2146-0.23196-0.20266-0.02161-0.41021-0.04902-0.60803 0-0.13471 0.03338-0.25839 0.10084-0.39019 0.14432-0.0659 0.02174-0.13429 0.03752-0.20366 0.03933-0.0694 0.0018-0.13996-0.01086-0.20128-0.04333-0.0739-0.03912-0.13114-0.10547-0.1686-0.1802-0.0375-0.07473-0.0562-0.15765-0.0653-0.24075-0.0209-0.19168 9e-3 -0.3883 0.0826-0.56639 0.0739-0.17809 0.19163-0.33744 0.33831-0.4626 0.14267-0.12174 0.31589-0.21227 0.50182-0.23686s0.38453 0.02152 0.52716 0.1433c0.0675 0.0576 0.12064 0.12966 0.17714 0.19804s0.1185 0.13492 0.19704 0.17614c0.0919 0.04822 0.20101 0.0579 0.30307 0.03916s0.19766-0.06444 0.28444-0.12133c0.17356-0.11379 0.31454-0.27199 0.48825-0.38555 0.19007-0.12426 0.41531-0.19102 0.64208-0.20298 0.22677-0.01195 0.45489 0.02979 0.66754 0.10944 0.46149 0.17285 0.83633 0.51291 1.2303 0.80894 0.19699 0.14801 0.40244 0.28713 0.62674 0.38912 0.22431 0.10199 0.46914 0.16606 0.71542 0.15833 0.25538-8e-3 0.50723-0.09449 0.71592-0.2419 0.2087-0.14741 0.37384-0.35484 0.47435-0.58974 0.10051-0.23491 0.13653-0.4965 0.10717-0.75031-0.0294-0.25381-0.12364-0.49938-0.26845-0.70989-0.22394-0.32555-0.57046-0.56456-0.9543-0.65834-0.38385-0.09379-0.8015-0.04153-1.1504 0.14385-0.1031 0.05477-0.20355 0.12182-0.31879 0.14049-0.0576 0.0093-0.1183 0.0057-0.17183-0.01759-0.0535-0.02327-0.0991-0.06748-0.11741-0.12291-0.0148-0.04501-0.0113-0.09428 0-0.14032 0.0185-0.07555 0.057-0.14555 0.10753-0.20467 0.0505-0.05911 0.11287-0.10757 0.18041-0.14613 0.13508-0.07711 0.28886-0.11435 0.44136-0.14498 0.15251-0.03062 0.30728-0.05588 0.45232-0.11206 0.14504-0.05619 0.28218-0.14725 0.36186-0.28084 0.0814-0.13652 0.0945-0.31035 0.0398-0.4596s-0.17474-0.27206-0.32048-0.33553c-0.15984-0.06961-0.34156-0.0689-0.51449-0.04677-0.54008 0.06912-1.0342 0.33072-1.5086 0.59801-0.47435 0.2673-0.95281 0.54889-1.4848 0.66483-0.72373 0.15772-1.4737-0.0051-2.2002-0.14934-0.72655-0.14421-1.4923-0.26793-2.1964-0.03775-0.42091 0.13761-0.81005 0.4124-1.0152 0.80484-0.10258 0.19622-0.15697 0.41884-0.14627 0.64s0.0878 0.44014 0.22603 0.61313c0.0964 0.12068 0.21954 0.21685 0.32741 0.32741 0.17884 0.1833 0.31807 0.41455 0.35058 0.66858 0.0162 0.12701 5e-3 0.25812-0.0377 0.37875-0.0429 0.12063-0.11837 0.23037-0.21938 0.30907-0.14671 0.1143-0.3394 0.15772-0.52528 0.15162s-0.36714-0.05801-0.54317-0.118c-0.17604-0.05998-0.34977-0.12859-0.53106-0.17007-0.1813-0.04148-0.37316-0.05485-0.55201-0.0039-0.19728 0.05624-0.37135 0.19308-0.46772 0.37418-0.0731 0.1374-0.10117 0.29639-0.0925 0.4518 9e-3 0.1554 0.0529 0.30746 0.11705 0.44928 0.12829 0.28362 0.33274 0.52438 0.51767 0.77478s0.35647 0.52442 0.40146 0.83244c0.0225 0.15401 0.0117 0.31438-0.0437 0.45983s-0.15705 0.27505-0.29194 0.35271c-0.13848 0.07972-0.30663 0.10154-0.46387 0.07309-0.15723-0.02845-0.30361-0.10504-0.42611-0.20762-0.24502-0.20517-0.39068-0.50348-0.51128-0.79943-0.12059-0.29595-0.22575-0.60361-0.41479-0.86128-0.0945-0.12883-0.20999-0.24392-0.34704-0.32608s-0.2965-0.13029-0.45615-0.12375c-0.19759 0.0081-0.38583 0.0995-0.53476 0.22962-0.14892 0.13012-0.26154 0.2971-0.35391 0.47197-0.11324 0.21437-0.19886 0.44479-0.23645 0.6843-0.0376 0.2395-0.0261 0.48848 0.0494 0.71887 0.0201 0.06133 0.0449 0.12258 0.0468 0.18709 2e-3 0.07492-0.0279 0.14925-0.0774 0.20551s-0.11746 0.09489-0.18981 0.11445c-0.0724 0.01955-0.14897 0.02063-0.22302 0.0091-0.074-0.01156-0.14574-0.0355-0.21455-0.0652-0.13763-0.0594-0.26436-0.14174-0.4016-0.20203s-0.2917-0.09811-0.43713-0.0618c-0.11711 0.02924-0.22121 0.10734-0.28204 0.21161-0.0608 0.10426-0.0776 0.23332-0.0454 0.34966z" style="paint-order:normal"/><path transform="translate(-39.158)" d="m233.63 106.87c0.1556 2e-3 0.31146-0.0477 0.43695-0.13975 0.12549-0.092 0.21988-0.2257 0.26463-0.37474 0.0526-0.17516 0.0367-0.36479-0.01-0.54162s-0.1229-0.34415-0.19208-0.51345c-0.0692-0.1693-0.13212-0.34368-0.14999-0.52569-0.0179-0.18201 0.0131-0.3743 0.11815-0.52399 0.0709-0.10107 0.17399-0.17914 0.29032-0.22053 0.11634-0.0414 0.2454-0.0459 0.36449-0.0133 0.13635 0.0373 0.25662 0.12148 0.35388 0.22407 0.0973 0.10258 0.17319 0.22339 0.24219 0.34677 0.13801 0.24677 0.2582 0.5163 0.4797 0.69201 0.11841 0.0939 0.25971 0.1553 0.40442 0.19893 0.1447 0.0436 0.29382 0.0704 0.44165 0.10187 0.14784 0.0314 0.29562 0.0679 0.43357 0.12968 0.13796 0.0617 0.2666 0.15027 0.35738 0.2711 0.0857 0.11403 0.13476 0.25394 0.14617 0.39611 0.0114 0.14217-0.0141 0.28633-0.0671 0.41876-0.10593 0.26485-0.31709 0.47681-0.55562 0.63325-0.47706 0.31286-1.0656 0.42543-1.5346 0.75017-0.30742 0.21284-0.54903 0.50706-0.83982 0.74211-0.14539 0.11753-0.30446 0.2208-0.47992 0.28532-0.17547 0.0645-0.36863 0.0888-0.55115 0.0483-0.15799-0.035-0.30413-0.11807-0.41956-0.23149-0.11543-0.11341-0.20042-0.25649-0.25087-0.41025-0.10089-0.30752-0.0618-0.64963 0.0624-0.94851 0.13367-0.32172 0.36469-0.60225 0.65481-0.79513z" style="paint-order:normal"/><path transform="translate(-39.158)" d="m239.01 108.28c0.38509-0.24743 0.69171-0.61508 0.86599-1.0383s0.21543-0.9002 0.11623-1.347c-0.031-0.1398-0.0753-0.27635-0.1074-0.41591s-0.0519-0.28405-0.0329-0.42599c0.0233-0.17442 0.10625-0.33973 0.22942-0.46541 0.12316-0.12568 0.28555-0.21157 0.45802-0.2465 0.17247-0.0349 0.35435-0.0193 0.5197 0.0409s0.31394 0.16441 0.42989 0.29678c0.1718 0.19613 0.26888 0.44749 0.3274 0.70158 0.0807 0.35051 0.0933 0.72028 5e-3 1.0689-0.0885 0.34863-0.28208 0.67485-0.56613 0.89551-0.0837 0.065-0.17438 0.12054-0.25812 0.18546-0.0837 0.0649-0.16169 0.14098-0.2096 0.23549-0.0433 0.0853-0.0601 0.18237-0.0593 0.27804 8.2e-4 0.0957 0.0187 0.19044 0.0418 0.28329 0.0461 0.18571 0.11389 0.36987 0.11102 0.5612-3e-3 0.17674-0.0679 0.35125-0.17854 0.4891-0.11064 0.13786-0.26553 0.2388-0.43514 0.28856-0.16961 0.0498-0.35317 0.0487-0.52345 1e-3 -0.17028-0.0474-0.32702-0.14063-0.45313-0.26448-0.14477-0.14217-0.2493-0.32487-0.29852-0.52172-0.0492-0.19684-0.0429-0.40724 0.0179-0.60081z" style="paint-order:normal"/></g></g><g transform="translate(-3.175 -25.929)" stroke-width="1.5118"><path transform="matrix(.26458 0 0 .26458 191.36 93.968)" d="m14.154-7.0183 3.737 1.1849q-0.85939 3.125-2.8646 4.6485-1.9922 1.5104-5.0652 1.5104-3.8021 0-6.2501-2.5912-2.4479-2.6042-2.4479-7.1095 0-4.7657 2.461-7.3959 2.461-2.6433 6.4714-2.6433 3.5026 0 5.6902 2.0703 1.3021 1.224 1.9532 3.5157l-3.8152 0.91147q-0.33855-1.4844-1.4193-2.3438-1.0677-0.85939-2.6042-0.85939-2.1224 0-3.4506 1.5235-1.3151 1.5235-1.3151 4.935 0 3.6198 1.3021 5.1563t3.3855 1.5365q1.5365 0 2.6433-0.97657t1.5886-3.073zm6.172-0.091147q0-1.8229 0.89845-3.5287t2.5391-2.6042q1.6537-0.89845 3.6849-0.89845 3.1381 0 5.1433 2.0443 2.0052 2.0313 2.0052 5.1433 0 3.1381-2.0313 5.2084-2.0183 2.0573-5.0912 2.0573-1.9011 0-3.6329-0.85939-1.7188-0.85939-2.6172-2.5131-0.89845-1.6667-0.89845-4.0495zm3.75 0.19531q0 2.0573 0.97658 3.1511t2.4089 1.0938q1.4323 0 2.3959-1.0938 0.97657-1.0938 0.97657-3.1771 0-2.0313-0.97657-3.125-0.96355-1.0938-2.3959-1.0938-1.4323 0-2.4089 1.0938-0.97658 1.0938-0.97658 3.1511zm11.784-6.9141h2.0313v-1.0417q0-1.7448 0.36459-2.6042 0.37761-0.85938 1.3672-1.3932 1.0026-0.54688 2.5261-0.54688 1.5625 0 3.0599 0.46876l-0.4948 2.5521q-0.87241-0.20834-1.6797-0.20834-0.79428 0-1.1458 0.37761-0.33855 0.36459-0.33855 1.4193v0.97657h2.7344v2.8776h-2.7344v10.951h-3.6589v-10.951h-2.0313zm13.216 4.2188-3.3204-0.59897q0.5599-2.0052 1.9271-2.9688t4.0626-0.96355q2.4479 0 3.6459 0.58594 1.1979 0.57292 1.6797 1.4714 0.4948 0.88543 0.4948 3.2683l-0.03906 4.2709q0 1.8229 0.16927 2.6953 0.18229 0.85939 0.66407 1.849h-3.6198q-0.14323-0.36459-0.35157-1.0807-0.09115-0.32552-0.13021-0.42969-0.93751 0.91147-2.0052 1.3672-1.0677 0.45573-2.2787 0.45573-2.1354 0-3.3724-1.1589-1.224-1.1589-1.224-2.9297 0-1.1719 0.5599-2.0834 0.5599-0.92449 1.5625-1.4063 1.0156-0.4948 2.9167-0.85939 2.5651-0.48178 3.5547-0.89845v-0.36459q0-1.0547-0.52084-1.4974-0.52084-0.45574-1.9662-0.45574-0.97658 0-1.5235 0.39063-0.54688 0.37761-0.88543 1.3412zm4.8959 2.9688q-0.70313 0.23438-2.2266 0.5599-1.5235 0.32552-1.9922 0.63803-0.71615 0.50782-0.71615 1.2891 0 0.76824 0.57292 1.3281 0.57292 0.5599 1.4584 0.5599 0.9896 0 1.888-0.65105 0.66407-0.4948 0.87241-1.211 0.14323-0.46876 0.14323-1.7839zm19.258-3.099-3.6068 0.65105q-0.18229-1.0807-0.83334-1.6276-0.63803-0.54688-1.6667-0.54688-1.3672 0-2.1875 0.95053-0.8073 0.93751-0.8073 3.1511 0 2.461 0.82032 3.4766 0.83334 1.0156 2.2266 1.0156 1.0417 0 1.7058-0.58594 0.66407-0.59897 0.93751-2.0443l3.5938 0.61199q-0.5599 2.474-2.1485 3.737t-4.2579 1.263q-3.0339 0-4.8438-1.9141-1.7969-1.9141-1.7969-5.2995 0-3.4245 1.8099-5.3256 1.8099-1.9141 4.8959-1.9141 2.5261 0 4.0105 1.0938 1.4974 1.0807 2.1485 3.3073zm9.1147-4.0886v2.9167h-2.5v5.573q0 1.6927 0.0651 1.9792 0.07813 0.27344 0.32552 0.45573 0.26042 0.18229 0.62501 0.18229 0.50782 0 1.4714-0.35157l0.3125 2.8386q-1.2761 0.54688-2.8907 0.54688-0.9896 0-1.7839-0.32552-0.79428-0.33855-1.1719-0.85939-0.36459-0.53386-0.50782-1.4323-0.11719-0.63803-0.11719-2.5782v-6.0287h-1.6797v-2.9167h1.6797v-2.7474l3.6719-2.1354v4.8829zm1.6927 6.7188q0-1.8229 0.89845-3.5287t2.5391-2.6042q1.6537-0.89845 3.6849-0.89845 3.1381 0 5.1433 2.0443 2.0052 2.0313 2.0052 5.1433 0 3.1381-2.0313 5.2084-2.0183 2.0573-5.0912 2.0573-1.9011 0-3.6329-0.85939-1.7188-0.85939-2.6172-2.5131-0.89845-1.6667-0.89845-4.0495zm3.75 0.19531q0 2.0573 0.97658 3.1511t2.4089 1.0938q1.4323 0 2.3959-1.0938 0.97658-1.0938 0.97658-3.1771 0-2.0313-0.97658-3.125-0.96355-1.0938-2.3959-1.0938-1.4323 0-2.4089 1.0938-0.97658 1.0938-0.97658 3.1511zm16.888 6.9141h-3.6589v-13.828h3.3985v1.9662q0.87241-1.3932 1.5625-1.836 0.70313-0.44271 1.5886-0.44271 1.25 0 2.4089 0.69011l-1.1328 3.1901q-0.92449-0.59897-1.7188-0.59897-0.76824 0-1.3021 0.42969-0.53386 0.41667-0.84637 1.5235-0.29948 1.1068-0.29948 4.6355z" style="white-space:pre" aria-label="Cofactor"/><path transform="matrix(.26458 0 0 .26458 122.97 93.927)" d="m1.8229 0v-19.089h3.8542v19.089zm6.6537-7.1095q0-1.8229 0.89845-3.5287t2.5391-2.6042q1.6537-0.89845 3.6849-0.89845 3.1381 0 5.1433 2.0443 2.0052 2.0313 2.0052 5.1433 0 3.1381-2.0313 5.2084-2.0183 2.0573-5.0912 2.0573-1.9011 0-3.6329-0.85939-1.7188-0.85939-2.6172-2.5131-0.89845-1.6667-0.89845-4.0495zm3.75 0.19531q0 2.0573 0.97658 3.1511 0.97657 1.0938 2.4089 1.0938t2.3959-1.0938q0.97658-1.0938 0.97658-3.1771 0-2.0313-0.97658-3.125-0.96355-1.0938-2.3959-1.0938t-2.4089 1.0938q-0.97658 1.0938-0.97658 3.1511zm25.964 6.9141h-3.6589v-7.0574q0-2.2396-0.23438-2.8907-0.23438-0.66407-0.76824-1.0287-0.52084-0.36459-1.263-0.36459-0.95053 0-1.7058 0.52084-0.75522 0.52084-1.0417 1.3802-0.27344 0.85939-0.27344 3.1771v6.2631h-3.6589v-13.828h3.3985v2.0313q1.8099-2.3438 4.5573-2.3438 1.211 0 2.2136 0.44271 1.0026 0.42969 1.5104 1.1068 0.52084 0.67709 0.71616 1.5365 0.20834 0.85939 0.20834 2.461zm2.4219-3.9454 3.6719-0.5599q0.23438 1.0677 0.95053 1.6276 0.71615 0.54688 2.0052 0.54688 1.4193 0 2.1354-0.52084 0.48178-0.36459 0.48178-0.97657 0-0.41667-0.26042-0.69011-0.27344-0.26042-1.224-0.48178-4.4271-0.97657-5.612-1.7839-1.6406-1.1198-1.6406-3.112 0-1.7969 1.4193-3.0209t4.4011-1.224q2.8386 0 4.2188 0.92449t1.9011 2.7344l-3.4506 0.63803q-0.22136-0.8073-0.84636-1.237-0.61199-0.42969-1.7578-0.42969-1.4453 0-2.0703 0.40365-0.41667 0.28646-0.41667 0.7422 0 0.39063 0.36459 0.66407 0.4948 0.36459 3.4115 1.0287 2.9297 0.66407 4.0886 1.6276 1.1458 0.97657 1.1458 2.7214 0 1.9011-1.5886 3.2683t-4.7006 1.3672q-2.8256 0-4.4792-1.1458-1.6406-1.1458-2.1485-3.112z" style="white-space:pre" aria-label="Ions"/><path transform="matrix(.26458 0 0 .26458 25.463 93.968)" d="m0.96355-6.211 3.75-0.36459q0.33855 1.888 1.3672 2.7735 1.0417 0.88543 2.7995 0.88543 1.862 0 2.7995-0.78126 0.95053-0.79428 0.95053-1.849 0-0.67709-0.40365-1.1458-0.39063-0.48178-1.3802-0.83334-0.67709-0.23438-3.086-0.83334-3.099-0.76824-4.349-1.888-1.7578-1.5755-1.7578-3.8412 0-1.4584 0.82032-2.7214 0.83334-1.2761 2.3828-1.9401 1.5625-0.66407 3.7631-0.66407 3.5938 0 5.4037 1.5755 1.8229 1.5755 1.9141 4.2058l-3.8542 0.16927q-0.2474-1.4714-1.0677-2.1094-0.8073-0.65105-2.4349-0.65105-1.6797 0-2.6302 0.69011-0.61199 0.44271-0.61199 1.1849 0 0.67709 0.57292 1.1589 0.72918 0.61199 3.5417 1.2761 2.8125 0.66407 4.1537 1.3802 1.3542 0.70313 2.1094 1.9401 0.76824 1.224 0.76824 3.0339 0 1.6406-0.91147 3.073-0.91147 1.4323-2.5782 2.1354-1.6667 0.69011-4.1537 0.69011-3.6198 0-5.56-1.6667-1.9401-1.6797-2.3177-4.8829zm27.839 6.211v-2.0703q-0.75522 1.1068-1.9922 1.7448-1.224 0.63803-2.5912 0.63803-1.3932 0-2.5-0.61199t-1.6016-1.7188q-0.4948-1.1068-0.4948-3.0599v-8.7501h3.6589v6.3542q0 2.9167 0.19531 3.5808 0.20834 0.65105 0.7422 1.0417 0.53386 0.37761 1.3542 0.37761 0.93751 0 1.6797-0.50782 0.7422-0.52084 1.0156-1.2761 0.27344-0.76824 0.27344-3.737v-5.8334h3.6589v13.828zm7.0313 0v-19.089h3.6589v6.8751q1.6927-1.9271 4.0105-1.9271 2.5261 0 4.1797 1.836 1.6537 1.8229 1.6537 5.2475 0 3.5417-1.6927 5.4558-1.6797 1.9141-4.0886 1.9141-1.1849 0-2.3438-0.58594-1.1458-0.59897-1.9792-1.7578v2.0313zm3.6329-7.2136q0 2.1485 0.67709 3.1771 0.95053 1.4584 2.5261 1.4584 1.211 0 2.0573-1.0287 0.85938-1.0417 0.85938-3.2683 0-2.3698-0.85938-3.4115-0.85939-1.0547-2.2005-1.0547-1.3151 0-2.1875 1.0287-0.87241 1.0156-0.87241 3.099zm11.524 3.2683 3.6719-0.5599q0.23438 1.0677 0.95053 1.6276 0.71616 0.54688 2.0052 0.54688 1.4193 0 2.1354-0.52084 0.48178-0.36459 0.48178-0.97657 0-0.41667-0.26042-0.69011-0.27344-0.26042-1.224-0.48178-4.4271-0.97657-5.612-1.7839-1.6406-1.1198-1.6406-3.112 0-1.7969 1.4193-3.0209t4.4011-1.224q2.8386 0 4.2188 0.92449t1.9011 2.7344l-3.4506 0.63803q-0.22136-0.8073-0.84636-1.237-0.61199-0.42969-1.7578-0.42969-1.4453 0-2.0703 0.40365-0.41667 0.28646-0.41667 0.7422 0 0.39063 0.36459 0.66407 0.4948 0.36459 3.4115 1.0287 2.9297 0.66407 4.0886 1.6276 1.1458 0.97657 1.1458 2.7214 0 1.9011-1.5886 3.2683t-4.7006 1.3672q-2.8256 0-4.4792-1.1458-1.6406-1.1458-2.1485-3.112zm22.461-9.8829v2.9167h-2.5v5.573q0 1.6927 0.06511 1.9792 0.07813 0.27344 0.32552 0.45573 0.26042 0.18229 0.62501 0.18229 0.50782 0 1.4714-0.35157l0.3125 2.8386q-1.2761 0.54688-2.8907 0.54688-0.9896 0-1.7839-0.32552-0.79428-0.33855-1.1719-0.85939-0.36459-0.53386-0.50782-1.4323-0.11719-0.63803-0.11719-2.5782v-6.0287h-1.6797v-2.9167h1.6797v-2.7474l3.6719-2.1354v4.8829zm6.0417 13.828h-3.6589v-13.828h3.3985v1.9662q0.87241-1.3932 1.5625-1.836 0.70313-0.44271 1.5886-0.44271 1.25 0 2.4089 0.69011l-1.1328 3.1901q-0.92449-0.59897-1.7188-0.59897-0.76824 0-1.3021 0.42969-0.53386 0.41667-0.84636 1.5235-0.29948 1.1068-0.29948 4.6355zm9.6095-9.6095-3.3204-0.59897q0.5599-2.0052 1.9271-2.9688 1.3672-0.96355 4.0626-0.96355 2.4479 0 3.6459 0.58594 1.1979 0.57292 1.6797 1.4714 0.4948 0.88543 0.4948 3.2683l-0.03906 4.2709q0 1.8229 0.16927 2.6953 0.18229 0.85939 0.66407 1.849h-3.6198q-0.14323-0.36459-0.35157-1.0807-0.09115-0.32552-0.13021-0.42969-0.93751 0.91147-2.0052 1.3672-1.0677 0.45573-2.2787 0.45573-2.1354 0-3.3724-1.1589-1.224-1.1589-1.224-2.9297 0-1.1719 0.5599-2.0834 0.5599-0.92449 1.5625-1.4063 1.0156-0.4948 2.9167-0.85939 2.5651-0.48178 3.5547-0.89845v-0.36459q0-1.0547-0.52084-1.4974-0.52084-0.45574-1.9662-0.45574-0.97658 0-1.5235 0.39063-0.54688 0.37761-0.88543 1.3412zm4.8959 2.9688q-0.70313 0.23438-2.2266 0.5599-1.5235 0.32552-1.9922 0.63803-0.71616 0.50782-0.71616 1.2891 0 0.76824 0.57292 1.3281 0.57292 0.5599 1.4584 0.5599 0.9896 0 1.888-0.65105 0.66407-0.4948 0.87241-1.211 0.14323-0.46876 0.14323-1.7839zm13.542-7.1876v2.9167h-2.5v5.573q0 1.6927 0.0651 1.9792 0.0781 0.27344 0.32553 0.45573 0.26042 0.18229 0.625 0.18229 0.50782 0 1.4714-0.35157l0.3125 2.8386q-1.2761 0.54688-2.8907 0.54688-0.9896 0-1.7839-0.32552-0.79428-0.33855-1.1719-0.85939-0.36459-0.53386-0.50782-1.4323-0.11719-0.63803-0.11719-2.5782v-6.0287h-1.6797v-2.9167h1.6797v-2.7474l3.6719-2.1354v4.8829zm10.547 9.4272 3.6459 0.61199q-0.70313 2.0052-2.2266 3.0599-1.5104 1.0417-3.7891 1.0417-3.6068 0-5.3386-2.3568-1.3672-1.888-1.3672-4.7657 0-3.4375 1.7969-5.3777 1.7969-1.9532 4.5443-1.9532 3.086 0 4.8699 2.0443 1.7839 2.0313 1.7058 6.2371h-9.1668q0.0391 1.6276 0.88543 2.5391 0.84637 0.89845 2.1094 0.89845 0.85939 0 1.4453-0.46876 0.58595-0.46876 0.88543-1.5104zm0.20834-3.698q-0.0391-1.5886-0.82032-2.4089-0.78126-0.83334-1.9011-0.83334-1.1979 0-1.9792 0.87241-0.78126 0.87241-0.76824 2.3698z" style="white-space:pre" aria-label="Substrate"/></g><g transform="matrix(.49799 0 0 .49799 130.69 -18.589)"><path d="m288 98.16c-0.6864 1.3699-1.5317 2.6601-2.5135 3.8365-3.6577 4.3824-9.0998 7.0172-14.7 8.1223-5.6002 1.105-11.386 0.79315-17.05 0.0798-1.5545-0.1958-3.1082-0.422-4.6302-0.79375-2.5106-0.6132-4.9579-1.6252-7.5406-1.7198-1.2951-0.0474-2.5859 0.13873-3.8795 0.21647-1.2936 0.0777-2.6255 0.0409-3.8329-0.4297-0.60374-0.2353-1.1693-0.57927-1.6274-1.0375s-0.80586-1.0334-0.9594-1.6629c-0.15355-0.62951-0.10638-1.3128 0.16894-1.8994 0.27531-0.58657 0.78439-1.0675 1.3991-1.2724 0.4679-0.156 0.97438-0.15231 1.4521-0.27512 0.23885-0.0614 0.47258-0.15618 0.66678-0.30818 0.19419-0.15201 0.34672-0.36543 0.39469-0.60733 0.0535-0.26959-0.024-0.5453-0.0584-0.81797-0.0172-0.13634-0.0236-0.27559 3e-3 -0.4105 0.0262-0.13491 0.087-0.266 0.18811-0.35903 0.0865-0.07954 0.19808-0.12765 0.31238-0.15491s0.23222-0.03494 0.34947-0.04261c0.11726-0.0077 0.23519-0.01552 0.3494-0.04311 0.11422-0.02759 0.22564-0.0762 0.31167-0.15624 0.11149-0.10374 0.17214-0.25295 0.196-0.40336 0.0239-0.15041 0.0141-0.30388 4e-3 -0.45585-0.01-0.15197-0.02-0.30538 3e-3 -0.45589 0.0232-0.15051 0.0829-0.30001 0.1935-0.40469 0.0629-0.05949 0.1403-0.10265 0.22249-0.12979 0.0822-0.02714 0.1691-0.03856 0.25565-0.03884 0.17311-5.47e-4 0.34305 0.04275 0.51038 0.08708 0.16734 0.04433 0.33623 0.09028 0.50927 0.09523 0.17304 0.0049 0.35355-0.03521 0.48658-0.14598 0.12566-0.10462 0.19753-0.26287 0.2268-0.42374 0.0293-0.16087 0.0198-0.32605 7e-3 -0.48906s-0.0289-0.32697-0.0125-0.48966 0.0681-0.32646 0.17566-0.44963c0.0644-0.07378 0.14705-0.13074 0.23691-0.1697 0.0899-0.03896 0.18686-0.06024 0.28449-0.06795 0.19528-0.01542 0.39072 0.02272 0.58095 0.06943 0.19024 0.04671 0.3793 0.10239 0.57409 0.12306s0.39912 4e-3 0.57251-0.08713c0.18531-0.09742 0.32064-0.27301 0.40427-0.46494 0.0836-0.19193 0.12013-0.40078 0.14723-0.60838s0.0457-0.41708 0.0961-0.62026c0.0505-0.20318 0.13541-0.40248 0.27841-0.55538 0.18837-0.20141 0.46406-0.30563 0.73883-0.32906 0.27478-0.02343 0.5507 0.02736 0.81742 0.09742 0.26673 0.07006 0.52848 0.15962 0.79838 0.21626 0.26989 0.05665 0.55217 0.07957 0.82037 0.01538 0.30676-0.07343 0.57914-0.25821 0.79491-0.48829 0.21578-0.23008 0.37893-0.50444 0.52028-0.78642 0.2827-0.56397 0.49504-1.1824 0.93376-1.6357 0.41694-0.43083 1.0031-0.66761 1.5956-0.75957 0.59245-0.09197 1.1969-0.05033 1.7938 0.0057 0.59692 0.05604 1.1959 0.12635 1.7944 0.09103 0.5985-0.03533 1.2045-0.1835 1.6954-0.52779 0.62777-0.44034 1.0095-1.1611 1.2128-1.9005s0.24941-1.5111 0.34234-2.2722c0.0929-0.76116 0.23953-1.5333 0.6197-2.1992 0.19009-0.33297 0.43819-0.63551 0.74355-0.86736 0.30536-0.23186 0.66932-0.3912 1.0504-0.43359 0.55875-0.06215 1.1109 0.1246 1.6506 0.28204 0.26985 0.07872 0.54294 0.15091 0.82234 0.18176 0.2794 0.03084 0.56677 0.0192 0.83435-0.06692 0.34336-0.11052 0.63984-0.33956 0.87575-0.61242 0.23592-0.27287 0.41576-0.58927 0.57986-0.91049s0.31435-0.65006 0.49906-0.95989c0.18472-0.30983 0.40664-0.60276 0.69116-0.82449 0.41824-0.32594 0.94583-0.47878 1.4689-0.56574 0.52307-0.08697 1.0557-0.11535 1.5738-0.22801 0.52694-0.11457 1.0508-0.31698 1.5875-0.26458 0.36363 0.0355 0.7112 0.18979 0.99778 0.41642 0.28657 0.22663 0.51366 0.5235 0.68071 0.84844 0.33409 0.64987 0.42748 1.3951 0.46847 2.1246 0.041 0.72956 0.0357 1.4672 0.1932 2.1807 0.0788 0.35677 0.19871 0.7063 0.37876 1.0242 0.18006 0.31791 0.42172 0.60388 0.72067 0.81392 0.39167 0.27519 0.86164 0.40943 1.3116 0.5727 0.44998 0.16327 0.90651 0.37358 1.2019 0.75022 0.16222 0.20681 0.26676 0.45345 0.34234 0.70519 0.0756 0.25174 0.12387 0.51072 0.1851 0.76633 0.0612 0.25561 0.13636 0.51031 0.2613 0.74156 0.12493 0.23125 0.3033 0.43941 0.53417 0.56505 0.24956 0.13582 0.54506 0.16729 0.82799 0.1413 0.28293-0.026 0.55766-0.10603 0.83136-0.18227 0.27371-0.07624 0.55107-0.14949 0.83495-0.16133 0.28387-0.01184 0.57823 0.04229 0.813 0.2023 0.27154 0.18508 0.43836 0.49571 0.50993 0.81644 0.0716 0.32073 0.0572 0.65405 0.0293 0.98148s-0.0689 0.65559-0.0494 0.98363 0.1044 0.66143 0.30384 0.92261c0.19134 0.25058 0.47561 0.41774 0.77432 0.51857 0.29872 0.10083 0.61411 0.14052 0.92734 0.17641s0.62877 0.06892 0.93139 0.15734c0.30263 0.08841 0.59517 0.23666 0.80653 0.47059 0.26758 0.29616 0.38005 0.69641 0.49675 1.0781 0.0584 0.19085 0.12007 0.38153 0.20765 0.56086 0.0876 0.17933 0.2023 0.34794 0.35393 0.4777 0.1502 0.12854 0.33257 0.21545 0.52154 0.27352s0.38527 0.08839 0.58136 0.11349c0.39218 0.0502 0.79954 0.08405 1.1461 0.27444 0.38648 0.21235 0.65995 0.61839 0.71148 1.0563 0.0515 0.43795-0.12026 0.89637-0.4469 1.1926z" fill="#e9ddaf" stroke="#6c6753" stroke-width=".4" style="paint-order:normal"/><g fill="#6c6753"><path d="m270.54 96.077a0.39687 0.3638 0 0 1-0.39687 0.3638 0.39687 0.3638 0 0 1-0.39687-0.3638 0.39687 0.3638 0 0 1 0.39687-0.3638 0.39687 0.3638 0 0 1 0.39687 0.3638z"/><path d="m274.04 100.54a0.46302 0.46302 0 0 1-0.46302 0.46302 0.46302 0.46302 0 0 1-0.46302-0.46302 0.46302 0.46302 0 0 1 0.46302-0.46302 0.46302 0.46302 0 0 1 0.46302 0.46302z"/><path d="m255.65 101.43a0.3638 0.3638 0 0 1-0.3638 0.3638 0.3638 0.3638 0 0 1-0.3638-0.3638 0.3638 0.3638 0 0 1 0.3638-0.3638 0.3638 0.3638 0 0 1 0.3638 0.3638z"/><path d="m269.94 89.369a0.33073 0.53513 0 0 1-0.33073 0.53513 0.33073 0.53513 0 0 1-0.33073-0.53513 0.33073 0.53513 0 0 1 0.33073-0.53513 0.33073 0.53513 0 0 1 0.33073 0.53513z"/><path d="m260.42 90.256a0.29766 0.29766 0 0 1-0.29766 0.29766 0.29766 0.29766 0 0 1-0.29766-0.29766 0.29766 0.29766 0 0 1 0.29766-0.29766 0.29766 0.29766 0 0 1 0.29766 0.29766z"/><path d="m254.4 95.878a0.29766 0.29766 0 0 1-0.29766 0.29766 0.29766 0.29766 0 0 1-0.29766-0.29766 0.29766 0.29766 0 0 1 0.29766-0.29766 0.29766 0.29766 0 0 1 0.29766 0.29766z"/><path d="m265.31 100.18a0.49609 0.49609 0 0 1-0.49609 0.49609 0.49609 0.49609 0 0 1-0.49609-0.49609 0.49609 0.49609 0 0 1 0.49609-0.49609 0.49609 0.49609 0 0 1 0.49609 0.49609z"/><path d="m265.18 92.406a0.39687 0.39687 0 0 1-0.39687 0.39687 0.39687 0.39687 0 0 1-0.39687-0.39687 0.39687 0.39687 0 0 1 0.39687-0.39687 0.39687 0.39687 0 0 1 0.39687 0.39687z"/><path d="m276.09 91.674a0.52917 0.85621 0 0 1-0.52917 0.85621 0.52917 0.85621 0 0 1-0.52917-0.85621 0.52917 0.85621 0 0 1 0.52917-0.85621 0.52917 0.85621 0 0 1 0.52917 0.85621z"/><path d="m255.52 91.48a0.66146 0.33073 0 0 1-0.66146 0.33073 0.66146 0.33073 0 0 1-0.66146-0.33073 0.66146 0.33073 0 0 1 0.66146-0.33073 0.66146 0.33073 0 0 1 0.66146 0.33073z"/><path d="m267.17 86.089a0.59531 0.29766 0 0 1-0.59531 0.29766 0.59531 0.29766 0 0 1-0.59531-0.29766 0.59531 0.29766 0 0 1 0.59531-0.29766 0.59531 0.29766 0 0 1 0.59531 0.29766z"/><path d="m246.85 102.86a0.66146 0.33073 0 0 1-0.66146 0.33073 0.66146 0.33073 0 0 1-0.66146-0.33073 0.66146 0.33073 0 0 1 0.66146-0.33073 0.66146 0.33073 0 0 1 0.66146 0.33073z"/><path d="m244.08 97.697a0.33073 0.66146 0 0 1-0.33073 0.66146 0.33073 0.66146 0 0 1-0.33073-0.66146 0.33073 0.66146 0 0 1 0.33073-0.66146 0.33073 0.66146 0 0 1 0.33073 0.66146z"/><path d="m237.47 103.39a0.39687 0.39687 0 0 1-0.39687 0.39687 0.39687 0.39687 0 0 1-0.39687-0.39687 0.39687 0.39687 0 0 1 0.39687-0.39687 0.39687 0.39687 0 0 1 0.39687 0.39687z"/></g><g fill="#f4eed7"><path d="m271.65 79.185c-0.11227 0.74374-0.0964 1.5067 0.0468 2.2451 0.28493 1.4696 1.0562 2.7941 1.5435 4.2095 0.19915 0.57848 0.35182 1.175 0.60801 1.7306 0.42798 0.92813 1.1522 1.7249 2.058 2.1983 0.22326 0.11668 0.45915 0.21551 0.65482 0.37418 0.27594 0.22375 0.45085 0.55101 0.56126 0.88867 0.12607 0.38555 0.1766 0.80045 0.10685 1.2-0.0697 0.39959-0.26529 0.78258-0.57458 1.045-0.28352 0.24058-0.64662 0.37007-1.0123 0.43754-0.36567 0.06747-0.73907 0.07755-1.1097 0.10738-0.37064 0.02983-0.74485 0.08093-1.0877 0.22475-0.3429 0.14383-0.655 0.39026-0.81263 0.72704-0.0949 0.20275-0.13039 0.43399-0.0936 0.65481 0.0485 0.29087 0.21711 0.54948 0.41871 0.76468 0.20161 0.2152 0.43768 0.39466 0.65706 0.59171 0.53195 0.47779 0.96936 1.067 1.2349 1.7309 0.26556 0.66387 0.35482 1.4032 0.21499 2.1044-0.0792 0.39709-0.22918 0.77649-0.32739 1.1693-0.0587 0.23497-0.099 0.47504-0.17668 0.70446-0.0776 0.22942-0.19696 0.452-0.38459 0.60516-0.23428 0.19124-0.55937 0.25437-0.85616 0.19627-0.29678-0.0581-0.56464-0.22932-0.7685-0.4527-0.20387-0.22338-0.34706-0.49683-0.44856-0.78171-0.10151-0.28487-0.16299-0.58226-0.21862-0.87952-0.0844-0.45102-0.15638-0.90555-0.28404-1.3463-0.12767-0.44073-0.31414-0.87098-0.60462-1.2262-0.38092-0.46579-0.94434-0.78651-1.5435-0.8419-0.46379-0.04288-0.94997 0.07821-1.3096 0.37418-0.2452 0.20179-0.42468 0.47725-0.53421 0.77532s-0.15119 0.61834-0.1473 0.93587c8e-3 0.63507 0.19324 1.2523 0.34681 1.8686 0.15358 0.61627 0.27686 1.2592 0.15919 1.8834-0.0588 0.31206-0.17926 0.61521-0.37146 0.86799-0.19221 0.25279-0.45848 0.45316-0.76266 0.54437-0.19611 0.0588-0.40484 0.0718-0.60804 0.0468-0.39614-0.0488-0.76533-0.24023-1.0721-0.49558-0.30676-0.25535-0.55587-0.57291-0.78089-0.90257-0.45002-0.65933-0.83016-1.3957-1.4678-1.8759-0.63086-0.4751-1.4595-0.64251-2.2451-0.56127-0.58893 0.0609-1.1861 0.26892-1.5902 0.70158-0.22955 0.24573-0.38543 0.5505-0.51977 0.85877-0.13434 0.30828-0.25075 0.62553-0.41567 0.91858-0.29091 0.51691-0.72312 0.94173-1.029 1.4499-0.15175 0.25214-0.27112 0.52274-0.42426 0.77403-0.15314 0.2513-0.3465 0.48801-0.60473 0.62914-0.18216 0.0996-0.39079 0.14736-0.59838 0.14775-0.2076 3.9e-4 -0.41409-0.0458-0.60615-0.12457-0.38411-0.1576-0.70449-0.44066-0.97826-0.7528s-0.50785-0.65684-0.77107-0.97792c-0.26323-0.32108-0.56176-0.62303-0.92823-0.81816-0.56259-0.29956-1.2468-0.31929-1.8599-0.14532-0.61318 0.17396-1.1622 0.52779-1.648 0.94045-0.29057 0.24684-0.56176 0.51592-0.8548 0.75982-0.29304 0.24389-0.61173 0.46432-0.96931 0.59657-0.44397 0.1642-0.93407 0.18517-1.3995 0.099-0.46546-0.0861-0.90755-0.27615-1.3133-0.52-0.52257-0.31409-1.0031-0.72432-1.5902-0.88867-0.53709-0.15034-1.1118-0.0783-1.6537 0.0541-0.54181 0.13232-1.07 0.32369-1.6204 0.41367-1.3306 0.21752-2.7537-0.20515-3.7418-1.1225-0.72403-0.67226-1.2107-1.5953-1.3564-2.5725 0.23606 4e-3 0.47261-0.0724 0.66254-0.21263 0.20943-0.15461 0.35899-0.38375 0.43438-0.63292 0.0754-0.24916 0.0789-0.51725 0.0286-0.77268-0.0352-0.17893-0.0962-0.35382-0.10633-0.53589-5e-3 -0.09104 3e-3 -0.18365 0.033-0.26978 0.0299-0.08613 0.0826-0.16561 0.15606-0.21959 0.0603-0.04431 0.13269-0.07025 0.20638-0.08331 0.0737-0.01306 0.14903-0.01375 0.22383-0.01122 0.1496 5e-3 0.30301 0.0223 0.44623-0.02122 0.0915-0.0278 0.17437-0.07949 0.24742-0.14118 0.0731-0.06169 0.13694-0.1334 0.19906-0.20609 0.0538-0.06294 0.10672-0.12716 0.14883-0.19844 0.13041-0.22075 0.14649-0.48763 0.17873-0.74199 0.0161-0.12718 0.0373-0.25456 0.0802-0.37535s0.10889-0.23546 0.20408-0.32133c0.12142-0.10954 0.2835-0.16585 0.44586-0.18539s0.32672-0.0049 0.48939 0.01186c0.16266 0.0168 0.32614 0.03582 0.48932 0.02506 0.16317-0.01076 0.32809-0.05335 0.46059-0.14919 0.10713-0.07749 0.18973-0.18875 0.23151-0.31419 0.0394-0.11843 0.0425-0.24609 0.0324-0.3705-0.0102-0.12441-0.0332-0.24747-0.0447-0.37177s-0.0111-0.25174 0.0246-0.37136 0.11012-0.23145 0.2193-0.29197c0.0754-0.04178 0.16235-0.05712 0.24804-0.06615 0.37188-0.03919 0.74603 0.02864 1.1199 0.03555 0.18693 0.0035 0.37546-0.0086 0.55628-0.05613 0.18082-0.04755 0.35428-0.13204 0.4901-0.26054 0.15527-0.1469 0.25525-0.34581 0.30643-0.55334 0.0512-0.20753 0.0559-0.42408 0.0408-0.63729-7e-3 -0.10544-0.0192-0.2147 0.0165-0.31419 0.0233-0.06505 0.0664-0.12241 0.12049-0.16546 0.0541-0.04305 0.1188-0.07199 0.18633-0.08669 0.13505-0.02941 0.27773-0.0019 0.40425 0.05371 0.0633 0.02783 0.12333 0.0625 0.1819 0.09922 0.36836 0.23094 0.67871 0.54233 0.97565 0.8599 0.16549 0.17698 0.3286 0.35764 0.46317 0.55914 0.13456 0.2015 0.24042 0.42568 0.28097 0.66456 0.0465 0.27381 6e-3 0.55468-0.0496 0.82682-0.22745 1.1169-0.72854 2.2107-1.5875 2.96-0.38752 0.33806-0.83607 0.59723-1.2568 0.89297-0.16268 0.11436-0.32196 0.2347-0.49609 0.33073-0.38606 0.2129-0.82728 0.29734-1.2568 0.39687-0.44418 0.10293-0.8837 0.22488-1.3229 0.34727-0.25762 0.0718-0.51542 0.14379-0.77721 0.19844-0.52147 0.10885-1.0551 0.14804-1.5875 0.16536-0.1438 5e-3 -0.28831 8e-3 -0.42995 0.0331-0.38381 0.0684-0.72053 0.29322-1.0914 0.41342-0.32954 0.1068-0.68612 0.12896-1.0263 0.0638" style="paint-order:normal"/><path d="m242.76 92.869c-0.01-0.28252 0.13204-0.56575 0.3638-0.7276 0.17976-0.12554 0.40301-0.17742 0.62223-0.18155 0.21921-0.0041 0.43664 0.03662 0.65107 0.08233 0.0994 0.02119 0.19858 0.04348 0.29766 0.06615 0.39707 0.09085 0.80176 0.18844 1.2072 0.14883 0.12944-0.01265 0.25771-0.03936 0.38034-0.08268 0.27556-0.09735 0.51799-0.27782 0.70854-0.49941s0.33085-0.48335 0.43248-0.75736c0.12701-0.34242 0.19714-0.70932 0.38034-1.0253 0.25955-0.44762 0.72694-0.74815 1.2237-0.89297 0.47694-0.13904 0.98669-0.14897 1.4552-0.31419 0.0807-0.02845 0.16015-0.06151 0.24379-0.07942 0.0836-0.01791 0.17339-0.01975 0.2523 0.01327 0.084 0.03515 0.14783 0.10621 0.19844 0.1819 0.0961 0.14368 0.15427 0.31069 0.18188 0.4813 0.0276 0.17061 0.0253 0.34505 7e-3 0.5169-0.0366 0.34372-0.13652 0.67757-0.1889 1.0192-0.0336 0.21908-0.0475 0.4406-0.0661 0.66146-0.053 0.63013-0.14546 1.2618-0.35701 1.8577-0.21156 0.59592-0.54864 1.1577-1.0321 1.5653-0.68069 0.574-1.5802 0.79544-2.4309 1.0583-0.31861 0.09846-0.63745 0.20556-0.96884 0.24273-0.3314 0.03717-0.68222-0.0013-0.96592-0.17658-0.29689-0.18342-0.48793-0.49236-0.71107-0.76068-0.0873-0.105-0.18083-0.20495-0.28112-0.29766-0.23334-0.21569-0.50127-0.39041-0.74414-0.59531-0.35579-0.30016-0.66322-0.67766-0.79375-1.1245-0.0362-0.12378-0.0584-0.25162-0.0661-0.38034z" style="paint-order:normal"/><path d="m258.55 88.404c-1.162 0.69395-2.2934 1.4391-3.39 2.2324-0.46868 0.3391-0.94585 0.69435-1.5048 0.84336-0.35516 0.09468-0.72695 0.10118-1.0914 0.14883-0.19868 0.02597-0.39579 0.06428-0.59531 0.08268-0.2655 0.02449-0.53902 0.01248-0.78921-0.07969-0.25019-0.09216-0.47562-0.27172-0.58331-0.51563-0.085-0.19251-0.0924-0.41111-0.0675-0.62006s0.0805-0.41294 0.11709-0.62017c0.0333-0.18869 0.051-0.38109 0.10791-0.56405 0.0284-0.09148 0.0668-0.18037 0.11972-0.26021 0.0529-0.07985 0.12086-0.15056 0.20231-0.20099 0.1364-0.08445 0.30256-0.10763 0.46295-0.10455 0.1604 0.0031 0.31941 0.03036 0.47963 0.0384 0.24927 0.01251 0.49855-0.02164 0.74414-0.06615 0.47917-0.08684 0.95291-0.21366 1.4387-0.24805 0.11607-0.0082 0.23299-0.01118 0.34727-0.03307 0.23786-0.04557 0.45918-0.1758 0.61185-0.3638 0.0695-0.08562 0.12496-0.18233 0.19844-0.26458 0.14428-0.16149 0.34774-0.2565 0.51263-0.39688 0.20779-0.1769 0.34902-0.42276 0.43342-0.68227s0.11506-0.53347 0.12882-0.80601c8e-3 -0.15424 0.0103-0.3087 0.0165-0.46302 0.0184-0.45761 0.0695-0.91655 0.19844-1.356 0.0933-0.31772 0.22771-0.62862 0.24805-0.95912 0.0129-0.21008-0.021-0.42152-5.5e-4 -0.631 0.0102-0.10474 0.0345-0.2092 0.0828-0.30272s0.12183-0.17577 0.21545-0.22383c0.0651-0.0334 0.13794-0.04958 0.21086-0.05516 0.0729-0.0056 0.14624-8.9e-4 0.21909 0.0055 0.78689 0.06954 1.5402 0.34035 2.282 0.61185 0.37168 0.13603 0.74353 0.27298 1.1245 0.38034 0.47955 0.13515 0.97897 0.22558 1.4177 0.46169 0.21936 0.11806 0.42162 0.27305 0.57349 0.47052 0.15186 0.19747 0.25126 0.43933 0.25777 0.68836 6e-3 0.24684-0.0768 0.48762-0.1819 0.71107-0.26563 0.56478-0.67669 1.0556-1.1628 1.4471-0.4861 0.39146-1.0461 0.68568-1.6319 0.90108-0.17226 0.06334-0.34787 0.12027-0.52917 0.14883-0.12761 0.0201-0.25716 0.02601-0.38461 0.04708s-0.25518 0.05867-0.35953 0.13482c-0.11049 0.08063-0.18705 0.19836-0.28112 0.29766-0.0593 0.06265-0.12611 0.11828-0.19844 0.16536z" style="paint-order:normal"/><path d="m263.69 84.286c-0.59296 0.11562-1.2258 0.01412-1.7529-0.28112-0.16792-0.09406-0.32478-0.20663-0.49073-0.30412-0.16596-0.09749-0.34407-0.18076-0.53453-0.20851-0.16931-0.02467-0.34194-0.0046-0.51263-0.01654-0.12853-9e-3 -0.25509-0.03597-0.38034-0.06615-0.11199-0.02698-0.22368-0.05667-0.33073-0.09922-0.0895-0.03556-0.17522-0.07991-0.26458-0.11576-0.23461-0.0941-0.48852-0.12751-0.73974-0.15553-0.25123-0.02802-0.50514-0.0519-0.74599-0.12865-0.24084-0.07675-0.47142-0.21237-0.61353-0.42142-0.0711-0.10453-0.11837-0.22611-0.1296-0.352-0.0112-0.12589 0.0146-0.25588 0.0791-0.36454 0.0719-0.12102 0.1869-0.21013 0.30592-0.28529s0.2453-0.13979 0.35553-0.22734c0.19562-0.15536 0.33196-0.37582 0.52917-0.52917 0.21864-0.17001 0.50071-0.24592 0.77767-0.2471 0.27695-0.0012 0.55017 0.06808 0.80983 0.16442 0.31925 0.11844 0.62552 0.279 0.95912 0.34727 0.33298 0.06814 0.68081 0.04058 1.0099-0.04451 0.32906-0.08509 0.64113-0.22628 0.94144-0.38544 0.18979-0.10059 0.37761-0.21006 0.53327-0.35808s0.27828-0.339 0.31009-0.55143c7e-3 -0.04937 0.01-0.09935 0.0165-0.14883 0.0202-0.15046 0.0787-0.29356 0.15189-0.42657 0.0732-0.13301 0.16106-0.25723 0.24499-0.38372 0.13746-0.20717 0.26668-0.42359 0.44648-0.59531 0.099-0.09459 0.21165-0.1738 0.31419-0.26458 0.0905-0.08014 0.173-0.16911 0.26459-0.24805 0.3147-0.27122 0.7225-0.41142 1.1304-0.49004 0.40794-0.07861 0.82472-0.1016 1.2343-0.17142 0.39025-0.06654 0.77188-0.17524 1.1576-0.26458 0.10428-0.02416 0.2089-0.04691 0.3142-0.06615 0.0472-0.0086 0.0947-0.01655 0.14266-0.01621 0.0479 3.37e-4 0.0966 0.0093 0.13846 0.03275 0.0322 0.018 0.0595 0.04419 0.0801 0.07474s0.0346 0.06539 0.0423 0.10144c0.0154 0.07209 6e-3 0.14777-0.0169 0.21799-0.0448 0.14044-0.13763 0.26111-0.18819 0.39959-0.0631 0.17273-0.0568 0.36196-0.0496 0.5457 0.0141 0.35824 0.0288 0.71751 0 1.0749-0.0246 0.30467-0.0806 0.60588-0.11575 0.90951-0.0591 0.51102-0.0587 1.0269-0.0957 1.54-0.0371 0.51309-0.11367 1.0304-0.31768 1.5027-0.19171 0.44377-0.49648 0.84041-0.88585 1.1269s-0.86346 0.46028-1.3466 0.47714c-0.22625 0.0079-0.45212-0.01784-0.678-0.03307-0.20957-0.01413-0.42139-0.01912-0.62838 0.01654-0.24961 0.04301-0.48786 0.14439-0.73988 0.16967-0.12601 0.01264-0.25569 0.0055-0.37504-0.03682-0.11936-0.04234-0.22789-0.12209-0.29068-0.23207-0.0537-0.09412-0.0717-0.20809-0.0496-0.31419" style="paint-order:normal"/><path d="m271.28 80.003c-0.23119 0.22099-0.452 0.45284-0.66146 0.69453-0.11264 0.12998-0.22299 0.26376-0.35745 0.37101s-0.29743 0.18746-0.46938 0.19123c-0.11007 0.0024-0.21828-0.02628-0.32384-0.05754-0.10557-0.03126-0.21137-0.06552-0.32108-0.07475-0.0999-0.0084-0.20014 0.0042-0.30027 0.0084-0.10014 0.0042-0.2035-6.53e-4 -0.29504-0.04145-0.10263-0.04574-0.18268-0.13466-0.22968-0.23672s-0.0627-0.21652-0.0587-0.32881c8e-3 -0.22458 0.0919-0.43855 0.13956-0.65817 0.0802-0.36976 0.0572-0.75281 0.0696-1.131s0.0664-0.77105 0.27771-1.0849c0.10024-0.14891 0.23474-0.27836 0.29765-0.44648 0.0349-0.0934 0.0457-0.19386 0.07-0.29059 0.0121-0.04837 0.0278-0.09613 0.051-0.14025 0.0232-0.04413 0.0543-0.08465 0.094-0.11486 0.045-0.03426 0.1-0.05432 0.15608-0.06121 0.0561-0.0069 0.11337-9.72e-4 0.1681 0.0132 0.10947 0.02836 0.20755 0.08851 0.3042 0.14723 0.23005 0.13976 0.46307 0.27632 0.67525 0.44195 0.21219 0.16564 0.40449 0.36273 0.53191 0.59984 0.0665 0.12382 0.11459 0.25694 0.18191 0.38034 0.0793 0.14541 0.18506 0.27675 0.24804 0.42995 0.0831 0.20204 0.0858 0.4295 0.0496 0.64492-0.0446 0.26548-0.14686 0.52113-0.29765 0.74414z" style="paint-order:normal"/><path d="m271.91 81.144 3.2985-1.9591" style="paint-order:normal"/></g><path d="m288 98.16c-0.6864 1.3699-1.5317 2.6601-2.5135 3.8365-3.6577 4.3824-9.0998 7.0172-14.7 8.1223-5.6002 1.105-11.386 0.79315-17.05 0.0798-1.5545-0.1958-3.1082-0.422-4.6302-0.79375-2.5106-0.6132-4.9579-1.6252-7.5406-1.7198-1.2951-0.0474-2.5859 0.13873-3.8795 0.21647-1.2936 0.0777-2.6255 0.0409-3.8329-0.4297-0.60374-0.2353-1.1693-0.57927-1.6274-1.0375s-0.80586-1.0334-0.9594-1.6629c-0.15355-0.62951-0.10638-1.3128 0.16894-1.8994 0.27531-0.58657 0.78439-1.0675 1.3991-1.2724 0.4679-0.156 0.97438-0.15231 1.4521-0.27512 0.23885-0.0614 0.47258-0.15618 0.66678-0.30818 0.19419-0.15201 0.34672-0.36543 0.39469-0.60733 0.0535-0.26959-0.024-0.5453-0.0584-0.81797-0.0172-0.13634-0.0236-0.27559 3e-3 -0.4105 0.0262-0.13491 0.087-0.266 0.18811-0.35903 0.0865-0.07954 0.19808-0.12765 0.31238-0.15491s0.23222-0.03494 0.34947-0.04261c0.11726-0.0077 0.23519-0.01552 0.3494-0.04311 0.11422-0.02759 0.22564-0.0762 0.31167-0.15624 0.11149-0.10374 0.17214-0.25295 0.196-0.40336 0.0239-0.15041 0.0141-0.30388 4e-3 -0.45585-0.01-0.15197-0.02-0.30538 3e-3 -0.45589 0.0232-0.15051 0.0829-0.30001 0.1935-0.40469 0.0629-0.05949 0.1403-0.10265 0.22249-0.12979 0.0822-0.02714 0.1691-0.03856 0.25565-0.03884 0.17311-5.47e-4 0.34305 0.04275 0.51038 0.08708 0.16734 0.04433 0.33623 0.09028 0.50927 0.09523 0.17304 0.0049 0.35355-0.03521 0.48658-0.14598 0.12566-0.10462 0.19753-0.26287 0.2268-0.42374 0.0293-0.16087 0.0198-0.32605 7e-3 -0.48906s-0.0289-0.32697-0.0125-0.48966 0.0681-0.32646 0.17566-0.44963c0.0644-0.07378 0.14705-0.13074 0.23691-0.1697 0.0899-0.03896 0.18686-0.06024 0.28449-0.06795 0.19528-0.01542 0.39072 0.02272 0.58095 0.06943 0.19024 0.04671 0.3793 0.10239 0.57409 0.12306s0.39912 4e-3 0.57251-0.08713c0.18531-0.09742 0.32064-0.27301 0.40427-0.46494 0.0836-0.19193 0.12013-0.40078 0.14723-0.60838s0.0457-0.41708 0.0961-0.62026c0.0505-0.20318 0.13541-0.40248 0.27841-0.55538 0.18837-0.20141 0.46406-0.30563 0.73883-0.32906 0.27478-0.02343 0.5507 0.02736 0.81742 0.09742 0.26673 0.07006 0.52848 0.15962 0.79838 0.21626 0.26989 0.05665 0.55217 0.07957 0.82037 0.01538 0.30676-0.07343 0.57914-0.25821 0.79491-0.48829 0.21578-0.23008 0.37893-0.50444 0.52028-0.78642 0.2827-0.56397 0.49504-1.1824 0.93376-1.6357 0.41694-0.43083 1.0031-0.66761 1.5956-0.75957 0.59245-0.09197 1.1969-0.05033 1.7938 0.0057 0.59692 0.05604 1.1959 0.12635 1.7944 0.09103 0.5985-0.03533 1.2045-0.1835 1.6954-0.52779 0.62777-0.44034 1.0095-1.1611 1.2128-1.9005s0.24941-1.5111 0.34234-2.2722c0.0929-0.76116 0.23953-1.5333 0.6197-2.1992 0.19009-0.33297 0.43819-0.63551 0.74355-0.86736 0.30536-0.23186 0.66932-0.3912 1.0504-0.43359 0.55875-0.06215 1.1109 0.1246 1.6506 0.28204 0.26985 0.07872 0.54294 0.15091 0.82234 0.18176 0.2794 0.03084 0.56677 0.0192 0.83435-0.06692 0.34336-0.11052 0.63984-0.33956 0.87575-0.61242 0.23592-0.27287 0.41576-0.58927 0.57986-0.91049s0.31435-0.65006 0.49906-0.95989c0.18472-0.30983 0.40664-0.60276 0.69116-0.82449 0.41824-0.32594 0.94583-0.47878 1.4689-0.56574 0.52307-0.08697 1.0557-0.11535 1.5738-0.22801 0.52694-0.11457 1.0508-0.31698 1.5875-0.26458 0.36363 0.0355 0.7112 0.18979 0.99778 0.41642 0.28657 0.22663 0.51366 0.5235 0.68071 0.84844 0.33409 0.64987 0.42748 1.3951 0.46847 2.1246 0.041 0.72956 0.0357 1.4672 0.1932 2.1807 0.0788 0.35677 0.19871 0.7063 0.37876 1.0242 0.18006 0.31791 0.42172 0.60388 0.72067 0.81392 0.39167 0.27519 0.86164 0.40943 1.3116 0.5727 0.44998 0.16327 0.90651 0.37358 1.2019 0.75022 0.16222 0.20681 0.26676 0.45345 0.34234 0.70519 0.0756 0.25174 0.12387 0.51072 0.1851 0.76633 0.0612 0.25561 0.13636 0.51031 0.2613 0.74156 0.12493 0.23125 0.3033 0.43941 0.53417 0.56505 0.24956 0.13582 0.54506 0.16729 0.82799 0.1413 0.28293-0.026 0.55766-0.10603 0.83136-0.18227 0.27371-0.07624 0.55107-0.14949 0.83495-0.16133 0.28387-0.01184 0.57823 0.04229 0.813 0.2023 0.27154 0.18508 0.43836 0.49571 0.50993 0.81644 0.0716 0.32073 0.0572 0.65405 0.0293 0.98148s-0.0689 0.65559-0.0494 0.98363 0.1044 0.66143 0.30384 0.92261c0.19134 0.25058 0.47561 0.41774 0.77432 0.51857 0.29872 0.10083 0.61411 0.14052 0.92734 0.17641s0.62877 0.06892 0.93139 0.15734c0.30263 0.08841 0.59517 0.23666 0.80653 0.47059 0.26758 0.29616 0.38005 0.69641 0.49675 1.0781 0.0584 0.19085 0.12007 0.38153 0.20765 0.56086 0.0876 0.17933 0.2023 0.34794 0.35393 0.4777 0.1502 0.12854 0.33257 0.21545 0.52154 0.27352s0.38527 0.08839 0.58136 0.11349c0.39218 0.0502 0.79954 0.08405 1.1461 0.27444 0.38648 0.21235 0.65995 0.61839 0.71148 1.0563 0.0515 0.43795-0.12026 0.89637-0.4469 1.1926z" fill="none" stroke="#6c6753" stroke-width=".4" style="paint-order:normal"/><g fill="#e9ddaf"><path d="m247.91 97.301c0.53602 0.54774 1.2564 0.91181 2.0153 1.0185s1.5518-0.04456 2.218-0.42322c0.55357-0.3146 1.0163-0.777 1.5875-1.0583 0.52294-0.25756 1.1147-0.35074 1.6976-0.35038 0.58293 3.58e-4 1.1617 0.09061 1.7372 0.18355 0.57546 0.09294 1.1528 0.18901 1.7356 0.20117 0.5828 0.01215 1.1758-0.06274 1.7088-0.29892 0.3176-0.14076 0.61441-0.34154 0.82771-0.61574 0.21329-0.2742 0.33707-0.62672 0.29677-0.97176-0.0293-0.25104-0.14436-0.48947-0.31372-0.67708-0.16937-0.18761-0.39145-0.32499-0.6313-0.40467-0.47972-0.15937-1.0142-0.08613-1.4791 0.11239-0.46489 0.19851-0.86984 0.51392-1.2504 0.84665-0.38055 0.33273-0.74385 0.6873-1.1541 0.98262-0.58891 0.42391-1.2951 0.72399-2.0202 0.69734-0.36256-0.01332-0.72422-0.10981-1.0353-0.29646-0.31112-0.18664-0.5697-0.46521-0.71476-0.79776-0.11639-0.26681-0.15819-0.5599-0.18076-0.85012-0.0226-0.29022-0.0272-0.58249-0.0743-0.86974s-0.14008-0.5737-0.32001-0.80252c-0.09-0.11441-0.20114-0.21301-0.32918-0.28222s-0.27317-0.10843-0.41869-0.10581c-0.14806 0.0027-0.2942 0.04866-0.42085 0.1254-0.12666 0.07674-0.23405 0.18359-0.31736 0.30602-0.16662 0.24486-0.23475 0.54581-0.24509 0.8418-0.0207 0.59198 0.17526 1.1794 0.12341 1.7695-0.0599 0.68206-0.47286 1.3234-1.0689 1.6604-0.59606 0.3369-1.3585 0.35987-1.9738 0.05944z" style="paint-order:normal"/><path d="m265.44 94.324c0.58913 0.1078 1.2193-0.02973 1.7099-0.37318 0.49064-0.34345 0.83555-0.88846 0.93591-1.4789 0.0816-0.47991 7e-3 -0.97134 0.0193-1.458 6e-3 -0.24332 0.0343-0.48816 0.11266-0.71858 0.0784-0.23042 0.20946-0.44669 0.39722-0.60157 0.24498-0.20207 0.57736-0.28721 0.8927-0.2497 0.31535 0.03751 0.61177 0.1925 0.83905 0.41428 0.22729 0.22178 0.38722 0.5077 0.47991 0.81144 0.0927 0.30374 0.11992 0.62508 0.10344 0.94222-0.0322 0.61923-0.23215 1.2289-0.57297 1.7469-0.34081 0.518-0.82159 0.94294-1.3775 1.2176-0.55594 0.27462-1.1856 0.39819-1.8041 0.35407-0.61849-0.04412-1.2242-0.25583-1.7355-0.60658z" style="paint-order:normal"/><path d="m269.54 96.044c-0.0693 0.0087-0.13455 0.04577-0.17741 0.10086-0.0429 0.0551-0.0628 0.1275-0.0541 0.19677 9e-3 0.06927 0.0458 0.13455 0.10086 0.17741 0.0551 0.04286 0.1275 0.06278 0.19677 0.05412 0.0693-0.0087 0.13455-0.04577 0.17741-0.10086 0.0429-0.0551 0.0628-0.1275 0.0541-0.19677-9e-3 -0.06927-0.0458-0.13455-0.10086-0.17741-0.0551-0.04286-0.1275-0.06278-0.19677-0.05412z" style="paint-order:normal"/><path d="m246.39 101.67c-1.1049 0.38844-2.3298 0.42759-3.4572 0.11049-1.1275-0.31709-2.1523-0.98898-2.8928-1.8964-0.15406-0.18881-0.29866-0.39261-0.36668-0.62661-0.034-0.117-0.0481-0.24059-0.0331-0.36151s0.0598-0.23906 0.13515-0.3348c0.0795-0.10102 0.19138-0.17474 0.31328-0.2156 0.1219-0.04085 0.25346-0.04963 0.38099-0.03334 0.25505 0.03258 0.48814 0.16208 0.6948 0.31508 0.33886 0.25087 0.62208 0.56771 0.92604 0.8599 1.1758 1.1303 2.6931 1.9006 4.2995 2.1828z" style="paint-order:normal"/><path d="m256.71 91.017c1.0432-0.10197 2.0242-0.7152 2.5728-1.6083s0.65214-2.0453 0.27151-3.0219c-0.0875-0.22451-0.20043-0.44631-0.21325-0.68693-6e-3 -0.12031 0.0138-0.24393 0.0719-0.34944 0.0582-0.10551 0.1567-0.19123 0.27359-0.22041 0.0672-0.01677 0.13833-0.01475 0.20586 6.19e-4 0.0675 0.01536 0.13162 0.04376 0.19134 0.07882 0.11944 0.07013 0.22116 0.16614 0.3304 0.25129 0.48492 0.37796 1.1081 0.53362 1.7198 0.59531 0.55091 0.05556 1.1107 0.04237 1.6536-0.06615 0.47238-0.09441 0.93488-0.26089 1.4164-0.27272 0.24079-0.0059 0.48538 0.02835 0.70547 0.12622 0.22008 0.09786 0.41447 0.26267 0.52391 0.47723 0.0775 0.15195 0.11071 0.32532 0.10086 0.4956-0.01 0.17029-0.0622 0.33728-0.146 0.48584-0.16765 0.29711-0.45714 0.51398-0.7757 0.63607-0.31855 0.12209-0.66531 0.15541-1.0063 0.14491-0.34098-0.0105-0.67901-0.06345-1.0171-0.10878-0.31118-0.04171-0.62456-0.07709-0.93838-0.06742-0.31381 0.0097-0.62973 0.06579-0.9137 0.19971-0.42088 0.19849-0.74639 0.55431-1.023 0.92852-0.27658 0.37421-0.51706 0.7768-0.8291 1.122-0.39065 0.43216-0.8946 0.76764-1.4552 0.92604-0.56124 0.15858-1.1724 0.13507-1.7198-0.06615z" style="paint-order:normal"/><path d="m255.12 101.86c-0.1807-0.43696-0.20449-0.93692-0.0661-1.3891 0.11768-0.38446 0.34845-0.7301 0.64117-1.0057s0.64596-0.4829 1.0205-0.62905c0.74912-0.29231 1.5691-0.34094 2.3732-0.3496 0.62885-0.0068 1.2832 0.0036 1.8521-0.26458 0.38982-0.18378 0.71111-0.48652 1.0868-0.69772 0.18783-0.1056 0.39142-0.18856 0.60527-0.21508 0.21384-0.02652 0.43918 0.0067 0.62305 0.11905 0.19167 0.11713 0.3282 0.31614 0.3828 0.53403s0.0299 0.45245-0.0553 0.66032c-0.0851 0.20787-0.22865 0.38944-0.40184 0.53249s-0.37545 0.24854-0.58714 0.32368c-0.40919 0.14524-0.85059 0.17802-1.2846 0.16334-0.43395-0.01468-0.86489-0.07536-1.2976-0.11163-0.43268-0.03627-0.87168-0.04781-1.2979 0.0349-0.42625 0.0827-0.84205 0.2658-1.147 0.57485-0.18638 0.18887-0.32636 0.41743-0.47169 0.63943-0.14534 0.22201-0.3005 0.44059-0.497 0.6189-0.19651 0.17832-0.43364 0.3121-0.68925 0.38334-0.2556 0.0712-0.5241 0.0781-0.78945 0.0781z" style="paint-order:normal"/></g><g transform="translate(.79375 .21592)"><g stroke="#6c6753" stroke-width=".4"><path d="m267.91 80.869a0.21047 0.18709 0 0 1-0.21047 0.18709 0.21047 0.18709 0 0 1-0.21047-0.18709 0.21047 0.18709 0 0 1 0.21047-0.18709 0.21047 0.18709 0 0 1 0.21047 0.18709z" fill="#f4eed7"/><path d="m261.92 85.383a0.1637 0.30402 0 0 1-0.1637 0.30402 0.1637 0.30402 0 0 1-0.1637-0.30402 0.1637 0.30402 0 0 1 0.1637-0.30402 0.1637 0.30402 0 0 1 0.1637 0.30402z" fill="#f4eed7"/><g fill="#6c6753"><path d="m261.23 95.626a0.32741 0.30402 0 0 1-0.32741 0.30402 0.32741 0.30402 0 0 1-0.32741-0.30402 0.32741 0.30402 0 0 1 0.32741-0.30402 0.32741 0.30402 0 0 1 0.32741 0.30402z"/><path d="m262.35 103.04a0.11693 0.14032 0 0 1-0.11693 0.14032 0.11693 0.14032 0 0 1-0.11693-0.14032 0.11693 0.14032 0 0 1 0.11693-0.14032 0.11693 0.14032 0 0 1 0.11693 0.14032z"/><path d="m248.78 100.02a0.46772 0.1637 0 0 1-0.46772 0.1637 0.46772 0.1637 0 0 1-0.46772-0.1637 0.46772 0.1637 0 0 1 0.46772-0.1637 0.46772 0.1637 0 0 1 0.46772 0.1637z"/><path d="m241.01 103.04a0.1637 0.28063 0 0 1-0.1637 0.28063 0.1637 0.28063 0 0 1-0.1637-0.28063 0.1637 0.28063 0 0 1 0.1637-0.28063 0.1637 0.28063 0 0 1 0.1637 0.28063z"/><path d="m249.06 94.76a0.39756 0.37418 0 0 1-0.39756 0.37418 0.39756 0.37418 0 0 1-0.39756-0.37418 0.39756 0.37418 0 0 1 0.39756-0.37418 0.39756 0.37418 0 0 1 0.39756 0.37418z"/></g></g><g fill="#6c6753"><path d="m270.54 96.077a0.39687 0.3638 0 0 1-0.39687 0.3638 0.39687 0.3638 0 0 1-0.39687-0.3638 0.39687 0.3638 0 0 1 0.39687-0.3638 0.39687 0.3638 0 0 1 0.39687 0.3638z"/><path d="m274.04 100.54a0.46302 0.46302 0 0 1-0.46302 0.46302 0.46302 0.46302 0 0 1-0.46302-0.46302 0.46302 0.46302 0 0 1 0.46302-0.46302 0.46302 0.46302 0 0 1 0.46302 0.46302z"/><path d="m270.54 106.1a0.59531 0.59531 0 0 1-0.59531 0.59531 0.59531 0.59531 0 0 1-0.59531-0.59531 0.59531 0.59531 0 0 1 0.59531-0.59531 0.59531 0.59531 0 0 1 0.59531 0.59531z"/><path d="m255.65 101.43a0.3638 0.3638 0 0 1-0.3638 0.3638 0.3638 0.3638 0 0 1-0.3638-0.3638 0.3638 0.3638 0 0 1 0.3638-0.3638 0.3638 0.3638 0 0 1 0.3638 0.3638z"/><path d="m269.94 89.369a0.33073 0.53513 0 0 1-0.33073 0.53513 0.33073 0.53513 0 0 1-0.33073-0.53513 0.33073 0.53513 0 0 1 0.33073-0.53513 0.33073 0.53513 0 0 1 0.33073 0.53513z"/><path d="m279.93 98.091a0.52917 0.85621 0 0 1-0.52917 0.85621 0.52917 0.85621 0 0 1-0.52917-0.85621 0.52917 0.85621 0 0 1 0.52917-0.85621 0.52917 0.85621 0 0 1 0.52917 0.85621z"/><path d="m260.42 90.256a0.29766 0.29766 0 0 1-0.29766 0.29766 0.29766 0.29766 0 0 1-0.29766-0.29766 0.29766 0.29766 0 0 1 0.29766-0.29766 0.29766 0.29766 0 0 1 0.29766 0.29766z"/><path d="m254.4 95.878a0.29766 0.29766 0 0 1-0.29766 0.29766 0.29766 0.29766 0 0 1-0.29766-0.29766 0.29766 0.29766 0 0 1 0.29766-0.29766 0.29766 0.29766 0 0 1 0.29766 0.29766z"/><path d="m265.31 100.18a0.49609 0.49609 0 0 1-0.49609 0.49609 0.49609 0.49609 0 0 1-0.49609-0.49609 0.49609 0.49609 0 0 1 0.49609-0.49609 0.49609 0.49609 0 0 1 0.49609 0.49609z"/><path d="m250.76 105.63a0.33073 0.33073 0 0 1-0.33073 0.33073 0.33073 0.33073 0 0 1-0.33073-0.33073 0.33073 0.33073 0 0 1 0.33073-0.33073 0.33073 0.33073 0 0 1 0.33073 0.33073z"/><path d="m265.18 92.406a0.39687 0.39687 0 0 1-0.39687 0.39687 0.39687 0.39687 0 0 1-0.39687-0.39687 0.39687 0.39687 0 0 1 0.39687-0.39687 0.39687 0.39687 0 0 1 0.39687 0.39687z"/><path d="m276.09 91.674a0.52917 0.85621 0 0 1-0.52917 0.85621 0.52917 0.85621 0 0 1-0.52917-0.85621 0.52917 0.85621 0 0 1 0.52917-0.85621 0.52917 0.85621 0 0 1 0.52917 0.85621z"/><path d="m255.52 91.48a0.66146 0.33073 0 0 1-0.66146 0.33073 0.66146 0.33073 0 0 1-0.66146-0.33073 0.66146 0.33073 0 0 1 0.66146-0.33073 0.66146 0.33073 0 0 1 0.66146 0.33073z"/><path d="m267.17 86.089a0.59531 0.29766 0 0 1-0.59531 0.29766 0.59531 0.29766 0 0 1-0.59531-0.29766 0.59531 0.29766 0 0 1 0.59531-0.29766 0.59531 0.29766 0 0 1 0.59531 0.29766z"/><path d="m269.28 99.186a0.46302 0.23151 0 0 1-0.46302 0.23151 0.46302 0.23151 0 0 1-0.46302-0.23151 0.46302 0.23151 0 0 1 0.46302-0.23151 0.46302 0.23151 0 0 1 0.46302 0.23151z"/><path d="m276.95 102.76a0.46302 0.23151 0 0 1-0.46302 0.23151 0.46302 0.23151 0 0 1-0.46302-0.23151 0.46302 0.23151 0 0 1 0.46302-0.23151 0.46302 0.23151 0 0 1 0.46302 0.23151z"/><path d="m246.85 102.86a0.66146 0.33073 0 0 1-0.66146 0.33073 0.66146 0.33073 0 0 1-0.66146-0.33073 0.66146 0.33073 0 0 1 0.66146-0.33073 0.66146 0.33073 0 0 1 0.66146 0.33073z"/><path d="m244.08 97.697a0.33073 0.66146 0 0 1-0.33073 0.66146 0.33073 0.66146 0 0 1-0.33073-0.66146 0.33073 0.66146 0 0 1 0.33073-0.66146 0.33073 0.66146 0 0 1 0.33073 0.66146z"/><path d="m237.47 103.39a0.39687 0.39687 0 0 1-0.39687 0.39687 0.39687 0.39687 0 0 1-0.39687-0.39687 0.39687 0.39687 0 0 1 0.39687-0.39687 0.39687 0.39687 0 0 1 0.39687 0.39687z"/><path d="m259.22 105.97a0.66146 0.66146 0 0 1-0.66146 0.66146 0.66146 0.66146 0 0 1-0.66146-0.66146 0.66146 0.66146 0 0 1 0.66146-0.66146 0.66146 0.66146 0 0 1 0.66146 0.66146z"/></g></g></g><path d="m252.47 66.396 0.99217-0.09646q0.0896 0.49953 0.36173 0.73381 0.27562 0.23427 0.7407 0.23427 0.49264 0 0.74069-0.2067 0.25149-0.21015 0.25149-0.48921 0-0.17914-0.1068-0.30316-0.10335-0.12747-0.36517-0.22048-0.17915-0.06201-0.8165-0.22048-0.81993-0.20326-1.1506-0.49953-0.46508-0.41685-0.46508-1.0163 0-0.38586 0.21704-0.72003 0.22048-0.33763 0.63044-0.51331 0.41341-0.1757 0.99564-0.1757 0.95085 0 1.4297 0.41685 0.4823 0.41685 0.50643 1.1128l-1.0197 0.04478q-0.0655-0.3893-0.28249-0.5581-0.2136-0.17226-0.64423-0.17226-0.44441 0-0.6959 0.18259-0.16192 0.11713-0.16192 0.3135 0 0.17914 0.15159 0.30662 0.19292 0.16192 0.93706 0.33763 0.74413 0.1757 1.099 0.36517 0.3583 0.18603 0.55811 0.51331 0.20326 0.32385 0.20326 0.80271 0 0.43407-0.24116 0.81305-0.24115 0.37896-0.68214 0.56498-0.44097 0.18259-1.099 0.18259-0.95773 0-1.4711-0.44098-0.51331-0.44442-0.61321-1.2919zm5.6811-0.89918-0.87851-0.15848q0.14813-0.53054 0.50987-0.78548 0.36173-0.25494 1.0749-0.25494 0.64767 0 0.96463 0.15503 0.31694 0.15158 0.44442 0.3893 0.13091 0.23427 0.13091 0.86473l-0.0103 1.13q0 0.4823 0.0448 0.71312 0.0482 0.22738 0.1757 0.48921h-0.95772q-0.0379-0.09646-0.093-0.28593-0.0241-0.08613-0.0344-0.11369-0.24805 0.24116-0.53054 0.36173t-0.6029 0.12058q-0.56498 0-0.89227-0.30662-0.32384-0.30662-0.32384-0.77514 0-0.31006 0.14814-0.55123 0.14813-0.2446 0.4134-0.37208 0.26871-0.13091 0.7717-0.22738 0.67868-0.12747 0.94051-0.23771v-0.09646q0-0.27905-0.13781-0.39618-0.1378-0.12058-0.52022-0.12058-0.25838 0-0.40308 0.10335-0.1447 0.09991-0.23427 0.35486zm1.2954 0.78548q-0.18604 0.06201-0.58912 0.14814-0.40308 0.08613-0.5271 0.16881-0.18948 0.13436-0.18948 0.34107 0 0.20326 0.15159 0.35139 0.15158 0.14814 0.38586 0.14814 0.26183 0 0.49953-0.17225 0.1757-0.13092 0.23082-0.32041 0.0379-0.12402 0.0379-0.47198zm1.9051 1.757v-5.0506h0.96807v5.0506zm3.638-3.6586v0.7717h-0.66145v1.4745q0 0.44785 0.0172 0.52366 0.0207 0.07235 0.0861 0.12058 0.0689 0.04823 0.16536 0.04823 0.13436 0 0.3893-0.09302l0.0827 0.75104q-0.33763 0.14469-0.76482 0.14469-0.26183 0-0.47198-0.08613-0.21015-0.08957-0.31006-0.22738-0.0965-0.14125-0.13436-0.37896-0.031-0.16881-0.031-0.68214v-1.5951h-0.44441v-0.7717h0.44441v-0.72691l0.97151-0.56498v1.2919zm0.33073 2.6148 0.97151-0.14814q0.062 0.28249 0.25149 0.43063 0.18948 0.14469 0.53054 0.14469 0.37552 0 0.56498-0.1378 0.12747-0.09646 0.12747-0.25838 0-0.11024-0.0689-0.18259-0.0723-0.0689-0.32385-0.12747-1.1713-0.25838-1.4848-0.47198-0.43407-0.29628-0.43407-0.82337 0-0.47542 0.37552-0.79927t1.1644-0.32385q0.75104 0 1.1162 0.2446 0.36518 0.2446 0.503 0.72347l-0.91296 0.16881q-0.0586-0.2136-0.22393-0.32728-0.16192-0.11369-0.46508-0.11369-0.3824 0-0.54776 0.1068-0.11025 0.07579-0.11025 0.19637 0 0.10335 0.0965 0.1757 0.13091 0.09646 0.90261 0.27217 0.77514 0.1757 1.0818 0.43063 0.30316 0.25838 0.30316 0.72003 0 0.50299-0.42031 0.86473-0.42031 0.36173-1.2437 0.36173-0.74759 0-1.1851-0.30316-0.43407-0.30316-0.56845-0.82337z" stroke-width=".39999" style="white-space:pre" aria-label="Salts"/></svg>
