<?xml version="1.0" encoding="UTF-8"?>
<!-- Created with Inkscape (http://www.inkscape.org/) -->
<svg width="270mm" height="180mm" version="1.1" viewBox="0 0 270 180" xml:space="preserve" xmlns="http://www.w3.org/2000/svg"><g><rect x="-17.992" y="-16.933" width="299.51" height="209.02" ry="2.712" fill="#fff" stroke-width=".5"/><rect x="197.67" y="84.691" width="49.742" height="12.965" ry="6.4823" fill="#162d50" fill-opacity=".15" stroke="#162d50" stroke-width=".767"/><text transform="scale(.26458)" fill="#2c5aa0" font-family="Arial" font-size="14.667px" font-weight="bold" text-align="center" style="font-variant-caps:normal;font-variant-east-asian:normal;font-variant-ligatures:normal;font-variant-numeric:normal;shape-inside:url(#rect240);white-space:pre" xml:space="preserve"/><g fill="#214478" font-weight="bold"><text transform="scale(.26458)" font-family="Arial" font-size="14.667px" text-align="center" style="font-variant-caps:normal;font-variant-east-asian:normal;font-variant-ligatures:normal;font-variant-numeric:normal;shape-inside:url(#rect241);white-space:pre" xml:space="preserve"/><text transform="scale(.26458)" font-family="Sans" font-size="14.667px" text-align="center" style="font-variant-caps:normal;font-variant-east-asian:normal;font-variant-ligatures:normal;font-variant-numeric:normal;shape-inside:url(#rect248);white-space:pre" xml:space="preserve"/><text x="202.63574" y="142.77148" font-family="Arial" font-size="3.8806px" stroke-opacity=".5" stroke-width="18.521" text-align="center" text-anchor="middle" style="font-variant-caps:normal;font-variant-east-asian:normal;font-variant-ligatures:normal;font-variant-numeric:normal" xml:space="preserve"><tspan x="202.63574" y="142.77148" stroke-width="18.521"/></text><text x="90.746605" y="49.886875" font-family="Arial" font-size="3.8806px" stroke-opacity=".5" stroke-width="18.521" text-align="center" text-anchor="middle" style="font-variant-caps:normal;font-variant-east-asian:normal;font-variant-ligatures:normal;font-variant-numeric:normal" xml:space="preserve"><tspan x="90.746605" y="49.886875" stroke-width="18.521"/></text></g><g transform="translate(-10.054 -1.0583)" fill="#162d50"><path d="m116.78 18.587-5.8107 5.8107-0.63617-0.63617-0.45494 2.2739 2.2739-0.45493-0.64056-0.64056 5.8107-5.8107z"/><path d="m161.54 18.615 5.8107 5.8107 0.63617-0.63617 0.45494 2.2739-2.2739-0.45493 0.64056-0.64056-5.8107-5.8107z"/></g><g transform="translate(-10.334 -2.6033)" fill="#162d50"><path d="m54.339 40.872-5.8107 5.8107-0.63617-0.63617-0.45494 2.2739 2.2739-0.45493-0.64056-0.64056 5.8107-5.8107z"/><path d="m99.097 40.872 5.8107 5.8107 0.63617-0.63617 0.45494 2.2739-2.2739-0.45493 0.64056-0.64056-5.8107-5.8107z"/></g><g transform="translate(-11.435 -2.9459)" fill="#162d50"><path d="m182.06 41.166-5.8107 5.8107-0.63617-0.63617-0.45494 2.2739 2.2739-0.45493-0.64056-0.64056 5.8107-5.8107z"/><path d="m226.28 41.166 5.8107 5.8107 0.63617-0.63617 0.45494 2.2739-2.2739-0.45493 0.64056-0.64056-5.8107-5.8107z"/></g><g fill="#162d50"><text x="114.1241" y="14.218739" font-family="Arial" font-size="5.2917px" font-weight="bold" stroke-width=".767" text-align="justify" style="font-variant-caps:normal;font-variant-east-asian:normal;font-variant-ligatures:normal;font-variant-numeric:normal;line-height:5.29167px" xml:space="preserve"><tspan x="114.1241" y="14.218739" font-family="Arial" font-size="5.2917px" font-weight="bold" stroke-width=".767" style="font-variant-caps:normal;font-variant-east-asian:normal;font-variant-ligatures:normal;font-variant-numeric:normal"/></text><text transform="scale(.26458)" font-family="Arial" font-size="20px" font-weight="bold" text-align="justify" style="font-variant-caps:normal;font-variant-east-asian:normal;font-variant-ligatures:normal;font-variant-numeric:normal;line-height:20px;shape-inside:url(#rect14);white-space:pre" xml:space="preserve"/><path d="m111.1 17.745h-3.2866c-3.5912 0-6.4823-2.8911-6.4823-6.4823 0-3.5912 2.8911-6.4823 6.4823-6.4823l3.2866-1e-6 34.633 1e-6h4.6788c3.5912 0 6.4823 2.8911 6.4823 6.4823 0 3.5912-2.8911 6.4823-6.4823 6.4823l-4.6788-1e-6z" fill-opacity=".15"/></g><path d="m111.1 17.745h-3.2866c-3.5912 0-6.4823-2.8911-6.4823-6.4823 0-3.5912 2.8911-6.4823 6.4823-6.4823l3.2866-1e-6" fill="none" stroke="#162d50" stroke-width=".767"/><path d="m145.73 4.7806h4.6788c3.5912 0 6.4823 2.8911 6.4823 6.4823 0 3.5912-2.8911 6.4823-6.4823 6.4823l-4.6788-1e-6" fill="none" stroke="#162d50" stroke-width=".767"/><g transform="translate(34.149 -37.302)" fill="#162d50" stroke="#162d50" stroke-width=".767"><path d="m94.854 55.047-19.831 1e-6"/><path d="m75.023 42.083 19.831 1e-6"/></g><g transform="translate(52.67 -37.302)" fill="none" stroke="#162d50" stroke-width=".767"><path d="m94.854 55.047-19.831 1e-6"/><path d="m75.023 42.083 19.831 1e-6"/></g><text transform="matrix(.26458 0 0 .26458 72.14 3.034)" fill="#000000" font-family="Arial" font-size="20px" font-weight="bold" stroke-width="2.8989" text-align="justify" style="font-variant-caps:normal;font-variant-east-asian:normal;font-variant-ligatures:normal;font-variant-numeric:normal;line-height:20px;shape-inside:url(#rect15);white-space:pre" xml:space="preserve"><tspan x="119.50195" y="38.142042">Reaction conditions</tspan></text><text transform="matrix(.26458 0 0 .26458 -7.6076 17.306)" fill="#000000" font-family="Arial" font-size="20px" font-weight="bold" stroke-width="2.8989" text-align="justify" style="font-variant-caps:normal;font-variant-east-asian:normal;font-variant-ligatures:normal;font-variant-numeric:normal;line-height:20px;shape-inside:url(#rect16);white-space:pre" xml:space="preserve"><tspan x="138.59375" y="62.18501">Well-mixed reaction solutions</tspan></text><path d="m36.995 38.378h-3.2866c-3.5912 0-6.4823-2.8911-6.4823-6.4823s2.8911-6.4823 6.4823-6.4823l3.2866-1e-6 57.387 1e-6h4.6788c3.5912 0 6.4823 2.8911 6.4823 6.4823s-2.8911 6.4823-6.4823 6.4823l-4.6788-1e-6z" fill="#162d50" fill-opacity=".15"/><g stroke="#162d50" stroke-width=".767"><path d="m36.995 38.378h-3.2866c-3.5912 0-6.4823-2.8911-6.4823-6.4823s2.8911-6.4823 6.4823-6.4823l3.2866-1e-6" fill="none"/><path d="m94.381 25.414h4.6788c3.5912 0 6.4823 2.8911 6.4823 6.4823s-2.8911 6.4823-6.4823 6.4823l-4.6788-1e-6" fill="none"/><g transform="translate(-38.365 -16.669)" fill="#162d50"><path d="m94.854 55.047-19.831 1e-6"/><path d="m75.023 42.083 19.831 1e-6"/></g></g><g transform="translate(-11.906 -16.669)" fill="none" stroke="#162d50" stroke-width=".767"><path d="m94.854 55.047-19.831 1e-6"/><path d="m75.023 42.083 19.831 1e-6"/></g><g transform="translate(4.4979 -16.669)" fill="none" stroke="#162d50" stroke-width=".767"><path d="m94.854 55.047-19.831 1e-6"/><path d="m75.023 42.083 19.831 1e-6"/></g><g transform="translate(-25.665 -16.669)" fill="none" stroke="#162d50" stroke-width=".767"><path d="m94.854 55.047-19.831 1e-6"/><path d="m75.023 42.083 19.831 1e-6"/></g><path d="m222.58 25.414h4.6788c3.5912 0 6.4823 2.8911 6.4823 6.4823s-2.8911 6.4823-6.4823 6.4823l-4.6788-1e-6 -61.091 2e-6h-3.2866c-3.5912 0-6.4823-2.8911-6.4823-6.4823s2.8911-6.4823 6.4823-6.4823l3.2866-1e-6z" fill="#162d50" fill-opacity=".15"/><path d="m161.49 38.378h-3.2866c-3.5912 0-6.4823-2.8911-6.4823-6.4823s2.8911-6.4823 6.4823-6.4823l3.2866-1e-6" fill="none" stroke="#162d50" stroke-width=".767"/><path d="m222.58 25.414h4.6788c3.5912 0 6.4823 2.8911 6.4823 6.4823s-2.8911 6.4823-6.4823 6.4823l-4.6788-1e-6" fill="none" stroke="#162d50" stroke-width=".767"/><g transform="translate(84.018 -16.669)" fill="none" stroke="#162d50" stroke-width=".767"><path d="m94.854 55.047-19.831 1e-6"/><path d="m75.023 42.083 19.831 1e-6"/></g><g transform="translate(110.48 -16.669)" fill="none" stroke="#162d50" stroke-width=".767"><path d="m94.854 55.047-19.831 1e-6"/><path d="m75.023 42.083 19.831 1e-6"/></g><g transform="translate(129 -16.669)" fill="none" stroke="#162d50" stroke-width=".767"><path d="m94.854 55.047-19.831 1e-6"/><path d="m75.023 42.083 19.831 1e-6"/></g><g transform="translate(96.718 -16.669)" fill="none" stroke="#162d50" stroke-width=".767"><path d="m94.854 55.047-19.831 1e-6"/><path d="m75.023 42.083 19.831 1e-6"/></g><text transform="matrix(.26458 0 0 .26458 2.0757 -26.407)" fill="#000000" font-family="Arial" font-size="20px" font-weight="bold" stroke-width="2.8989" text-align="justify" style="font-variant-caps:normal;font-variant-east-asian:normal;font-variant-ligatures:normal;font-variant-numeric:normal;line-height:20px;shape-inside:url(#rect17);white-space:pre" xml:space="preserve"><tspan x="571" y="227.51509">Tubular flow/contnuous reactor</tspan></text><text transform="scale(.26458)" fill="#162d50" font-family="Sans" font-size="16px" text-align="center" style="font-variant-caps:normal;font-variant-east-asian:normal;font-variant-ligatures:normal;font-variant-numeric:normal;line-height:20px;shape-inside:url(#rect33);white-space:pre" xml:space="preserve"/><g fill="#fff"><rect transform="rotate(-38.538)" x="-26.978" y="97.73" width=".7349" height="1.5275" stroke-width=".4"/><rect transform="matrix(.9905 .1375 -.098115 .99518 0 0)" x="48.768" y="87.002" width=".42111" height=".9457" stroke-width=".52837"/><g stroke-width=".4"><rect transform="rotate(6.6887)" x="50.339" y="88.279" width=".13911" height=".39501"/><ellipse cx="39.762" cy="93.98" rx=".097112" ry=".17913"/><ellipse cx="39.761" cy="94.001" rx=".097112" ry=".17913"/><ellipse cx="39.761" cy="94.036" rx=".097112" ry=".17913"/><ellipse cx="39.762" cy="94.066" rx=".097112" ry=".17913"/><ellipse cx="39.762" cy="94.098" rx=".097112" ry=".17913"/><ellipse cx="39.763" cy="94.123" rx=".097112" ry=".17913"/><ellipse cx="39.764" cy="94.152" rx=".097112" ry=".17913"/><ellipse cx="39.766" cy="94.191" rx=".097112" ry=".17913"/></g></g><g fill="#162d50"><rect x="71.227" y="46.156" width="49.742" height="12.965" ry="6.4823" fill-opacity=".15" stroke="#162d50" stroke-width=".767"/><g><path d="m33.235 59.529v8.2176h-0.89968l1.2862 1.9296 1.2862-1.9296h-0.90589v-8.2176z"/><path d="m95.711 59.504v8.2176h-0.89968l1.2862 1.9296 1.2862-1.9296h-0.90588v-8.2176z"/><path d="m95.585 74.083v8.2176h-0.89967l1.2862 1.9296 1.2862-1.9296h-0.90589v-8.2176z"/><path d="m80.512 98.104-2.2739 0.45494 0.63618 0.63617-5.8107 5.8107-0.63618-0.63618-0.45492 2.2739 2.2739-0.45492-0.64056-0.64056 5.8107-5.8107 0.64055 0.64056z"/><path d="m113.3 98.104 2.2739 0.45494-0.63617 0.63617 5.8107 5.8107 0.63618-0.63618 0.45492 2.2739-2.2739-0.45492 0.64057-0.64056-5.8107-5.8107-0.64055 0.64056z"/><path d="m121.3 111.44-5.8107 5.8107-0.63617-0.63617-0.45494 2.2739 2.2739-0.45493-0.64056-0.64056 5.8107-5.8107z"/><path d="m72.515 111.44 5.8107 5.8107 0.63617-0.63617 0.45494 2.2739-2.2739-0.45493 0.64056-0.64056-5.8107-5.8107z"/></g></g><g transform="translate(-18.99 -10.332)" fill="#162d50"><path d="m97.15 142.5-5.8107 5.8107-0.63617-0.63617-0.45494 2.2739 2.2739-0.45493-0.64056-0.64056 5.8107-5.8107z"/><path d="m132.77 142.5 5.8107 5.8107 0.63617-0.63617 0.45494 2.2739-2.2739-0.45493 0.64056-0.64056-5.8107-5.8107z"/></g><g transform="translate(-20.461 -4.2721)" fill="#162d50"><path d="m98.621 168.36-5.8107 5.8107-0.63617-0.63617-0.45494 2.2739 2.2739-0.45493-0.64056-0.64056 5.8107-5.8107z"/><path d="m134.24 168.36 5.8107 5.8107 0.63617-0.63617 0.45494 2.2739-2.2739-0.45493 0.64056-0.64056-5.8107-5.8107z"/></g><g transform="translate(-19.287 -3.175)" fill="#162d50"><path d="m139.99 146.66-5.8107 5.8107-0.63617-0.63617-0.45494 2.2739 2.2739-0.45493-0.64056-0.64056 5.8107-5.8107z"/><path d="m90.526 146.66 5.8107 5.8107 0.63617-0.63617 0.45494 2.2739-2.2739-0.45493 0.64056-0.64056-5.8107-5.8107z"/></g><g><path d="m50.194 46.181h4.6788c3.5912 0 6.4823 2.8911 6.4823 6.4823s-2.8911 6.4823-6.4823 6.4823l-4.6788-1e-6 -31.457 1e-6h-3.2866c-3.5912 0-6.4823-2.8911-6.4823-6.4823s2.8911-6.4823 6.4823-6.4823l3.2866-1e-6z" fill="#162d50" fill-opacity=".15"/><path d="m18.737 59.146h-3.2866c-3.5912 0-6.4823-2.8911-6.4823-6.4823s2.8911-6.4823 6.4823-6.4823l3.2866-1e-6" fill="none" stroke="#162d50" stroke-width=".767"/><path d="m50.194 46.181h4.6788c3.5912 0 6.4823 2.8911 6.4823 6.4823s-2.8911 6.4823-6.4823 6.4823l-4.6788-1e-6" fill="none" stroke="#162d50" stroke-width=".767"/><g transform="translate(-56.622 4.0985)" fill="none" stroke="#162d50" stroke-width=".767"><path d="m94.854 55.047-19.831 1e-6"/><path d="m75.023 42.083 19.831 1e-6"/></g><g transform="translate(-43.922 4.0985)" fill="none" stroke="#162d50" stroke-width=".767"><path d="m94.854 55.047-19.831 1e-6"/><path d="m75.023 42.083 19.831 1e-6"/></g></g><g fill="#000000" font-family="Arial" stroke-width="2.8989"><text transform="matrix(.26458 0 0 .26458 .6085 -86.679)" font-size="20px" text-align="justify" style="font-variant-caps:normal;font-variant-east-asian:normal;font-variant-ligatures:normal;font-variant-numeric:normal;line-height:20px;shape-inside:url(#rect18);white-space:pre" xml:space="preserve"><tspan x="42.425781" y="531.70259">Monoliquid systems</tspan></text><text transform="matrix(.26458 0 0 .26458 60.732 -98.678)" font-size="20px" text-align="justify" style="font-variant-caps:normal;font-variant-east-asian:normal;font-variant-ligatures:normal;font-variant-numeric:normal;line-height:20px;shape-inside:url(#rect19);white-space:pre" xml:space="preserve"><tspan x="43.839844" y="576.95845">Multiphasic systems</tspan></text><g font-size="16px"><text transform="matrix(.26458 0 0 .26458 .7672 -66.128)" text-align="justify" style="font-variant-caps:normal;font-variant-east-asian:normal;font-variant-ligatures:normal;font-variant-numeric:normal;line-height:16px;shape-inside:url(#rect22);white-space:pre" xml:space="preserve"><tspan x="16.970703" y="524.35738">Monoliquid system description</tspan></text><text transform="matrix(.26458 0 0 .26458 62.893 -66.128)" text-align="justify" style="font-variant-caps:normal;font-variant-east-asian:normal;font-variant-ligatures:normal;font-variant-numeric:normal;line-height:16px;shape-inside:url(#rect22-8);white-space:pre" xml:space="preserve"><tspan x="16.970703" y="524.35738">Multiphasic system description</tspan></text><text transform="matrix(.26458 0 0 .26458 92.538 -58.484)" text-align="justify" style="font-variant-caps:normal;font-variant-east-asian:normal;font-variant-ligatures:normal;font-variant-numeric:normal;line-height:16px;shape-inside:url(#rect22-8-3);white-space:pre" xml:space="preserve"><tspan x="16.970703" y="524.35738">How many phases?!</tspan></text></g></g><rect x="71.101" y="84.691" width="49.742" height="12.965" ry="6.4823" fill="#162d50" fill-opacity=".15" stroke="#162d50" stroke-width=".767"/><g fill="#000000" stroke-width="2.8989"><g font-family="Arial"><text transform="matrix(.26458 0 0 .26458 39.356 -50.207)" font-size="16px" text-align="center" style="font-variant-caps:normal;font-variant-east-asian:normal;font-variant-ligatures:normal;font-variant-numeric:normal;line-height:16px;shape-inside:url(#rect23);white-space:pre" xml:space="preserve"><tspan x="134.40723" y="531.82368"><tspan font-size="20px">Phase description</tspan>
</tspan><tspan x="155.64551" y="547.82369">(for each phase)</tspan></text><text transform="matrix(.26458 0 0 .26458 165.93 -50.207)" font-size="16px" text-align="center" style="font-variant-caps:normal;font-variant-east-asian:normal;font-variant-ligatures:normal;font-variant-numeric:normal;line-height:16px;shape-inside:url(#rect23-7);white-space:pre" xml:space="preserve"><tspan x="134.40723" y="531.82368"><tspan font-size="20px">Phase description</tspan>
</tspan><tspan x="155.64551" y="547.82369">(for each phase)</tspan></text><text transform="matrix(.26458 0 0 .26458 33.337 -13.511)" font-size="20px" text-align="justify" style="font-variant-caps:normal;font-variant-east-asian:normal;font-variant-ligatures:normal;font-variant-numeric:normal;line-height:16px;shape-inside:url(#rect23-0);white-space:pre" xml:space="preserve"><tspan x="132.93555" y="531.82368">Temperature conditions</tspan></text></g><g font-family="Sans" font-size="13.333px"><text transform="matrix(.26458 0 0 .26458 -20.573 -7.8344)" text-align="center" style="font-variant-caps:normal;font-variant-east-asian:normal;font-variant-ligatures:normal;font-variant-numeric:normal;line-height:19.2px;shape-inside:url(#rect28);white-space:pre" xml:space="preserve"><tspan x="321.41797" y="446.05504"><tspan font-family="Arial" font-size="16px">Liquid</tspan></tspan></text><text transform="matrix(.26458 0 0 .26458 -21.701 -9.0974)" text-align="center" style="font-variant-caps:normal;font-variant-east-asian:normal;font-variant-ligatures:normal;font-variant-numeric:normal;line-height:19.2px;shape-inside:url(#rect29);white-space:pre" xml:space="preserve"><tspan x="427.1582" y="452.41832"><tspan font-family="Arial" font-size="16px">Solid</tspan></tspan></text><text transform="matrix(.26458 0 0 .26458 -23.963 -8.2678)" text-align="center" style="font-variant-caps:normal;font-variant-east-asian:normal;font-variant-ligatures:normal;font-variant-numeric:normal;line-height:20px;shape-inside:url(#rect30);white-space:pre" xml:space="preserve"><tspan x="544.82715" y="449.28316"><tspan font-family="Arial" font-size="16px">Gas</tspan></tspan></text></g><g><text transform="matrix(.26458 0 0 .26458 -16.205 -18.941)" font-family="Arial" font-size="20px" font-weight="bold" text-align="center" style="font-variant-caps:normal;font-variant-east-asian:normal;font-variant-ligatures:normal;font-variant-numeric:normal;line-height:12.8px;shape-inside:url(#rect31);white-space:pre" xml:space="preserve"><tspan x="293.95703" y="611.54204"><tspan font-size="16px" font-weight="normal">Constant</tspan></tspan></text><text transform="matrix(.26458 0 0 .26458 -26.451 -17.895)" font-family="Sans" font-size="16px" text-align="center" style="font-variant-caps:normal;font-variant-east-asian:normal;font-variant-ligatures:normal;font-variant-numeric:normal;line-height:20px;shape-inside:url(#rect32);white-space:pre" xml:space="preserve"><tspan x="534.2793" y="607.859"><tspan font-family="Arial">Event-based shift</tspan></tspan></text><text transform="matrix(.26458 0 0 .26458 -16.205 12.851)" font-family="Arial" font-size="20px" font-weight="bold" text-align="center" style="font-variant-caps:normal;font-variant-east-asian:normal;font-variant-ligatures:normal;font-variant-numeric:normal;line-height:12.8px;shape-inside:url(#rect31-4);white-space:pre" xml:space="preserve"><tspan x="293.95703" y="611.54204"><tspan font-size="16px" font-weight="normal">Constant</tspan></tspan></text><text transform="matrix(.26458 0 0 .26458 -26.451 13.897)" font-family="Sans" font-size="16px" text-align="center" style="font-variant-caps:normal;font-variant-east-asian:normal;font-variant-ligatures:normal;font-variant-numeric:normal;line-height:20px;shape-inside:url(#rect32-2);white-space:pre" xml:space="preserve"><tspan x="534.2793" y="607.859"><tspan font-family="Arial">Event-based shift</tspan></tspan></text></g></g><rect x="71.101" y="151.34" width="49.742" height="12.965" ry="6.4823" fill="#162d50" fill-opacity=".15" stroke="#162d50" stroke-width=".767"/><text transform="matrix(.26458 0 0 .26458 44.696 17.951)" fill="#000000" font-family="Arial" font-size="20px" stroke-width="2.8989" text-align="justify" style="font-variant-caps:normal;font-variant-east-asian:normal;font-variant-ligatures:normal;font-variant-numeric:normal;line-height:20px;shape-inside:url(#rect23-0-0);white-space:pre" xml:space="preserve"><tspan x="132.93555" y="533.82368">pH conditions</tspan></text><path d="m117.09 119.35h4.6788c3.5912 0 6.4823 2.8911 6.4823 6.4823 0 3.5912-2.8911 6.4823-6.4823 6.4823h-51.594c-3.5912 0-6.4823-2.8911-6.4823-6.4823 0-3.5912 2.8911-6.4823 6.4823-6.4823h3.2866z" fill="#162d50" fill-opacity=".15"/><path d="m73.462 132.31h-3.2866c-3.5912 0-6.4823-2.8911-6.4823-6.4823 0-3.5912 2.8911-6.4823 6.4823-6.4823h3.2866" fill="none" stroke="#162d50" stroke-width=".767"/><path d="m117.09 119.35h4.6788c3.5912 0 6.4823 2.8911 6.4823 6.4823 0 3.5912-2.8911 6.4823-6.4823 6.4823h-4.6788" fill="none" stroke="#162d50" stroke-width=".767"/><g transform="translate(6.569 77.268)" fill="none" stroke="#162d50" stroke-width=".767"><path d="m94.854 55.047-19.831 1e-6"/><path d="m75.023 42.083 19.831 1e-6"/></g><g transform="translate(22.973 77.268)" fill="none" stroke="#162d50" stroke-width=".767"><path d="m94.854 55.047-19.831 1e-6"/><path d="m75.023 42.083 19.831 1e-6"/></g><g transform="translate(-3.4852 77.268)" fill="none" stroke="#162d50" stroke-width=".767"><path d="m94.854 55.047-19.831 1e-6"/><path d="m75.023 42.083 19.831 1e-6"/></g><g fill="#162d50"><path d="m60.736 124.55v0.90279h-18.256v0.76688h18.256v0.90278l1.9291-1.2862z" stroke-width=".19278"/><rect transform="rotate(90)" x="125.45" y="-56.997" width=".767" height="18.256" ry="0"/><rect transform="rotate(-90)" x="-126.22" y="39.235" width=".767" height="18.256" ry="0"/></g><g transform="translate(-1.0583 -1.0583)" fill="#162d50"><rect x="34.296" y="75.142" width=".767" height="18.256" ry="0"/><rect x="34.296" y="92.604" width=".767" height="18.256" ry="0"/><rect x="34.296" y="108.25" width=".767" height="18.256" ry="0"/></g><g transform="translate(-17.013 -6.6044)" fill="#162d50"><rect x="112.6" y="118.05" width=".767" height="5.5" ry="0"/><path d="m114.27 123.55-1.2862 1.9294-1.2862-1.9294z" stroke-width=".19278"/></g><g transform="translate(-17.013 -6.3436)" fill="#162d50"><g transform="translate(-.16196)"><rect x="112.76" y="105.54" width=".767" height="5.5" ry="0"/><path d="m114.43 111.04-1.2862 1.9294-1.2862-1.9294z" stroke-width=".19278"/></g><path d="m114.27 106.38-1.2862-1.9294-1.2862 1.9294z" stroke-width=".19278"/></g><rect transform="rotate(-90)" x="-126.22" y="33.238" width=".767" height="18.256" ry="0" fill="#162d50"/><g fill="#fff"><rect transform="rotate(-38.538)" x="72.027" y="176.59" width=".7349" height="1.5275" stroke-width=".4"/><rect transform="matrix(.9905 .1375 -.098115 .99518 0 0)" x="174.83" y="69.584" width=".42111" height=".9457" stroke-width=".52837"/><g stroke-width=".4"><rect transform="rotate(6.6887)" x="176.05" y="73.537" width=".13911" height=".39501"/><ellipse cx="166.34" cy="93.98" rx=".097112" ry=".17913"/><ellipse cx="166.33" cy="94.001" rx=".097112" ry=".17913"/><ellipse cx="166.33" cy="94.036" rx=".097112" ry=".17913"/><ellipse cx="166.34" cy="94.066" rx=".097112" ry=".17913"/><ellipse cx="166.34" cy="94.098" rx=".097112" ry=".17913"/><ellipse cx="166.34" cy="94.123" rx=".097112" ry=".17913"/><ellipse cx="166.34" cy="94.152" rx=".097112" ry=".17913"/><ellipse cx="166.34" cy="94.191" rx=".097112" ry=".17913"/></g></g><g fill="#162d50"><rect x="197.8" y="46.156" width="49.742" height="12.965" ry="6.4823" fill-opacity=".15" stroke="#162d50" stroke-width=".767"/><g><path d="m159.81 59.529v8.2176h-0.89968l1.2862 1.9296 1.2862-1.9296h-0.90589v-8.2176z"/><path d="m222.28 59.504v8.2176h-0.89968l1.2862 1.9296 1.2862-1.9296h-0.90589v-8.2176z"/><path d="m222.16 74.083v8.2176h-0.89968l1.2862 1.9296 1.2862-1.9296h-0.90589v-8.2176z"/><path d="m207.09 98.104-2.2739 0.45494 0.63618 0.63617-5.8107 5.8107-0.63618-0.63618-0.45493 2.2739 2.2739-0.45492-0.64056-0.64056 5.8107-5.8107 0.64055 0.64056z"/><path d="m239.87 98.104 2.2739 0.45494-0.63617 0.63617 5.8107 5.8107 0.63618-0.63618 0.45492 2.2739-2.2739-0.45492 0.64057-0.64056-5.8107-5.8107-0.64055 0.64056z"/><path d="m247.87 111.44-5.8107 5.8107-0.63617-0.63617-0.45494 2.2739 2.2739-0.45493-0.64056-0.64056 5.8107-5.8107z"/><path d="m199.09 111.44 5.8107 5.8107 0.63617-0.63617 0.45494 2.2739-2.2739-0.45493 0.64056-0.64056-5.8107-5.8107z"/></g></g><g transform="translate(107.58 -10.332)" fill="#162d50"><path d="m97.15 142.5-5.8107 5.8107-0.63617-0.63617-0.45494 2.2739 2.2739-0.45493-0.64056-0.64056 5.8107-5.8107z"/><path d="m132.77 142.5 5.8107 5.8107 0.63617-0.63617 0.45494 2.2739-2.2739-0.45493 0.64056-0.64056-5.8107-5.8107z"/></g><g transform="translate(106.11 -4.2721)" fill="#162d50"><path d="m98.621 168.36-5.8107 5.8107-0.63617-0.63617-0.45494 2.2739 2.2739-0.45493-0.64056-0.64056 5.8107-5.8107z"/><path d="m134.24 168.36 5.8107 5.8107 0.63617-0.63617 0.45494 2.2739-2.2739-0.45493 0.64056-0.64056-5.8107-5.8107z"/></g><g transform="translate(107.29 -3.175)" fill="#162d50"><path d="m139.99 146.66-5.8107 5.8107-0.63617-0.63617-0.45494 2.2739 2.2739-0.45493-0.64056-0.64056 5.8107-5.8107z"/><path d="m90.526 146.66 5.8107 5.8107 0.63617-0.63617 0.45494 2.2739-2.2739-0.45493 0.64056-0.64056-5.8107-5.8107z"/></g><g><path d="m176.77 46.181h4.6788c3.5912 0 6.4823 2.8911 6.4823 6.4823s-2.8911 6.4823-6.4823 6.4823l-4.6788-1e-6 -31.457 1e-6h-3.2866c-3.5912 0-6.4823-2.8911-6.4823-6.4823s2.8911-6.4823 6.4823-6.4823l3.2866-1e-6z" fill="#162d50" fill-opacity=".15"/><path d="m145.31 59.146h-3.2866c-3.5912 0-6.4823-2.8911-6.4823-6.4823s2.8911-6.4823 6.4823-6.4823l3.2866-1e-6" fill="none" stroke="#162d50" stroke-width=".767"/><path d="m176.77 46.181h4.6788c3.5912 0 6.4823 2.8911 6.4823 6.4823s-2.8911 6.4823-6.4823 6.4823l-4.6788-1e-6" fill="none" stroke="#162d50" stroke-width=".767"/><g transform="translate(69.951 4.0985)" fill="none" stroke="#162d50" stroke-width=".767"><path d="m94.854 55.047-19.831 1e-6"/><path d="m75.023 42.083 19.831 1e-6"/></g><g transform="translate(82.651 4.0985)" fill="none" stroke="#162d50" stroke-width=".767"><path d="m94.854 55.047-19.831 1e-6"/><path d="m75.023 42.083 19.831 1e-6"/></g></g><g fill="#000000" stroke-width="2.8989"><g font-family="Arial"><text transform="matrix(.26458 0 0 .26458 127.18 -86.679)" font-size="20px" text-align="justify" style="font-variant-caps:normal;font-variant-east-asian:normal;font-variant-ligatures:normal;font-variant-numeric:normal;line-height:20px;shape-inside:url(#rect18-6);white-space:pre" xml:space="preserve"><tspan x="42.425781" y="531.70259">Monoliquid systems</tspan></text><text transform="matrix(.26458 0 0 .26458 187.31 -98.678)" font-size="20px" text-align="justify" style="font-variant-caps:normal;font-variant-east-asian:normal;font-variant-ligatures:normal;font-variant-numeric:normal;line-height:20px;shape-inside:url(#rect19-4);white-space:pre" xml:space="preserve"><tspan x="43.839844" y="576.95845">Multiphasic systems</tspan></text><g font-size="16px"><text transform="matrix(.26458 0 0 .26458 127.34 -66.128)" text-align="justify" style="font-variant-caps:normal;font-variant-east-asian:normal;font-variant-ligatures:normal;font-variant-numeric:normal;line-height:16px;shape-inside:url(#rect22-76);white-space:pre" xml:space="preserve"><tspan x="16.970703" y="524.35738">Monoliquid system description</tspan></text><text transform="matrix(.26458 0 0 .26458 189.47 -66.128)" text-align="justify" style="font-variant-caps:normal;font-variant-east-asian:normal;font-variant-ligatures:normal;font-variant-numeric:normal;line-height:16px;shape-inside:url(#rect22-8-1);white-space:pre" xml:space="preserve"><tspan x="16.970703" y="524.35738">Multiphasic system description</tspan></text><text transform="matrix(.26458 0 0 .26458 219.11 -58.484)" text-align="justify" style="font-variant-caps:normal;font-variant-east-asian:normal;font-variant-ligatures:normal;font-variant-numeric:normal;line-height:16px;shape-inside:url(#rect22-8-3-8);white-space:pre" xml:space="preserve"><tspan x="16.970703" y="524.35738">How many phases?!</tspan></text></g><text transform="matrix(.26458 0 0 .26458 159.91 -13.511)" font-size="20px" text-align="justify" style="font-variant-caps:normal;font-variant-east-asian:normal;font-variant-ligatures:normal;font-variant-numeric:normal;line-height:16px;shape-inside:url(#rect23-0-6);white-space:pre" xml:space="preserve"><tspan x="132.93555" y="531.82368">Temperature conditions</tspan></text></g><g font-family="Sans" font-size="13.333px"><text transform="matrix(.26458 0 0 .26458 106 -7.8344)" text-align="center" style="font-variant-caps:normal;font-variant-east-asian:normal;font-variant-ligatures:normal;font-variant-numeric:normal;line-height:19.2px;shape-inside:url(#rect28-1);white-space:pre" xml:space="preserve"><tspan x="321.41797" y="446.05504"><tspan font-family="Arial" font-size="16px">Liquid</tspan></tspan></text><text transform="matrix(.26458 0 0 .26458 104.87 -9.0974)" text-align="center" style="font-variant-caps:normal;font-variant-east-asian:normal;font-variant-ligatures:normal;font-variant-numeric:normal;line-height:19.2px;shape-inside:url(#rect29-3);white-space:pre" xml:space="preserve"><tspan x="427.1582" y="452.41832"><tspan font-family="Arial" font-size="16px">Solid</tspan></tspan></text><text transform="matrix(.26458 0 0 .26458 102.61 -8.2678)" text-align="center" style="font-variant-caps:normal;font-variant-east-asian:normal;font-variant-ligatures:normal;font-variant-numeric:normal;line-height:20px;shape-inside:url(#rect30-3);white-space:pre" xml:space="preserve"><tspan x="544.82715" y="449.28316"><tspan font-family="Arial" font-size="16px">Gas</tspan></tspan></text></g><g><text transform="matrix(.26458 0 0 .26458 110.37 -18.941)" font-family="Arial" font-size="20px" font-weight="bold" text-align="center" style="font-variant-caps:normal;font-variant-east-asian:normal;font-variant-ligatures:normal;font-variant-numeric:normal;line-height:12.8px;shape-inside:url(#rect31-42);white-space:pre" xml:space="preserve"><tspan x="293.95703" y="611.54204"><tspan font-size="16px" font-weight="normal">Constant</tspan></tspan></text><text transform="matrix(.26458 0 0 .26458 101.11 -18.412)" font-family="Sans" font-size="16px" text-align="center" style="font-variant-caps:normal;font-variant-east-asian:normal;font-variant-ligatures:normal;font-variant-numeric:normal;line-height:20px;shape-inside:url(#rect32-91);white-space:pre" xml:space="preserve"><tspan x="528.09961" y="607.859"><tspan font-family="Arial">Dynamic</tspan></tspan></text><text transform="matrix(.26458 0 0 .26458 101.11 13.38)" font-family="Sans" font-size="16px" text-align="center" style="font-variant-caps:normal;font-variant-east-asian:normal;font-variant-ligatures:normal;font-variant-numeric:normal;line-height:20px;shape-inside:url(#rect32-91-4);white-space:pre" xml:space="preserve"><tspan x="528.09961" y="607.859"><tspan font-family="Arial">Dynamic</tspan></tspan></text><text transform="matrix(.26458 0 0 .26458 110.37 12.851)" font-family="Arial" font-size="20px" font-weight="bold" text-align="center" style="font-variant-caps:normal;font-variant-east-asian:normal;font-variant-ligatures:normal;font-variant-numeric:normal;line-height:12.8px;shape-inside:url(#rect31-4-4);white-space:pre" xml:space="preserve"><tspan x="293.95703" y="611.54204"><tspan font-size="16px" font-weight="normal">Constant</tspan></tspan></text></g></g><rect x="197.67" y="151.34" width="49.742" height="12.965" ry="6.4823" fill="#162d50" fill-opacity=".15" stroke="#162d50" stroke-width=".767"/><text transform="matrix(.26458 0 0 .26458 171.27 17.951)" fill="#000000" font-family="Arial" font-size="20px" stroke-width="2.8989" text-align="justify" style="font-variant-caps:normal;font-variant-east-asian:normal;font-variant-ligatures:normal;font-variant-numeric:normal;line-height:20px;shape-inside:url(#rect23-0-0-1);white-space:pre" xml:space="preserve"><tspan x="132.93555" y="533.82368">pH conditions</tspan></text><path d="m243.66 119.35h4.6788c3.5912 0 6.4823 2.8911 6.4823 6.4823 0 3.5912-2.8911 6.4823-6.4823 6.4823h-51.594c-3.5912 0-6.4823-2.8911-6.4823-6.4823 0-3.5912 2.8911-6.4823 6.4823-6.4823h3.2866z" fill="#162d50" fill-opacity=".15"/><path d="m200.03 132.31h-3.2866c-3.5912 0-6.4823-2.8911-6.4823-6.4823 0-3.5912 2.8911-6.4823 6.4823-6.4823h3.2866" fill="none" stroke="#162d50" stroke-width=".767"/><path d="m243.66 119.35h4.6788c3.5912 0 6.4823 2.8911 6.4823 6.4823 0 3.5912-2.8911 6.4823-6.4823 6.4823h-4.6788" fill="none" stroke="#162d50" stroke-width=".767"/><g transform="translate(133.14 77.268)" fill="none" stroke="#162d50" stroke-width=".767"><path d="m94.854 55.047-19.831 1e-6"/><path d="m75.023 42.083 19.831 1e-6"/></g><g transform="translate(149.55 77.268)" fill="none" stroke="#162d50" stroke-width=".767"><path d="m94.854 55.047-19.831 1e-6"/><path d="m75.023 42.083 19.831 1e-6"/></g><g transform="translate(123.09 77.268)" fill="none" stroke="#162d50" stroke-width=".767"><path d="m94.854 55.047-19.831 1e-6"/><path d="m75.023 42.083 19.831 1e-6"/></g><g fill="#162d50"><path d="m187.31 124.55v0.90279h-18.256v0.76688h18.256v0.90278l1.9291-1.2862z" stroke-width=".19278"/><rect transform="rotate(90)" x="125.45" y="-183.57" width=".767" height="18.256" ry="0"/><rect transform="rotate(-90)" x="-126.22" y="165.81" width=".767" height="18.256" ry="0"/></g><g transform="translate(125.51 -1.0583)" fill="#162d50"><rect x="34.296" y="75.142" width=".767" height="18.256" ry="0"/><rect x="34.296" y="92.604" width=".767" height="18.256" ry="0"/><rect x="34.296" y="108.25" width=".767" height="18.256" ry="0"/></g><g transform="translate(109.56 -6.6044)" fill="#162d50"><rect x="112.6" y="118.05" width=".767" height="5.5" ry="0"/><path d="m114.27 123.55-1.2862 1.9294-1.2862-1.9294z" stroke-width=".19278"/></g><g transform="translate(109.56 -6.3436)" fill="#162d50"><g transform="translate(-.16196)"><rect x="112.76" y="105.54" width=".767" height="5.5" ry="0"/><path d="m114.43 111.04-1.2862 1.9294-1.2862-1.9294z" stroke-width=".19278"/></g><path d="m114.27 106.38-1.2862-1.9294-1.2862 1.9294z" stroke-width=".19278"/></g><rect transform="rotate(-90)" x="-126.22" y="159.81" width=".767" height="18.256" ry="0" fill="#162d50"/></g></svg>
