<?xml version="1.0" encoding="UTF-8"?>
<!-- Created with Inkscape (http://www.inkscape.org/) -->
<svg width="120mm" height="100mm" version="1.1" viewBox="0 0 120 100" xml:space="preserve" xmlns="http://www.w3.org/2000/svg"><g><rect x="-6.8792" y="-5.8208" width="135.47" height="112.45" ry="2.712" fill="#fff" stroke-width=".5"/><text transform="scale(.26458)" fill="#2c5aa0" font-family="Arial" font-size="14.667px" font-weight="bold" text-align="center" style="font-variant-caps:normal;font-variant-east-asian:normal;font-variant-ligatures:normal;font-variant-numeric:normal;shape-inside:url(#rect240);white-space:pre" xml:space="preserve"/><g fill="#214478" font-weight="bold"><text transform="scale(.26458)" font-family="Arial" font-size="14.667px" text-align="center" style="font-variant-caps:normal;font-variant-east-asian:normal;font-variant-ligatures:normal;font-variant-numeric:normal;shape-inside:url(#rect241);white-space:pre" xml:space="preserve"/><text transform="scale(.26458)" font-family="Sans" font-size="14.667px" text-align="center" style="font-variant-caps:normal;font-variant-east-asian:normal;font-variant-ligatures:normal;font-variant-numeric:normal;shape-inside:url(#rect248);white-space:pre" xml:space="preserve"/><text x="202.63574" y="142.77148" font-family="Arial" font-size="3.8806px" stroke-opacity=".5" stroke-width="18.521" text-align="center" text-anchor="middle" style="font-variant-caps:normal;font-variant-east-asian:normal;font-variant-ligatures:normal;font-variant-numeric:normal" xml:space="preserve"><tspan x="202.63574" y="142.77148" stroke-width="18.521"/></text><text x="90.746605" y="49.886875" font-family="Arial" font-size="3.8806px" stroke-opacity=".5" stroke-width="18.521" text-align="center" text-anchor="middle" style="font-variant-caps:normal;font-variant-east-asian:normal;font-variant-ligatures:normal;font-variant-numeric:normal" xml:space="preserve"><tspan x="90.746605" y="49.886875" stroke-width="18.521"/></text></g><text x="114.1241" y="14.218739" fill="#162d50" font-family="Arial" font-size="5.2917px" font-weight="bold" stroke-width=".767" text-align="justify" style="font-variant-caps:normal;font-variant-east-asian:normal;font-variant-ligatures:normal;font-variant-numeric:normal;line-height:5.29167px" xml:space="preserve"><tspan x="114.1241" y="14.218739" font-family="Arial" font-size="5.2917px" font-weight="bold" stroke-width=".767" style="font-variant-caps:normal;font-variant-east-asian:normal;font-variant-ligatures:normal;font-variant-numeric:normal"/></text><text transform="scale(.26458)" fill="#162d50" font-family="Arial" font-size="20px" font-weight="bold" text-align="justify" style="font-variant-caps:normal;font-variant-east-asian:normal;font-variant-ligatures:normal;font-variant-numeric:normal;line-height:20px;shape-inside:url(#rect14);white-space:pre" xml:space="preserve"/><g transform="translate(-34.104 -14.534)"><g><path transform="translate(-20.088 14.155)" d="m112.68 17.745h-3.2866c-3.5912 0-6.4823-2.8911-6.4823-6.4823 0-3.5912 2.8911-6.4823 6.4823-6.4823l3.2866-1e-6 11.349 1e-6h4.6788c3.5912 0 6.4823 2.8911 6.4823 6.4823 0 3.5912-2.8911 6.4823-6.4823 6.4823l-4.6788-1e-6z" fill="#162d50" fill-opacity=".15"/><path transform="translate(-18.501 14.155)" d="m111.1 17.745h-3.2866c-3.5912 0-6.4823-2.8911-6.4823-6.4823 0-3.5912 2.8911-6.4823 6.4823-6.4823l3.2866-1e-6" fill="none" stroke="#162d50" stroke-width=".767"/><path transform="translate(-41.784 14.155)" d="m145.73 4.7806h4.6788c3.5912 0 6.4823 2.8911 6.4823 6.4823 0 3.5912-2.8911 6.4823-6.4823 6.4823l-4.6788-1e-6" fill="none" stroke="#162d50" stroke-width=".767"/><g transform="translate(14.061 -23.148)" fill="#162d50" stroke="#162d50" stroke-width=".767"><path d="m94.854 55.047-19.831 1e-6"/><path d="m75.023 42.083 19.831 1e-6"/></g></g><text transform="matrix(.26458 0 0 .26458 55.514 16.695)" fill="#000000" font-family="Arial" font-size="20px" font-weight="bold" stroke-width="2.8989" text-align="justify" style="font-variant-caps:normal;font-variant-east-asian:normal;font-variant-ligatures:normal;font-variant-numeric:normal;line-height:20px;shape-inside:url(#rect15);white-space:pre" xml:space="preserve"><tspan x="119.50195" y="38.142042">Sampling</tspan></text></g><g fill="#162d50"><text transform="scale(.26458)" font-family="Sans" font-size="16px" text-align="center" style="font-variant-caps:normal;font-variant-east-asian:normal;font-variant-ligatures:normal;font-variant-numeric:normal;line-height:20px;shape-inside:url(#rect33);white-space:pre" xml:space="preserve"/><path d="m64.475 17.749v8.2176h-0.89968l1.2862 1.9296 1.2862-1.9296h-0.90588v-8.2176z"/><path d="m64.475 41.448v8.2176h-0.89968l1.2862 1.9296 1.2862-1.9296h-0.90588v-8.2176z"/><path d="m64.475 56.639v8.2176h-0.89968l1.2862 1.9296 1.2862-1.9296h-0.90588v-8.2176z"/></g><g transform="translate(-38.867 -14.534)"><g><path transform="translate(-20.088 38.04)" d="m111.1 17.745h-3.2866c-3.5912 0-6.4823-2.8911-6.4823-6.4823 0-3.5912 2.8911-6.4823 6.4823-6.4823l3.2866-1e-6 24.049 1e-6h4.6788c3.5912 0 6.4823 2.8911 6.4823 6.4823 0 3.5912-2.8911 6.4823-6.4823 6.4823l-4.6788-1e-6z" fill="#162d50" fill-opacity=".15"/><path transform="translate(-20.088 38.04)" d="m111.1 17.745h-3.2866c-3.5912 0-6.4823-2.8911-6.4823-6.4823 0-3.5912 2.8911-6.4823 6.4823-6.4823l3.2866-1e-6" fill="none" stroke="#162d50" stroke-width=".767"/><path transform="translate(-30.672 38.04)" d="m145.73 4.7806h4.6788c3.5912 0 6.4823 2.8911 6.4823 6.4823 0 3.5912-2.8911 6.4823-6.4823 6.4823l-4.6788-1e-6" fill="none" stroke="#162d50" stroke-width=".767"/><g transform="translate(14.061 .73841)" fill="#162d50" stroke="#162d50" stroke-width=".767"><path d="m94.854 55.047-19.831 1e-6"/><path d="m75.023 42.083 19.831 1e-6"/></g><g transform="translate(22.528 .73841)" fill="none" stroke="#162d50" stroke-width=".767"><path d="m94.854 55.047-19.831 1e-6"/><path d="m75.023 42.083 19.831 1e-6"/></g></g><text transform="matrix(.26458 0 0 .26458 72.395 -101.98)" fill="#000000" font-family="Arial" font-size="20px" stroke-width="2.8989" text-align="justify" style="font-variant-caps:normal;font-variant-east-asian:normal;font-variant-ligatures:normal;font-variant-numeric:normal;line-height:20px;shape-inside:url(#rect19-46);white-space:pre" xml:space="preserve"><tspan x="43.839844" y="576.95845">Default sampling</tspan></text></g><text transform="matrix(.26458 0 0 .26458 -42.896 -62.832)" fill="#000000" font-family="Arial" font-size="16px" stroke-width="2.8989" text-align="center" style="font-variant-caps:normal;font-variant-east-asian:normal;font-variant-ligatures:normal;font-variant-numeric:normal;line-height:18.4321px;shape-inside:url(#rect28-00);white-space:pre" xml:space="preserve"><tspan x="333.2041" y="445.67109">Sampling description</tspan></text><text transform="matrix(.26458 0 0 .26458 -44.682 -57.749)" fill="#000000" font-family="Sans" font-size="13.333px" stroke-width="2.8989" text-align="center" style="font-variant-caps:normal;font-variant-east-asian:normal;font-variant-ligatures:normal;font-variant-numeric:normal;line-height:23.0401px;shape-inside:url(#rect29-32);white-space:pre" xml:space="preserve"><tspan x="422.90332" y="454.33837"><tspan font-family="Arial" font-size="16px">if applicable</tspan></tspan></text><g transform="translate(-64.247 62.393)"><path d="m111.1 17.745h-3.2866c-3.5912 0-6.4823-2.8911-6.4823-6.4823 0-3.5912 2.8911-6.4823 6.4823-6.4823l3.2866-1e-6 34.633 1e-6h4.6788c3.5912 0 6.4823 2.8911 6.4823 6.4823 0 3.5912-2.8911 6.4823-6.4823 6.4823l-4.6788-1e-6z" fill="#162d50" fill-opacity=".15"/><path d="m111.1 17.745h-3.2866c-3.5912 0-6.4823-2.8911-6.4823-6.4823 0-3.5912 2.8911-6.4823 6.4823-6.4823l3.2866-1e-6" fill="none" stroke="#162d50" stroke-width=".767"/><path d="m145.73 4.7806h4.6788c3.5912 0 6.4823 2.8911 6.4823 6.4823 0 3.5912-2.8911 6.4823-6.4823 6.4823l-4.6788-1e-6" fill="none" stroke="#162d50" stroke-width=".767"/><g transform="translate(34.149 -37.302)" fill="#162d50" stroke="#162d50" stroke-width=".767"><path d="m94.854 55.047-19.831 1e-6"/><path d="m75.023 42.083 19.831 1e-6"/></g><g transform="translate(52.67 -37.302)" fill="none" stroke="#162d50" stroke-width=".767"><path d="m94.854 55.047-19.831 1e-6"/><path d="m75.023 42.083 19.831 1e-6"/></g></g><text transform="matrix(.26458 0 0 .26458 28.466 -77.628)" fill="#000000" font-family="Arial" font-size="20px" stroke-width="2.8989" text-align="justify" style="font-variant-caps:normal;font-variant-east-asian:normal;font-variant-ligatures:normal;font-variant-numeric:normal;line-height:20px;shape-inside:url(#rect19-46-5);white-space:pre" xml:space="preserve"><tspan x="43.839844" y="576.95845">Specialised sampling</tspan></text><g transform="translate(-52.937 -45.09)" fill="#162d50"><rect transform="rotate(45)" x="158.52" y="20.402" width=".767" height="6.8438" ry="0"/><path d="m94.029 132.52-2.2738 0.45475 0.45475-2.2738z" stroke-width=".19278"/><path d="m98.67 127.88 0.45475-2.2738-2.2738 0.45475z" stroke-width=".19278"/></g><g transform="matrix(-1 0 0 1 182.18 -45.09)" fill="#162d50"><rect transform="rotate(45)" x="158.52" y="20.402" width=".767" height="6.8438" ry="0"/><path d="m94.029 132.52-2.2738 0.45475 0.45475-2.2738z" stroke-width=".19278"/><path d="m98.67 127.88 0.45475-2.2738-2.2738 0.45475z" stroke-width=".19278"/></g><g fill="#fff" fill-opacity=".15" stroke="#fff" stroke-width=".767"><rect x="64.4" y="62.895" width=".93544" height=".51449" ry="0"/><rect x="64.4" y="60.555" width=".93544" height=".51449" ry="0"/><rect x="64.4" y="58.215" width=".93544" height=".51449" ry="0"/></g><text transform="matrix(.26458 0 0 .26458 -80.704 -27.061)" fill="#000000" font-family="Sans" font-size="13.333px" stroke-width="2.8989" text-align="center" style="font-variant-caps:normal;font-variant-east-asian:normal;font-variant-ligatures:normal;font-variant-numeric:normal;line-height:23.0401px;shape-inside:url(#rect28-00-3);white-space:pre" xml:space="preserve"><tspan x="317.05469" y="447.97509"><tspan font-family="Arial" font-size="16px">Sampling from heterogeneous </tspan></tspan><tspan x="365.97266" y="471.59618"><tspan font-family="Arial" font-size="16px">reaction solution</tspan></tspan></text><text transform="matrix(.26458 0 0 .26458 -6.1002 -27.061)" fill="#000000" font-family="Sans" font-size="13.333px" stroke-width="2.8989" text-align="center" style="font-variant-caps:normal;font-variant-east-asian:normal;font-variant-ligatures:normal;font-variant-numeric:normal;line-height:23.0401px;shape-inside:url(#rect28-00-38);white-space:pre" xml:space="preserve"><tspan x="313.38281" y="447.97509"><tspan font-family="Arial" font-size="16px">Sample preprocessing</tspan></tspan></text></g></svg>
