<?xml version="1.0" encoding="UTF-8"?>
<!-- Created with Inkscape (http://www.inkscape.org/) -->
<svg width="47.5mm" height="54mm" version="1.1" viewBox="0 0 47.5 54" xmlns="http://www.w3.org/2000/svg">
 <rect x="-2.235" y="-4.8426" width="55.007" height="60.967" ry="2.712" fill="#fff"/>
 <g transform="translate(-85.302 -8.7727)" clip-rule="evenodd" fill-rule="evenodd" stroke-linecap="round" stroke-linejoin="round" stroke-miterlimit="1.5">
  <g transform="matrix(.083946 0 0 .083946 35.076 -48.817)">
   <path d="m879.6 694.21 271.76 156.9v313.81l-271.76 156.91-271.77-156.91v-313.81z" fill="none" stroke="#02476b" stroke-width="12.5px"/>
  </g>
  <g transform="matrix(.21095 0 0 .21095 37.951 -141.09)">
   <g transform="scale(.11534 .1162)">
    <path d="m2517 6986v461" fill="none" stroke="#000" stroke-linejoin="miter" stroke-miterlimit="2" stroke-width="18.93px"/>
   </g>
   <g transform="scale(.11534 .1162)">
    <path d="m2600 7034v365" fill="none" stroke="#000" stroke-linejoin="miter" stroke-miterlimit="2" stroke-width="18.93px"/>
   </g>
   <g transform="scale(.11534 .1162)">
    <path d="m2517 7447 399 230" fill="none" stroke="#000" stroke-linejoin="miter" stroke-miterlimit="2" stroke-width="18.93px"/>
   </g>
   <g transform="scale(.11534 .1162)">
    <path d="m2916 7677 400-230" fill="none" stroke="#000" stroke-linejoin="miter" stroke-miterlimit="2" stroke-width="18.93px"/>
   </g>
   <g transform="scale(.11534 .1162)">
    <path d="m2916 7581 317-182" fill="none" stroke="#000" stroke-linejoin="miter" stroke-miterlimit="2" stroke-width="18.93px"/>
   </g>
   <g transform="scale(.11534 .1162)">
    <path d="m3316 7447v-461" fill="none" stroke="#000" stroke-linejoin="miter" stroke-miterlimit="2" stroke-width="18.93px"/>
   </g>
   <g transform="scale(.11534 .1162)">
    <path d="m3316 6986-400-230" fill="none" stroke="#000" stroke-linejoin="miter" stroke-miterlimit="2" stroke-width="18.93px"/>
   </g>
   <g transform="scale(.11534 .1162)">
    <path d="m3233 7034-317-183" fill="none" stroke="#000" stroke-linejoin="miter" stroke-miterlimit="2" stroke-width="18.93px"/>
   </g>
   <g transform="scale(.11534 .1162)">
    <path d="m2916 6756-399 230" fill="none" stroke="#000" stroke-linejoin="miter" stroke-miterlimit="2" stroke-width="18.93px"/>
   </g>
  </g>
 </g>
</svg>
