<?xml version="1.0" encoding="UTF-8"?>
<!-- Created with Inkscape (http://www.inkscape.org/) -->
<svg width="47.5mm" height="54mm" version="1.1" viewBox="0 0 47.5 54" xmlns="http://www.w3.org/2000/svg" xmlns:xlink="http://www.w3.org/1999/xlink">
 <rect x="-2.235" y="-4.8426" width="55.007" height="60.967" ry="2.712" fill="#fff"/>
 <g>
  <g id="g212" transform="translate(-240.7 -74.15)" fill="#f95" stroke-width="0">
   <path d="m264.05 74.381-22.812 13.172a0.52472 0.52472 0 0 0-0.26367 0.45508v26.342a0.52472 0.52472 0 0 0 0.26367 0.45508l22.812 13.172a0.52472 0.52472 0 0 0 0.52539 0l22.812-13.172a0.52472 0.52472 0 0 0 0.26367-0.45508v-26.342a0.52472 0.52472 0 0 0-0.26367-0.45508l-22.812-13.172a0.52472 0.52472 0 0 0-0.52539 0zm0.26172 1.0625 22.289 12.867v25.736l-22.287 12.869-22.291-12.869v-25.736z" clip-rule="evenodd" color="#000000" fill="#f95" fill-rule="evenodd" stroke-miterlimit="1.5" stroke-width="0"/>
  </g>
  <g id="g143" transform="translate(-242.96 -139.42)">
   <g>
    <g>
     <path d="m257.22 153.98c-1.623 0.30723-2.8133 1.3519-2.8133 2.6034v19.164c0 1.4942 1.6943 2.697 3.799 2.697h12.997c2.1048 0 3.799-1.2028 3.799-2.697v-19.164c0-1.2518-1.1908-2.2965-2.8144-2.6034 0.22737 0.28413 0.36993 0.63485 0.36993 0.87674 0 0.24058-0.14157 0.3244-0.3666 0.34911 0.79564 0.41917 1.3114 1.0897 1.3114 1.8502v18.219c0 1.2766-1.448 2.3046-3.2463 2.3046h-11.105c-1.7982 0-3.2452-1.028-3.2452-2.3046v-18.219c0-0.76052 0.51583-1.431 1.3114-1.8502-0.22538-0.0264-0.3666-0.10824-0.3666-0.34911 0-0.24189 0.14157-0.59265 0.36881-0.87674z" clip-rule="evenodd" fill-rule="evenodd" image-rendering="optimizeQuality" shape-rendering="geometricPrecision"/>
     <rect x="264.17" y="160.79" width="8.401" height="1.2651" ry=".63256" clip-rule="evenodd" fill-rule="evenodd" image-rendering="optimizeQuality" shape-rendering="geometricPrecision"/>
     <rect x="256.79" y="163.2" width="15.784" height="1.2651" ry=".63256" clip-rule="evenodd" fill-rule="evenodd" image-rendering="optimizeQuality" shape-rendering="geometricPrecision"/>
     <rect x="256.79" y="165.62" width="15.784" height="1.2651" ry=".63256" clip-rule="evenodd" fill-rule="evenodd" image-rendering="optimizeQuality" shape-rendering="geometricPrecision"/>
     <rect x="256.79" y="168.03" width="15.784" height="1.2651" ry=".63256" clip-rule="evenodd" fill-rule="evenodd" image-rendering="optimizeQuality" shape-rendering="geometricPrecision"/>
     <rect x="256.79" y="170.45" width="15.784" height="1.2651" ry=".63256" clip-rule="evenodd" fill-rule="evenodd" image-rendering="optimizeQuality" shape-rendering="geometricPrecision"/>
     <rect x="256.79" y="172.86" width="15.784" height="1.2651" ry=".63256" clip-rule="evenodd" fill-rule="evenodd" image-rendering="optimizeQuality" shape-rendering="geometricPrecision"/>
     <path d="m257.92 157.9c-0.47413 0-0.85603 0.3819-0.85603 0.85602v2.4453c0 0.47412 0.3819 0.85518 0.85603 0.85518h4.3728c0.34711 0 0.62637-0.38106 0.62637-0.85518v-2.4453c0-0.47412-0.27926-0.85602-0.62637-0.85602h-3.313z" clip-rule="evenodd" fill-rule="evenodd" image-rendering="optimizeQuality" shape-rendering="geometricPrecision"/>
    </g>
    <path d="m264.68 152.25a1.9551 1.388 0 0 0-1.9523 1.3545h-3.6273c-0.5548 0-1.0012 0.74022-1.0012 1.1341s0.44643 0.28743 1.0012 0.28743h5.5738a1.9551 1.388 0 0 0 6e-3 3.3e-4 1.9551 1.388 0 0 0 0.0165-3.3e-4h5.5626c0.55478 0 1.0016 0.10626 1.0016-0.28743 0-0.39386-0.44687-1.1341-1.0016-1.1341h-3.6248a1.9551 1.388 0 0 0-1.9535-1.3545zm0 0.41418a1.372 0.97403 0 0 1 1.3676 0.94028h-2.7356a1.372 0.97403 0 0 1 1.368-0.94028z" clip-rule="evenodd" fill-rule="evenodd" image-rendering="optimizeQuality" shape-rendering="geometricPrecision" stroke-linejoin="round" stroke-opacity=".5" stroke-width="67.582"/>
   </g>
   <rect x="266.27" y="165.34" width="11.646" height="14.593" fill="#fff" stroke="#fff" stroke-width=".767"/>
   <g transform="matrix(.029972 0 0 .029972 264.78 165.31)">
    <g>
     <g>
      <circle cx="151.27" cy="407.27" r="11.636"/>
     </g>
    </g>
    <g>
     <g>
      <circle cx="244.36" cy="372.36" r="11.636"/>
     </g>
    </g>
    <g>
     <g>
      <circle cx="290.91" cy="418.91" r="11.636"/>
     </g>
    </g>
    <g>
     <g>
      <circle cx="221.09" cy="453.82" r="11.636"/>
     </g>
    </g>
    <g>
     <g>
      <circle cx="372.36" cy="430.55" r="11.636"/>
     </g>
    </g>
    <g>
     <g>
      <path d="m456.14 436.36-79.127-124.51c0-2.327-2.327-4.655-3.491-5.818l-34.909-55.855c-8.146-13.964-12.8-29.091-12.8-44.218v-138.47c13.964-4.655 23.273-17.455 23.273-32.582 0-19.782-15.127-34.909-34.909-34.909h-116.36c-19.782 0-34.909 15.127-34.909 34.909s15.127 34.909 34.909 34.909h69.818c6.982 0 11.636-4.655 11.636-11.636s-4.655-11.636-11.636-11.636h-69.818c-6.982 0-11.636-4.655-11.636-11.636 0-6.982 4.655-11.636 11.636-11.636h116.36c6.982 0 11.636 4.655 11.636 11.636 0 6.982-4.655 11.636-11.636 11.636s-11.636 4.655-11.636 11.636v147.78c0 19.782 5.818 39.564 16.291 55.855l19.782 31.418c-30.255-5.818-64-2.327-88.436 10.473-23.273 11.636-60.509 13.964-87.273 4.655l30.255-46.545c10.473-16.291 16.291-36.073 16.291-55.855v-101.24c0-6.982-4.655-11.636-11.636-11.636s-11.636 4.655-11.636 11.636v101.24c0 15.127-4.655 30.255-12.8 43.055l-34.909 55.855-3.491 3.491c0 1.164 0 1.164-1.164 2.327l-77.965 125.67c-5.818 9.309-9.309 19.782-9.309 31.418v9.309c0 19.782 15.127 34.909 34.909 34.909h349.09c19.782 0 34.909-15.127 34.909-34.909v-9.309c0-11.637-3.491-22.109-9.31-31.418zm-12.8 40.727h-1.164c0 6.982-4.655 11.636-11.636 11.636h-349.09c-6.982 0-11.636-4.655-11.636-11.636v-9.309c0-6.982 2.327-12.8 5.818-18.618l75.636-119.86c15.127 5.818 32.582 8.145 50.036 8.145 22.109 0 43.055-4.655 60.509-12.8 25.6-12.8 68.655-13.964 96.582-1.164l79.127 125.67c3.491 5.818 5.818 11.636 5.818 18.618z"/>
     </g>
    </g>
   </g>
  </g>
  <use xlink:href="#g212"/>
  <use transform="translate(-4.3e-7 6.8023e-5)" xlink:href="#g143"/>
 </g>
</svg>
