<?xml version="1.0" encoding="UTF-8"?>
<!-- Created with Inkscape (http://www.inkscape.org/) -->
<svg width="820" height="450" version="1.0" xmlns="http://www.w3.org/2000/svg" xmlns:cc="http://creativecommons.org/ns#" xmlns:dc="http://purl.org/dc/elements/1.1/" xmlns:rdf="http://www.w3.org/1999/02/22-rdf-syntax-ns#" xmlns:xlink="http://www.w3.org/1999/xlink">
 <defs>
  <linearGradient id="linearGradient12">
   <stop stop-color="#666" offset="0"/>
   <stop stop-color="#292929" offset="1"/>
  </linearGradient>
  <linearGradient id="linearGradient6695" x1="366.28" x2="366.28" y1="362.99" y2="222.52" gradientTransform="matrix(1.1247 0 0 1.0819 323.77 -12.393)" gradientUnits="userSpaceOnUse" xlink:href="#linearGradient6645"/>
  <linearGradient id="linearGradient6645">
   <stop stop-color="#52b1ff" offset="0"/>
   <stop stop-color="#aaebff" offset="1"/>
  </linearGradient>
  <linearGradient id="linearGradient13" x1="718.74" x2="738.31" y1="123.62" y2="123.62" gradientTransform="translate(10)" gradientUnits="userSpaceOnUse" xlink:href="#linearGradient12"/>
  <linearGradient id="linearGradient21" x1="718.74" x2="738.31" y1="123.62" y2="123.62" gradientTransform="translate(290.42)" gradientUnits="userSpaceOnUse" xlink:href="#linearGradient12"/>
  <linearGradient id="linearGradient22" x1="366.28" x2="366.28" y1="362.99" y2="222.52" gradientTransform="matrix(1.1247 0 0 1.0819 604.19 -12.393)" gradientUnits="userSpaceOnUse" xlink:href="#linearGradient6645"/>
  <linearGradient id="linearGradient30" x1="718.74" x2="738.31" y1="123.62" y2="123.62" gradientTransform="translate(570.84)" gradientUnits="userSpaceOnUse" xlink:href="#linearGradient12"/>
  <linearGradient id="linearGradient31" x1="366.28" x2="366.28" y1="362.99" y2="222.52" gradientTransform="matrix(1.1247 0 0 1.0819 884.61 -12.393)" gradientUnits="userSpaceOnUse" xlink:href="#linearGradient6645"/>
 </defs>
 <metadata>
  <rdf:RDF>
   <cc:Work rdf:about="">
    <dc:format>image/svg+xml</dc:format>
    <dc:type rdf:resource="http://purl.org/dc/dcmitype/StillImage"/>
   </cc:Work>
  </rdf:RDF>
 </metadata>
 <g transform="translate(-619.56 -82.349)">
  <rect x="588.45" y="42.751" width="890.95" height="520.43" ry="10.25" fill="#fff" stroke-width="1.8898"/>
  <g>
   <path d="m816.73 228.35h-162.06c-0.11124 27.701 0.13972 55.4 0.0351 83.101 0.52404 8.245-1.145 16.779 0.94897 24.815 4.6628 18.082 21.169 30.919 38.697 37.155 28.13 9.9037 60.703 9.24 88.149-2.6371 16.421-7.0528 31.03-20.617 34.233-38.204 0.09-34.742 0.32548-69.492 0-104.23z" fill="url(#linearGradient6695)" opacity=".8"/>
   <path d="m731.67 119.76v221.38l-35.875-11.469v24.812l35.875-11.469v12.562h7.125v-12.531l35.844 11.438v-24.812l-35.844 11.438v-221.34h-3.5625z" fill="#666" stroke="#4d4d4d" stroke-width=".739"/>
   <g transform="translate(-141,17.5)" stroke="#000">
    <path d="m876.19 155.06c-7.5853 0-14.445 1.4002-19.438 3.6562-2.4965 1.128-4.5236 2.4583-5.9375 3.9688s-2.2188 3.1913-2.2188 4.9688c-0.0369 1.6228 0.61493 3.0946 1.6875 4.375s2.578 2.3889 4.2812 3.3438c3.4065 1.9098 7.6305 3.1898 10.938 3.9062l0.0937-0.46875c-3.2734-0.70913-7.4721-1.971-10.812-3.8438-1.6702-0.93636-3.1053-2.0328-4.125-3.25s-1.6277-2.5699-1.5938-4.0625c0-1.637 0.7382-3.2081 2.0938-4.6562s3.3257-2.7654 5.7812-3.875c4.9112-2.2191 11.722-3.5938 19.25-3.5938s14.339 1.3746 19.25 3.5938c2.4556 1.1096 4.457 2.4269 5.8125 3.875s2.0938 3.0193 2.0938 4.6562c0.0245 1.7135-0.6009 3.18-1.625 4.4375s-2.456 2.3024-4.125 3.1875c-3.338 1.7702-7.525 2.84-10.781 3.5312l0.0937 0.46875c3.2729-0.69478 7.4946-1.7845 10.906-3.5938 1.7058-0.90463 3.2013-1.9864 4.2812-3.3125s1.7449-2.891 1.7188-4.7188c0-1.7775-0.80482-3.4583-2.2188-4.9688s-3.441-2.8407-5.9375-3.9688c-4.9929-2.2561-11.883-3.6562-19.469-3.6562z" color="#000000" stroke-width=".47" style="text-decoration-line:none;text-indent:0;text-transform:none"/>
    <path d="m861.08 175.95 5.0808 3.226-5.9604 0.83413c1.1416-1.0075 1.4918-2.6484 0.87956-4.0602z" fill-rule="evenodd" stroke-linejoin="round" stroke-width=".625"/>
   </g>
   <g fill="#b3b3b3" stroke="#666">
    <path d="m762.85 148.24c-6.8633 0.0415-13.75 0.40922-20.52 0.12129-13.801 0.0138-27.602-0.0274-41.403 0.0202-22.478 0.10364-44.699 14.345-51.976 35.945-4.4298 12.51-2.7918 25.919-2.8707 38.997-0.16099 36.242 4e-3 72.497 0.0607 108.74 1.1786 7.3879 3.9384 14.274 7.8237 20.459 31.672 50.267 128.31 51.272 161.87 1.7386 2.6223-3.7768 4.8178-7.8739 6.4692-12.292 2.763-6.5618 3.6772-14.296 3.1814-21.424-0.48899-87.443-0.01-8.9391-0.4117-122.74-1.2533-20.981-16.497-39.693-36.288-46.134-8.3528-3.0182-17.113-3.4901-25.938-3.4368zm-24.745 8.5313c11.909-0.0293 23.822-1.9e-4 35.722 0.26281 18.839 1.2158 36.927 14.497 41.444 33.276 2.8627 12.108 0.92903 24.75 1.496 37.097-0.0811 34.526 0.16204 69.082-0.1213 103.59-3.207 18.302-17.829 32.406-34.267 39.745-27.475 12.36-60.065 13.036-88.224 2.7292-17.546-6.4897-34.067-19.816-38.735-38.633-2.0962-8.3637-0.62258-16.549-0.97039-25.837 0.13459-37.06-0.28093-74.139 0.18195-111.19 1.1746-18.285 15.261-34.361 32.811-38.937 4.8636-1.4045 9.8876-2.0554 14.94-2.0621 11.906 0.0767 23.813-0.0111 35.722-0.0404z" stroke-width=".64692"/>
    <rect x="727.58" y="143.25" width="3.3588" height="19.18" ry="1.6794" stroke-width=".739"/>
    <rect x="739.53" y="143.25" width="3.3588" height="19.18" ry="1.6794" stroke-width=".739"/>
   </g>
   <rect x="722.49" y="107.79" width="25.456" height="31.643" ry="8.6621" fill="url(#linearGradient13)" stroke="#4d4d4d" stroke-width=".739"/>
  </g>
  <path d="m1097.1 228.35h-162.06c-0.11124 27.701 0.13972 55.4 0.0351 83.101 0.52404 8.245-1.145 16.779 0.94897 24.815 4.6628 18.082 21.169 30.919 38.697 37.155 28.13 9.9037 60.703 9.24 88.149-2.6371 16.421-7.0528 31.03-20.617 34.233-38.204 0.09-34.742 0.3255-69.492 0-104.23z" fill="url(#linearGradient22)" opacity=".8"/>
  <g transform="translate(139.42 17.5)" stroke="#000">
   <path d="m876.19 155.06c-7.5853 0-14.445 1.4002-19.438 3.6562-2.4965 1.128-4.5236 2.4583-5.9375 3.9688s-2.2188 3.1913-2.2188 4.9688c-0.0369 1.6228 0.61493 3.0946 1.6875 4.375s2.578 2.3889 4.2812 3.3438c3.4065 1.9098 7.6305 3.1898 10.938 3.9062l0.0937-0.46875c-3.2734-0.70913-7.4721-1.971-10.812-3.8438-1.6702-0.93636-3.1053-2.0328-4.125-3.25s-1.6277-2.5699-1.5938-4.0625c0-1.637 0.7382-3.2081 2.0938-4.6562s3.3257-2.7654 5.7812-3.875c4.9112-2.2191 11.722-3.5938 19.25-3.5938s14.339 1.3746 19.25 3.5938c2.4556 1.1096 4.457 2.4269 5.8125 3.875s2.0938 3.0193 2.0938 4.6562c0.0245 1.7135-0.6009 3.18-1.625 4.4375s-2.456 2.3024-4.125 3.1875c-3.338 1.7702-7.525 2.84-10.781 3.5312l0.0937 0.46875c3.2729-0.69478 7.4946-1.7845 10.906-3.5938 1.7058-0.90463 3.2013-1.9864 4.2812-3.3125s1.7449-2.891 1.7188-4.7188c0-1.7775-0.80482-3.4583-2.2188-4.9688s-3.441-2.8407-5.9375-3.9688c-4.9929-2.2561-11.883-3.6562-19.469-3.6562z" color="#000000" stroke-width=".47" style="text-decoration-line:none;text-indent:0;text-transform:none"/>
   <path d="m861.08 175.95 5.0808 3.226-5.9604 0.83413c1.1416-1.0075 1.4918-2.6484 0.87956-4.0602z" fill-rule="evenodd" stroke-linejoin="round" stroke-width=".625"/>
  </g>
  <path d="m967.57 107.48v134.31h-4.0274l6.1484 10.369 6.1484-10.369h-4.0274v-134.31z"/>
  <g stroke-width=".739">
   <text x="946.25269" y="101.84924" fill="#000000" font-family="Arial" font-size="20px" font-weight="bold" style="font-variant-caps:normal;font-variant-east-asian:normal;font-variant-ligatures:normal;font-variant-numeric:normal;line-height:12px" xml:space="preserve"><tspan x="946.25269" y="101.84924">Feed</tspan></text>
   <path d="m1012.1 119.76v221.38l-35.875-11.469v24.812l35.875-11.469v12.562h7.125v-12.531l35.844 11.438v-24.812l-35.844 11.438v-221.34h-3.5625z" fill="#666" stroke="#4d4d4d"/>
   <rect x="1002.9" y="107.79" width="25.456" height="31.643" ry="8.6621" fill="url(#linearGradient21)" stroke="#4d4d4d"/>
  </g>
  <path d="m1377.6 228.35h-162.06c-0.1112 27.701 0.1397 55.4 0.035 83.101 0.524 8.245-1.145 16.779 0.949 24.815 4.6627 18.082 21.169 30.919 38.697 37.155 28.13 9.9037 60.703 9.24 88.149-2.6371 16.421-7.0528 31.03-20.617 34.233-38.204 0.09-34.742 0.3255-69.492 0-104.23z" fill="url(#linearGradient31)" opacity=".8"/>
  <g>
   <g transform="translate(419.84 17.5)" stroke="#000">
    <path d="m876.19 155.06c-7.5853 0-14.445 1.4002-19.438 3.6562-2.4965 1.128-4.5236 2.4583-5.9375 3.9688s-2.2188 3.1913-2.2188 4.9688c-0.0369 1.6228 0.61493 3.0946 1.6875 4.375s2.578 2.3889 4.2812 3.3438c3.4065 1.9098 7.6305 3.1898 10.938 3.9062l0.0937-0.46875c-3.2734-0.70913-7.4721-1.971-10.812-3.8438-1.6702-0.93636-3.1053-2.0328-4.125-3.25s-1.6277-2.5699-1.5938-4.0625c0-1.637 0.7382-3.2081 2.0938-4.6562s3.3257-2.7654 5.7812-3.875c4.9112-2.2191 11.722-3.5938 19.25-3.5938s14.339 1.3746 19.25 3.5938c2.4556 1.1096 4.457 2.4269 5.8125 3.875s2.0938 3.0193 2.0938 4.6562c0.0245 1.7135-0.6009 3.18-1.625 4.4375s-2.456 2.3024-4.125 3.1875c-3.338 1.7702-7.525 2.84-10.781 3.5312l0.0937 0.46875c3.2729-0.69478 7.4946-1.7845 10.906-3.5938 1.7058-0.90463 3.2013-1.9864 4.2812-3.3125s1.7449-2.891 1.7188-4.7188c0-1.7775-0.80482-3.4583-2.2188-4.9688s-3.441-2.8407-5.9375-3.9688c-4.9929-2.2561-11.883-3.6562-19.469-3.6562z" color="#000000" stroke-width=".47" style="text-decoration-line:none;text-indent:0;text-transform:none"/>
    <path d="m861.08 175.95 5.0808 3.226-5.9604 0.83413c1.1416-1.0075 1.4918-2.6484 0.87956-4.0602z" fill-rule="evenodd" stroke-linejoin="round" stroke-width=".625"/>
   </g>
   <path d="m1248 107.48v134.31h-4.0273l6.1484 10.369 6.1485-10.369h-4.0274v-134.31z"/>
   <path d="m1339.9 252.15v-134.31h-4.0274l6.1485-10.369 6.1484 10.369h-4.0273v134.31z"/>
  </g>
  <g stroke-width=".739">
   <text x="1226.6714" y="101.84924" fill="#000000" font-family="Arial" font-size="16px" font-weight="bold" style="font-variant-caps:normal;font-variant-east-asian:normal;font-variant-ligatures:normal;font-variant-numeric:normal;line-height:12px" xml:space="preserve"><tspan x="1226.6714" y="101.84924" font-family="Arial" font-size="20px" font-weight="bold" style="font-variant-caps:normal;font-variant-east-asian:normal;font-variant-ligatures:normal;font-variant-numeric:normal">Feed</tspan></text>
   <text x="1303.6096" y="101.84924" fill="#000000" font-family="Arial" font-size="16px" font-weight="bold" style="font-variant-caps:normal;font-variant-east-asian:normal;font-variant-ligatures:normal;font-variant-numeric:normal;line-height:12px" xml:space="preserve"><tspan x="1303.6096" y="101.84924" font-family="Arial" font-size="20px" font-weight="bold" style="font-variant-caps:normal;font-variant-east-asian:normal;font-variant-ligatures:normal;font-variant-numeric:normal">Product</tspan></text>
   <path d="m1292.5 119.76v221.38l-35.875-11.469v24.812l35.875-11.469v12.562h7.125v-12.531l35.844 11.438v-24.812l-35.844 11.438v-221.34h-3.5625z" fill="#666" stroke="#4d4d4d"/>
   <rect x="1283.3" y="107.79" width="25.456" height="31.643" ry="8.6621" fill="url(#linearGradient30)" stroke="#4d4d4d"/>
   <text transform="translate(612.9 116.35)" fill="#000000" font-family="Arial" font-size="26.667px" font-weight="bold" text-align="center" style="font-variant-caps:normal;font-variant-east-asian:normal;font-variant-ligatures:normal;font-variant-numeric:normal;line-height:25px;shape-inside:url(#rect37);white-space:pre" xml:space="preserve"><tspan x="85.707635" y="338.75776">Batch</tspan></text>
   <text transform="translate(878.15 116.35)" fill="#000000" font-family="Arial" font-size="20px" font-weight="bold" text-align="center" style="font-variant-caps:normal;font-variant-east-asian:normal;font-variant-ligatures:normal;font-variant-numeric:normal;line-height:25px;shape-inside:url(#rect37-7);white-space:pre" xml:space="preserve"><tspan x="72.215412" y="338.75776"><tspan font-size="26.667px">Fed-Batch</tspan></tspan></text>
  </g>
  <g transform="translate(91.676 10.783)">
   <text transform="translate(1057.4 105.68)" fill="#000000" font-family="Arial" font-size="20px" font-weight="bold" stroke-width=".739" text-align="center" style="font-variant-caps:normal;font-variant-east-asian:normal;font-variant-ligatures:normal;font-variant-numeric:normal;line-height:25px;shape-inside:url(#rect37-9);white-space:pre" xml:space="preserve"><tspan x="72.919503" y="338.75776"><tspan font-size="26.667px">Continuous</tspan></tspan></text>
  </g>
  <g fill="#000000" font-family="Arial" stroke-width="1.5118">
   <text transform="translate(619.56 82.349)" font-size="26.667px" font-weight="bold" text-align="center" style="line-height:33.3333px;shape-inside:url(#rect1);white-space:pre" xml:space="preserve"/>
   <g>
    <text transform="translate(598.8 32.349)" x="-220.60547" font-size="26.667px" font-weight="bold" text-align="center" style="font-variant-caps:normal;font-variant-east-asian:normal;font-variant-ligatures:normal;font-variant-numeric:normal;line-height:20px;shape-inside:url(#rect2);white-space:pre" xml:space="preserve"><tspan x="26" y="454.35346"><tspan font-size="20px" font-weight="normal" text-align="start">- All reactants are loaded 
</tspan></tspan><tspan x="26" y="476.19184"><tspan font-size="20px" font-weight="normal" text-align="start">- at the beginning of the
</tspan></tspan><tspan x="26" y="498.03022"><tspan font-size="20px" font-weight="normal" text-align="start">- reaction.</tspan></tspan></text>
    <text transform="translate(614.09 33.188)" font-size="20px" style="font-variant-caps:normal;font-variant-east-asian:normal;font-variant-ligatures:normal;font-variant-numeric:normal;line-height:20px;shape-inside:url(#rect6);white-space:pre" xml:space="preserve"><tspan x="303" y="453.51509">- Reactants are added
</tspan><tspan x="303" y="473.51509">- incrementally during
</tspan><tspan x="303" y="493.51509">- the reaction.</tspan></text>
    <text transform="translate(866.09 33.188)" font-size="20px" style="font-variant-caps:normal;font-variant-east-asian:normal;font-variant-ligatures:normal;font-variant-numeric:normal;line-height:20px;shape-inside:url(#rect6-2);white-space:pre" xml:space="preserve"><tspan x="303" y="453.51509">- Reactants are continuously
</tspan><tspan x="303" y="473.51509">- fed and products are
</tspan><tspan x="303" y="493.51509">- simultaneously removed.</tspan></text>
   </g>
  </g>
  <g fill="#fff" stroke-width="1.5118">
   <rect x="623.56" y="487.1" width="9.75" height="42" ry="4.875"/>
   <rect x="915.81" y="489.85" width="9.75" height="42" ry="4.875"/>
   <rect x="1167.1" y="488.6" width="9.75" height="42" ry="4.875"/>
  </g>
  <g fill="#b3b3b3" stroke="#666">
   <path d="m1043.3 148.24c-6.8633 0.0415-13.75 0.40922-20.52 0.12129-13.801 0.0138-27.602-0.0274-41.403 0.0202-22.478 0.10364-44.699 14.345-51.976 35.945-4.4298 12.51-2.7918 25.919-2.8707 38.997-0.16099 36.242 4e-3 72.497 0.0607 108.74 1.1786 7.3879 3.9384 14.274 7.8237 20.459 31.672 50.267 128.31 51.272 161.87 1.7386 2.6223-3.7768 4.8178-7.8739 6.4692-12.292 2.763-6.5618 3.6772-14.296 3.1814-21.424-0.489-87.443-0.01-8.9391-0.4117-122.74-1.2533-20.981-16.497-39.693-36.288-46.134-8.3528-3.0182-17.113-3.4901-25.938-3.4368zm-24.745 8.5313c11.91-0.0293 23.822-1.9e-4 35.722 0.26281 18.84 1.2158 36.927 14.497 41.444 33.276 2.8627 12.108 0.9291 24.75 1.4961 37.097-0.081 34.526 0.162 69.082-0.1213 103.59-3.2071 18.302-17.829 32.406-34.267 39.745-27.475 12.36-60.065 13.036-88.224 2.7292-17.546-6.4897-34.067-19.816-38.735-38.633-2.0962-8.3637-0.62258-16.549-0.97039-25.837 0.13459-37.06-0.28093-74.139 0.18195-111.19 1.1746-18.285 15.261-34.361 32.811-38.937 4.8636-1.4045 9.8876-2.0554 14.94-2.0621 11.906 0.0767 23.813-0.0111 35.722-0.0404z" stroke-width=".64692"/>
   <rect x="1008" y="143.25" width="3.3588" height="19.18" ry="1.6794" stroke-width=".739"/>
   <rect x="1019.9" y="143.25" width="3.3588" height="19.18" ry="1.6794" stroke-width=".739"/>
   <path d="m1323.7 148.24c-6.8633 0.0415-13.75 0.40922-20.52 0.12129-13.801 0.0138-27.602-0.0274-41.403 0.0202-22.478 0.10364-44.699 14.345-51.976 35.945-4.4298 12.51-2.7918 25.919-2.8707 38.997-0.161 36.242 0 72.497 0.061 108.74 1.1786 7.3879 3.9384 14.274 7.8238 20.459 31.672 50.267 128.31 51.272 161.87 1.7386 2.6223-3.7768 4.8178-7.8739 6.4692-12.292 2.763-6.5618 3.6772-14.296 3.1814-21.424-0.489-87.443-0.01-8.9391-0.4117-122.74-1.2533-20.981-16.497-39.693-36.288-46.134-8.3527-3.0182-17.113-3.4901-25.938-3.4368zm-24.745 8.5313c11.909-0.0293 23.822-1.9e-4 35.722 0.26281 18.84 1.2158 36.927 14.497 41.444 33.276 2.8627 12.108 0.9291 24.75 1.4961 37.097-0.081 34.526 0.162 69.082-0.1213 103.59-3.2071 18.302-17.829 32.406-34.267 39.745-27.475 12.36-60.065 13.036-88.224 2.7292-17.546-6.4897-34.067-19.816-38.734-38.633-2.0962-8.3637-0.6226-16.549-0.9704-25.837 0.1346-37.06-0.281-74.139 0.1819-111.19 1.1747-18.285 15.261-34.361 32.811-38.937 4.8635-1.4045 9.8876-2.0554 14.94-2.0621 11.906 0.0767 23.813-0.0111 35.722-0.0404z" stroke-width=".64692"/>
   <rect x="1288.4" y="143.25" width="3.3588" height="19.18" ry="1.6794" stroke-width=".739"/>
   <rect x="1300.4" y="143.25" width="3.3588" height="19.18" ry="1.6794" stroke-width=".739"/>
  </g>
 </g>
</svg>
