<?xml version="1.0" encoding="UTF-8"?>
<!-- Created with Inkscape (http://www.inkscape.org/) -->
<svg width="47.5mm" height="54mm" version="1.1" viewBox="0 0 47.5 54" xmlns="http://www.w3.org/2000/svg" xmlns:serif="http://www.serif.com/">
 <rect x="-2.235" y="-4.8426" width="55.007" height="60.967" ry="2.712" fill="#fff"/>
 <g transform="translate(-85.836 -74.619)" clip-rule="evenodd" fill-rule="evenodd" stroke-linecap="round" stroke-linejoin="round" stroke-miterlimit="1.5">
  <g transform="matrix(.083946 0 0 .083946 35.611 17.029)">
   <path d="m879.6 694.21 271.76 156.9v313.81l-271.76 156.91-271.77-156.91v-313.81z" fill="none" stroke="#eb5f73" stroke-width="12.5px"/>
  </g>
  <g>
   <g transform="matrix(.061277 0 0 .040261 31.388 23.44)">
    <g transform="matrix(1.37 0 0 2.0851 643.21 -1091.7)">
     <g>
      <path d="m474.92 1547 57.241 29.17-57.683 28.29c14.476-14.25 14.697-42.98 0.442-57.46z"/>
      <path d="m486.46 1576.1c-8.552-0.55-17.302-0.82-26.079-0.82-63.973 0-115.91 14.46-115.91 32.28 0 17.81 51.937 32.28 115.91 32.28 63.972 0 115.91-14.47 115.91-32.28 0-8.56-12.212-16.77-33.949-22.83 21.737 6.06 33.949 14.27 33.949 22.83 0 17.81-51.938 32.28-115.91 32.28-63.973 0-115.91-14.47-115.91-32.28 0-15.93 41.51-29.18 96.019-31.81" fill="none" stroke="#000" stroke-width="13.33px"/>
     </g>
    </g>
   </g>
   <g transform="matrix(.10804 0 0 .10977 63.363 56.071)">
    <g>
     <g transform="matrix(.83876 0 0 1 36.512 -318.84)" serif:id="rect1114">
      <path d="m366.8 636.66s9.109 3.722 22.053 9.004c8.211 3.351 19.461 9.199 26.121 9.14 6.493-0.058 11.409-2.499 19.228-6.004 10.557-4.732 23.316-5.883 23.316-5.883s10.24 2.743 25.667 5.73c0 0 6.841-5.045 13.534-3.877 8.443 1.475 17.76 9.138 25.21 7.963 22.511-3.551 41.323-16.073 41.323-16.073v150.16h-196.45z" fill="#adbde3"/>
     </g>
     <path d="m336.91 276.04v197.02h179.29v-196.71" fill="none" stroke="#000" stroke-width="7.73px"/>
     <path d="m336.91 276.04v197.02h179.29v-196.71" fill="none" stroke="#000" stroke-opacity=".52" stroke-width="14.26px"/>
    </g>
   </g>
  </g>
 </g>
</svg>
