<?xml version="1.0" encoding="UTF-8"?>
<!-- Created with Inkscape (http://www.inkscape.org/) -->
<svg width="47.5mm" height="54mm" version="1.1" viewBox="0 0 47.5 54" xmlns="http://www.w3.org/2000/svg">
 <rect x="-2.235" y="-4.8426" width="55.007" height="60.967" ry="2.712" fill="#fff"/>
 <g transform="translate(-85.123 -139.47)" clip-rule="evenodd" fill-rule="evenodd" stroke-linecap="round" stroke-linejoin="round" stroke-miterlimit="1.5">
  <g transform="matrix(.083946 0 0 .083946 34.898 81.884)">
   <path d="m879.6 694.21 271.76 156.9v313.81l-271.76 156.91-271.77-156.91v-313.81z" fill="none" stroke="#000" stroke-width="12.5px"/>
  </g>
  <g transform="matrix(.083946 0 0 .083946 8.1978 88.429)">
   <g transform="matrix(.61928 -.16508 .1968 .51946 494.52 603.17)">
    <path d="m762.38 983.33c-57.258 10.879-98.694 60.929-98.694 119.21 0 66.98 54.373 121.35 121.34 121.35s121.34-54.37 121.34-121.35c0-32.18-12.784-63.04-35.541-85.8l-5.716 5.72c21.241 21.24 33.174 50.05 33.174 80.08 0 62.51-50.751 113.26-113.26 113.26-62.511 0-113.26-50.75-113.26-113.26 0-54.4 38.676-101.11 92.119-111.27z" stroke="#000" stroke-width="1.32px"/>
   </g>
   <g transform="matrix(.64979 0 0 .54506 689.91 340.85)">
    <path d="m725.33 1190.8v-379.42" fill="none" stroke="#000" stroke-width="6.95px"/>
   </g>
   <g transform="matrix(.64979 0 0 .54506 761.07 340.85)">
    <path d="m725.33 1190.8v-379.42" fill="none" stroke="#000" stroke-width="6.95px"/>
   </g>
   <g transform="matrix(-.69492 0 0 -.59467 1704.2 1218.3)">
    <path d="m679.33 731.88c-0.221 1.93-0.331 3.872-0.331 5.816 0 28.255 22.94 51.195 51.195 51.195 28.256 0 51.196-22.94 51.196-51.195 0-1.944-0.111-3.886-0.332-5.816 0.221 1.93 0.332 3.872 0.332 5.816 0 28.255-22.94 51.195-51.196 51.195-28.255 0-51.195-22.94-51.195-51.195 0-1.944 0.11-3.886 0.331-5.816z" stroke="#000" stroke-width="6.44px"/>
   </g>
   <g transform="matrix(.64979 0 0 .54506 688.87 340.85)">
    <path d="m834.83 1165.7h-36.895" fill="none" stroke="#000" stroke-width="3.47px"/>
   </g>
   <g transform="matrix(.64979 0 0 .54506 688.87 332.82)">
    <path d="m834.83 1165.7h-36.895" fill="none" stroke="#000" stroke-width="3.47px"/>
   </g>
   <g transform="matrix(.64979 0 0 .54506 688.87 316.75)">
    <path d="m834.83 1165.7h-36.895" fill="none" stroke="#000" stroke-width="3.47px"/>
   </g>
   <g transform="matrix(.64979 0 0 .54506 688.87 324.79)">
    <path d="m834.83 1165.7h-36.895" fill="none" stroke="#000" stroke-width="3.47px"/>
   </g>
   <g transform="matrix(.9131 0 0 .54506 469.06 308.72)">
    <path d="m834.83 1165.7h-36.895" fill="none" stroke="#000" stroke-width="2.77px"/>
   </g>
   <g transform="matrix(.64979 0 0 .54506 688.87 300.69)">
    <path d="m834.83 1165.7h-36.895" fill="none" stroke="#000" stroke-width="3.47px"/>
   </g>
   <g transform="matrix(.64979 0 0 .54506 688.87 292.66)">
    <path d="m834.83 1165.7h-36.895" fill="none" stroke="#000" stroke-width="3.47px"/>
   </g>
   <g transform="matrix(.64979 0 0 .54506 688.87 276.6)">
    <path d="m834.83 1165.7h-36.895" fill="none" stroke="#000" stroke-width="3.47px"/>
   </g>
   <g transform="matrix(.64979 0 0 .54506 688.87 284.63)">
    <path d="m834.83 1165.7h-36.895" fill="none" stroke="#000" stroke-width="3.47px"/>
   </g>
   <g transform="matrix(.9131 0 0 .54506 469.06 268.56)">
    <path d="m834.83 1165.7h-36.895" fill="none" stroke="#000" stroke-width="2.77px"/>
   </g>
   <g transform="matrix(.64979 0 0 .54506 688.87 260.53)">
    <path d="m834.83 1165.7h-36.895" fill="none" stroke="#000" stroke-width="3.47px"/>
   </g>
   <g transform="matrix(.64979 0 0 .54506 688.87 252.5)">
    <path d="m834.83 1165.7h-36.895" fill="none" stroke="#000" stroke-width="3.47px"/>
   </g>
   <g transform="matrix(.64979 0 0 .54506 688.87 236.44)">
    <path d="m834.83 1165.7h-36.895" fill="none" stroke="#000" stroke-width="3.47px"/>
   </g>
   <g transform="matrix(.64979 0 0 .54506 688.87 244.47)">
    <path d="m834.83 1165.7h-36.895" fill="none" stroke="#000" stroke-width="3.47px"/>
   </g>
   <g transform="matrix(.9131 0 0 .54506 469.06 228.4)">
    <path d="m834.83 1165.7h-36.895" fill="none" stroke="#000" stroke-width="2.77px"/>
   </g>
   <g transform="matrix(.64979 0 0 .54506 688.87 220.37)">
    <path d="m834.83 1165.7h-36.895" fill="none" stroke="#000" stroke-width="3.47px"/>
   </g>
   <g transform="matrix(.64979 0 0 .54506 688.87 212.34)">
    <path d="m834.83 1165.7h-36.895" fill="none" stroke="#000" stroke-width="3.47px"/>
   </g>
   <g transform="matrix(.64979 0 0 .54506 688.87 196.28)">
    <path d="m834.83 1165.7h-36.895" fill="none" stroke="#000" stroke-width="3.47px"/>
   </g>
   <g transform="matrix(.64979 0 0 .54506 688.87 204.31)">
    <path d="m834.83 1165.7h-36.895" fill="none" stroke="#000" stroke-width="3.47px"/>
   </g>
   <g transform="matrix(.9131 0 0 .54506 469.06 188.24)">
    <path d="m834.83 1165.7h-36.895" fill="none" stroke="#000" stroke-width="2.77px"/>
   </g>
   <g transform="matrix(.64979 0 0 .54506 688.87 180.21)">
    <path d="m834.83 1165.7h-36.895" fill="none" stroke="#000" stroke-width="3.47px"/>
   </g>
   <g transform="matrix(.64979 0 0 .54506 688.87 172.18)">
    <path d="m834.83 1165.7h-36.895" fill="none" stroke="#000" stroke-width="3.47px"/>
   </g>
   <g transform="matrix(.64979 0 0 .54506 688.87 156.12)">
    <path d="m834.83 1165.7h-36.895" fill="none" stroke="#000" stroke-width="3.47px"/>
   </g>
   <g transform="matrix(.64979 0 0 .54506 688.87 164.15)">
    <path d="m834.83 1165.7h-36.895" fill="none" stroke="#000" stroke-width="3.47px"/>
   </g>
   <g transform="matrix(.9131 0 0 .54506 469.06 148.09)">
    <path d="m834.83 1165.7h-36.895" fill="none" stroke="#000" stroke-width="2.77px"/>
   </g>
  </g>
 </g>
</svg>
