<?xml version="1.0" encoding="UTF-8"?>
<!-- Created with Inkscape (http://www.inkscape.org/) -->
<svg width="255mm" height="120mm" version="1.1" viewBox="0 0 255 120" xml:space="preserve" xmlns="http://www.w3.org/2000/svg" xmlns:xlink="http://www.w3.org/1999/xlink"><defs><linearGradient id="linearGradient6695" x1="366.28" x2="366.28" y1="362.99" y2="222.52" gradientTransform="matrix(1.1247 0 0 1.0819 323.77 -12.393)" gradientUnits="userSpaceOnUse"><stop stop-color="#52b1ff" offset="0"/><stop stop-color="#aaebff" offset="1"/></linearGradient><linearGradient id="linearGradient13" x1="718.74" x2="738.31" y1="123.62" y2="123.62" gradientTransform="translate(10)" gradientUnits="userSpaceOnUse"><stop stop-color="#666" offset="0"/><stop stop-color="#292929" offset="1"/></linearGradient><filter id="filter12920" x="-.086332" y="-.14336" width="1.1727" height="1.2867"><feGaussianBlur stdDeviation="1.1273068"/></filter><linearGradient id="linearGradient15903" x1="330.01" x2="385.42" y1="489.89" y2="489.89" gradientUnits="userSpaceOnUse"><stop offset="0"/><stop stop-color="#3a3434" offset=".5"/><stop offset="1"/></linearGradient><linearGradient id="linearGradient15" x1="258.25" x2="265.75" y1="112.63" y2="112.63" gradientUnits="userSpaceOnUse"><stop stop-color="#ccc" offset="0"/><stop stop-color="#ccc" stop-opacity="0" offset="1"/></linearGradient></defs><g><rect x="-14.219" y="-17.212" width="281.38" height="151.54" ry="2.712" fill="#fff" stroke-width=".5"/><text transform="scale(.26458)" fill="#2c5aa0" font-family="Arial" font-size="14.667px" font-weight="bold" text-align="center" style="font-variant-caps:normal;font-variant-east-asian:normal;font-variant-ligatures:normal;font-variant-numeric:normal;shape-inside:url(#rect240);white-space:pre" xml:space="preserve"/><g fill="#214478" font-weight="bold"><text transform="scale(.26458)" font-family="Arial" font-size="14.667px" text-align="center" style="font-variant-caps:normal;font-variant-east-asian:normal;font-variant-ligatures:normal;font-variant-numeric:normal;shape-inside:url(#rect241);white-space:pre" xml:space="preserve"/><text transform="scale(.26458)" font-family="Sans" font-size="14.667px" text-align="center" style="font-variant-caps:normal;font-variant-east-asian:normal;font-variant-ligatures:normal;font-variant-numeric:normal;shape-inside:url(#rect248);white-space:pre" xml:space="preserve"/><text x="202.63574" y="142.77148" font-family="Arial" font-size="3.8806px" stroke-opacity=".5" stroke-width="18.521" text-align="center" text-anchor="middle" style="font-variant-caps:normal;font-variant-east-asian:normal;font-variant-ligatures:normal;font-variant-numeric:normal" xml:space="preserve"><tspan x="202.63574" y="142.77148" stroke-width="18.521"/></text><text x="90.746605" y="49.886875" font-family="Arial" font-size="3.8806px" stroke-opacity=".5" stroke-width="18.521" text-align="center" text-anchor="middle" style="font-variant-caps:normal;font-variant-east-asian:normal;font-variant-ligatures:normal;font-variant-numeric:normal" xml:space="preserve"><tspan x="90.746605" y="49.886875" stroke-width="18.521"/></text></g><g><g transform="matrix(.26458 0 0 .26458 -32.715 -11.797)"><path d="m816.73 228.35h-162.06c-0.11124 27.701 0.13972 55.4 0.0351 83.101 0.52404 8.245-1.145 16.779 0.94897 24.815 4.6628 18.082 21.169 30.919 38.697 37.155 28.13 9.9037 60.703 9.24 88.149-2.6371 16.421-7.0528 31.03-20.617 34.233-38.204 0.09-34.742 0.32548-69.492 0-104.23z" fill="url(#linearGradient6695)" opacity=".8"/><path d="m731.67 119.76v221.38l-35.875-11.469v24.812l35.875-11.469v12.562h7.125v-12.531l35.844 11.438v-24.812l-35.844 11.438v-221.34h-3.5625z" fill="#666" stroke="#4d4d4d" stroke-width=".739"/><g transform="translate(-141,17.5)" stroke="#000"><path d="m876.19 155.06c-7.5853 0-14.445 1.4002-19.438 3.6562-2.4965 1.128-4.5236 2.4583-5.9375 3.9688s-2.2188 3.1913-2.2188 4.9688c-0.0369 1.6228 0.61493 3.0946 1.6875 4.375s2.578 2.3889 4.2812 3.3438c3.4065 1.9098 7.6305 3.1898 10.938 3.9062l0.0937-0.46875c-3.2734-0.70913-7.4721-1.971-10.812-3.8438-1.6702-0.93636-3.1053-2.0328-4.125-3.25s-1.6277-2.5699-1.5938-4.0625c0-1.637 0.7382-3.2081 2.0938-4.6562s3.3257-2.7654 5.7812-3.875c4.9112-2.2191 11.722-3.5938 19.25-3.5938s14.339 1.3746 19.25 3.5938c2.4556 1.1096 4.457 2.4269 5.8125 3.875s2.0938 3.0193 2.0938 4.6562c0.0245 1.7135-0.6009 3.18-1.625 4.4375s-2.456 2.3024-4.125 3.1875c-3.338 1.7702-7.525 2.84-10.781 3.5312l0.0937 0.46875c3.2729-0.69478 7.4946-1.7845 10.906-3.5938 1.7058-0.90463 3.2013-1.9864 4.2812-3.3125s1.7449-2.891 1.7188-4.7188c0-1.7775-0.80482-3.4583-2.2188-4.9688s-3.441-2.8407-5.9375-3.9688c-4.9929-2.2561-11.883-3.6562-19.469-3.6562z" color="#000000" stroke-width=".47" style="text-decoration-line:none;text-indent:0;text-transform:none"/><path d="m861.08 175.95 5.0808 3.226-5.9604 0.83413c1.1416-1.0075 1.4918-2.6484 0.87956-4.0602z" fill-rule="evenodd" stroke-linejoin="round" stroke-width=".625"/></g><g fill="#b3b3b3" stroke="#666"><path d="m762.85 148.24c-6.8633 0.0415-13.75 0.40922-20.52 0.12129-13.801 0.0138-27.602-0.0274-41.403 0.0202-22.478 0.10364-44.699 14.345-51.976 35.945-4.4298 12.51-2.7918 25.919-2.8707 38.997-0.16099 36.242 4e-3 72.497 0.0607 108.74 1.1786 7.3879 3.9384 14.274 7.8237 20.459 31.672 50.267 128.31 51.272 161.87 1.7386 2.6223-3.7768 4.8178-7.8739 6.4692-12.292 2.763-6.5618 3.6772-14.296 3.1814-21.424-0.48899-87.443-0.01-8.9391-0.4117-122.74-1.2533-20.981-16.497-39.693-36.288-46.134-8.3528-3.0182-17.113-3.4901-25.938-3.4368zm-24.745 8.5313c11.909-0.0293 23.822-1.9e-4 35.722 0.26281 18.839 1.2158 36.927 14.497 41.444 33.276 2.8627 12.108 0.92903 24.75 1.496 37.097-0.0811 34.526 0.16204 69.082-0.1213 103.59-3.207 18.302-17.829 32.406-34.267 39.745-27.475 12.36-60.065 13.036-88.224 2.7292-17.546-6.4897-34.067-19.816-38.735-38.633-2.0962-8.3637-0.62258-16.549-0.97039-25.837 0.13459-37.06-0.28093-74.139 0.18195-111.19 1.1746-18.285 15.261-34.361 32.811-38.937 4.8636-1.4045 9.8876-2.0554 14.94-2.0621 11.906 0.0767 23.813-0.0111 35.722-0.0404z" stroke-width=".64692"/><rect x="727.58" y="143.25" width="3.3588" height="19.18" ry="1.6794" stroke-width=".739"/><rect x="739.53" y="143.25" width="3.3588" height="19.18" ry="1.6794" stroke-width=".739"/></g><rect x="722.49" y="107.79" width="25.456" height="31.643" ry="8.6621" fill="url(#linearGradient13)" stroke="#4d4d4d" stroke-width=".739"/></g></g><g><g transform="matrix(.52353 0 0 .52353 -217.42 -135.13)"><g transform="matrix(.26864 0 0 .26864 402.63 317.88)"><rect x="203.96" y="147.73" width="95.501" height="129.08" rx="0" ry="0" fill="#d3d7cf"/><ellipse transform="matrix(.57848 0 0 .26313 82.332 74.161)" cx="292.79" cy="279.48" rx="82.545" ry="45.159" fill="#eeeeec"/></g><ellipse transform="matrix(.079572 0 0 .028918 446.95 349.6)" cx="292.79" cy="279.48" rx="82.545" ry="45.159" fill="#d3d7cf"/><ellipse transform="matrix(.079572 0 0 .028917 446.97 345.39)" cx="292.79" cy="279.48" rx="82.545" ry="45.159" fill="#eeeeec"/><path d="m463.7 353.52-0.029 4.1575h13.125l0.029-4.143c-0.10156 0.6106-2.9513 1.2488-6.577 1.2488s-6.4029-0.6092-6.548-1.2633z" fill="#d3d7cf" opacity=".9"/><g transform="matrix(.26864 0 0 .26864 402.63 317.88)"><ellipse transform="matrix(.57848 0 0 .26313 82.332 230.55)" cx="292.79" cy="279.48" rx="82.545" ry="45.159" fill="#3465a4"/><rect x="203.96" y="199.02" width="95.501" height="105.4" rx="0" ry="0" fill="#3465a4"/><ellipse transform="matrix(.57848 0 0 .26313 82.332 125.65)" cx="292.79" cy="279.48" rx="82.545" ry="45.159" fill="#729fcf"/></g><path d="m460.62 365.17v34.015c1.0844 0.3031 2.3106 0.54863 3.6351 0.71737v-34.015c-1.3245-0.16885-2.5505-0.41476-3.6351-0.71736z" fill="#eeeeec" opacity=".8"/></g><path transform="matrix(.26694 0 0 .27375 -65.627 -91.312)" d="m336.61 498.42s7.8-2 16.74-2 19.04 2 19.04 2c4.45 0 8.04 5.23 8.04 11.74v3.75c0 6.5-3.59 11.74-8.04 11.74 0 0-8.31 2-17.25 2-8.95 0-18.53-2-18.53-2-4.46 0-8.04-5.24-8.04-11.74v-3.75c0-6.51 3.58-11.74 8.04-11.74z" color="#000000" filter="url(#filter12920)" stroke="#000" stroke-linecap="round" stroke-linejoin="round" stroke-width="3.5433"/><g transform="matrix(.29788 0 0 .29788 -77.871 -97.813)" stroke="#000" stroke-linecap="round" stroke-linejoin="round"><path d="m339.82 476.27s7.8-2 16.74-2c8.95 0 19.04 2 19.04 2 4.46 0 8.04 5.24 8.04 11.75v3.74c0 6.51-3.58 11.75-8.04 11.75 0 0-8.31 2-17.25 2s-18.53-2-18.53-2c-4.45 0-8.04-5.24-8.04-11.75v-3.74c0-6.51 3.59-11.75 8.04-11.75z" color="#000000" fill="url(#linearGradient15903)" stroke-width="3.5433"/><path d="m380.33 478.39c0 2.77-9.87 5.01-22.03 5.01s-22.03-2.24-22.03-5.01c0-2.76 9.52-4.48 21.68-4.48s22.38 1.72 22.38 4.48z" color="#000000" fill="#3a3434" stroke-width="3.4215"/></g><g stroke="#000"><rect x="22.605" y="45.13" width="1.136" height="7.2067" ry=".60514" stroke-width=".32231"/><g stroke-width=".32175"><rect x="26.179" y="45.829" width="1.1366" height="7.1782" ry=".60275"/><rect x="29.754" y="45.829" width="1.1366" height="7.1782" ry=".60275"/><rect x="33.329" y="45.3" width="1.1366" height="7.1782" ry=".60275"/></g></g></g><g><g transform="matrix(.60528 0 0 .60528 63.793 -12.825)"><rect x="257.59" y="54.63" width="8.8197" height="115.99" ry="13.016" fill="#808080" stroke-width=".23821"/><rect x="258.25" y="56.127" width="7.5" height="113" ry="12.68" fill="url(#linearGradient15)" stroke-width=".21681"/><g fill="#808080" stroke="#808080" stroke-width=".4"><rect x="260.23" y="53.18" width="3.5547" height="4.8643" ry="1.7773"/><rect x="260.23" y="167.21" width="3.5547" height="4.8643" ry="1.7773"/><rect x="254.15" y="62.677" width="15.715" height="5.0514" ry="2.5257"/><rect x="254.15" y="157.53" width="15.715" height="5.0514" ry="2.5257"/></g></g><ellipse cx="222.35" cy="24.54" rx="1.7806" ry="2.9382" fill="#808080" stroke="#808080" stroke-width=".41061"/><ellipse cx="222.35" cy="86.453" rx="1.7806" ry="2.9382" fill="#808080" stroke="#808080" stroke-width=".41061"/></g><g><g stroke="#000" stroke-width=".10607"><rect x="57.997" y="44.768" width="54.1" height="36.161" ry="1.5519" fill="#fff"/><rect x="61.792" y="47.323" width="46.698" height="31.141" ry=".73885" fill="none" opacity=".8"/><circle id="path1338" cx="64.098" cy="49.536" r="1.6971" fill="none" opacity=".8" stroke="#000" stroke-width=".21214"/></g><use transform="translate(-9.3333e-8 3.8185)" width="100%" height="100%" xlink:href="#path1338"/><use transform="translate(-9.3333e-8 7.6371)" width="100%" height="100%" xlink:href="#path1338"/><use transform="translate(-9.3333e-8 11.456)" width="100%" height="100%" xlink:href="#path1338"/><use transform="translate(-9.3333e-8 15.274)" width="100%" height="100%" xlink:href="#path1338"/><use transform="translate(-9.3333e-8 19.093)" width="100%" height="100%" xlink:href="#path1338"/><use transform="translate(-9.3333e-8 22.911)" width="100%" height="100%" xlink:href="#path1338"/><use transform="translate(-9.3333e-8 26.73)" width="100%" height="100%" xlink:href="#path1338"/><use transform="translate(3.8185)" width="100%" height="100%" xlink:href="#path1338"/><use transform="translate(3.8185 3.8185)" width="100%" height="100%" xlink:href="#path1338"/><use transform="translate(3.8185 7.6371)" width="100%" height="100%" xlink:href="#path1338"/><use transform="translate(3.8185 11.456)" width="100%" height="100%" xlink:href="#path1338"/><use transform="translate(3.8185 15.274)" width="100%" height="100%" xlink:href="#path1338"/><use transform="translate(3.8185 19.093)" width="100%" height="100%" xlink:href="#path1338"/><use transform="translate(3.8185 22.911)" width="100%" height="100%" xlink:href="#path1338"/><use transform="translate(3.8185 26.73)" width="100%" height="100%" xlink:href="#path1338"/><use transform="translate(7.637)" width="100%" height="100%" xlink:href="#path1338"/><use transform="translate(7.637 3.8185)" width="100%" height="100%" xlink:href="#path1338"/><use transform="translate(7.637 7.6371)" width="100%" height="100%" xlink:href="#path1338"/><use transform="translate(7.637 11.456)" width="100%" height="100%" xlink:href="#path1338"/><use transform="translate(7.637 15.274)" width="100%" height="100%" xlink:href="#path1338"/><use transform="translate(7.637 19.093)" width="100%" height="100%" xlink:href="#path1338"/><use transform="translate(7.637 22.911)" width="100%" height="100%" xlink:href="#path1338"/><use transform="translate(7.637 26.73)" width="100%" height="100%" xlink:href="#path1338"/><use transform="translate(11.456)" width="100%" height="100%" xlink:href="#path1338"/><use transform="translate(11.456 3.8185)" width="100%" height="100%" xlink:href="#path1338"/><use transform="translate(11.456 7.6371)" width="100%" height="100%" xlink:href="#path1338"/><use transform="translate(11.456 11.456)" width="100%" height="100%" xlink:href="#path1338"/><use transform="translate(11.456 15.274)" width="100%" height="100%" xlink:href="#path1338"/><use transform="translate(11.456 19.093)" width="100%" height="100%" xlink:href="#path1338"/><use transform="translate(11.456 22.911)" width="100%" height="100%" xlink:href="#path1338"/><use transform="translate(11.456 26.73)" width="100%" height="100%" xlink:href="#path1338"/><use transform="translate(15.274)" width="100%" height="100%" xlink:href="#path1338"/><use transform="translate(15.274 3.8185)" width="100%" height="100%" xlink:href="#path1338"/><use transform="translate(15.274 7.6371)" width="100%" height="100%" xlink:href="#path1338"/><use transform="translate(15.274 11.456)" width="100%" height="100%" xlink:href="#path1338"/><use transform="translate(15.274 15.274)" width="100%" height="100%" xlink:href="#path1338"/><use transform="translate(15.274 19.093)" width="100%" height="100%" xlink:href="#path1338"/><use transform="translate(15.274 22.911)" width="100%" height="100%" xlink:href="#path1338"/><use transform="translate(15.274 26.73)" width="100%" height="100%" xlink:href="#path1338"/><use transform="translate(19.093)" width="100%" height="100%" xlink:href="#path1338"/><use transform="translate(19.093 3.8185)" width="100%" height="100%" xlink:href="#path1338"/><use transform="translate(19.093 7.6371)" width="100%" height="100%" xlink:href="#path1338"/><use transform="translate(19.093 11.456)" width="100%" height="100%" xlink:href="#path1338"/><use transform="translate(19.093 15.274)" width="100%" height="100%" xlink:href="#path1338"/><use transform="translate(19.093 19.093)" width="100%" height="100%" xlink:href="#path1338"/><use transform="translate(19.093 22.911)" width="100%" height="100%" xlink:href="#path1338"/><use transform="translate(19.093 26.73)" width="100%" height="100%" xlink:href="#path1338"/><use transform="translate(22.911)" width="100%" height="100%" xlink:href="#path1338"/><use transform="translate(22.911 3.8185)" width="100%" height="100%" xlink:href="#path1338"/><use transform="translate(22.911 7.6371)" width="100%" height="100%" xlink:href="#path1338"/><use transform="translate(22.911 11.456)" width="100%" height="100%" xlink:href="#path1338"/><use transform="translate(22.911 15.274)" width="100%" height="100%" xlink:href="#path1338"/><use transform="translate(22.911 19.093)" width="100%" height="100%" xlink:href="#path1338"/><use transform="translate(22.911 22.911)" width="100%" height="100%" xlink:href="#path1338"/><use transform="translate(22.911 26.73)" width="100%" height="100%" xlink:href="#path1338"/><use transform="translate(26.73)" width="100%" height="100%" xlink:href="#path1338"/><use transform="translate(26.73 3.8185)" width="100%" height="100%" xlink:href="#path1338"/><use transform="translate(26.73 7.6371)" width="100%" height="100%" xlink:href="#path1338"/><use transform="translate(26.73 11.456)" width="100%" height="100%" xlink:href="#path1338"/><use transform="translate(26.73 15.274)" width="100%" height="100%" xlink:href="#path1338"/><use transform="translate(26.73 19.093)" width="100%" height="100%" xlink:href="#path1338"/><use transform="translate(26.73 22.911)" width="100%" height="100%" xlink:href="#path1338"/><use transform="translate(26.73 26.73)" width="100%" height="100%" xlink:href="#path1338"/><use transform="translate(30.548)" width="100%" height="100%" xlink:href="#path1338"/><use transform="translate(30.548 3.8185)" width="100%" height="100%" xlink:href="#path1338"/><use transform="translate(30.548 7.6371)" width="100%" height="100%" xlink:href="#path1338"/><use transform="translate(30.548 11.456)" width="100%" height="100%" xlink:href="#path1338"/><use transform="translate(30.548 15.274)" width="100%" height="100%" xlink:href="#path1338"/><use transform="translate(30.548 19.093)" width="100%" height="100%" xlink:href="#path1338"/><use transform="translate(30.548 22.911)" width="100%" height="100%" xlink:href="#path1338"/><use transform="translate(30.548 26.73)" width="100%" height="100%" xlink:href="#path1338"/><use transform="translate(34.367)" width="100%" height="100%" xlink:href="#path1338"/><use transform="translate(34.367 3.8185)" width="100%" height="100%" xlink:href="#path1338"/><use transform="translate(34.367 7.6371)" width="100%" height="100%" xlink:href="#path1338"/><use transform="translate(34.367 11.456)" width="100%" height="100%" xlink:href="#path1338"/><use transform="translate(34.367 15.274)" width="100%" height="100%" xlink:href="#path1338"/><use transform="translate(34.367 19.093)" width="100%" height="100%" xlink:href="#path1338"/><use transform="translate(34.367 22.911)" width="100%" height="100%" xlink:href="#path1338"/><use transform="translate(34.367 26.73)" width="100%" height="100%" xlink:href="#path1338"/><use transform="translate(38.185)" width="100%" height="100%" xlink:href="#path1338"/><use transform="translate(38.185 3.8185)" width="100%" height="100%" xlink:href="#path1338"/><use transform="translate(38.185 7.6371)" width="100%" height="100%" xlink:href="#path1338"/><use transform="translate(38.185 11.456)" width="100%" height="100%" xlink:href="#path1338"/><use transform="translate(38.185 15.274)" width="100%" height="100%" xlink:href="#path1338"/><use transform="translate(38.185 19.093)" width="100%" height="100%" xlink:href="#path1338"/><use transform="translate(38.185 22.911)" width="100%" height="100%" xlink:href="#path1338"/><use transform="translate(38.185 26.73)" width="100%" height="100%" xlink:href="#path1338"/><use transform="translate(42.004)" width="100%" height="100%" xlink:href="#path1338"/><use transform="translate(42.004 3.8185)" width="100%" height="100%" xlink:href="#path1338"/><use transform="translate(42.004 7.6371)" width="100%" height="100%" xlink:href="#path1338"/><use transform="translate(42.004 11.456)" width="100%" height="100%" xlink:href="#path1338"/><use transform="translate(42.004 15.274)" width="100%" height="100%" xlink:href="#path1338"/><use transform="translate(42.004 19.093)" width="100%" height="100%" xlink:href="#path1338"/><use transform="translate(42.004 22.911)" width="100%" height="100%" xlink:href="#path1338"/><use transform="translate(42.004 26.73)" width="100%" height="100%" xlink:href="#path1338"/><g font-family="Arial" stroke-width=".11226"><g font-size="2.6942px"><text x="59.829277" y="50.500725" style="line-height:1.25" xml:space="preserve"><tspan x="59.829277" y="50.500725" font-size="2.6942px" stroke-width=".11226">A</tspan></text><text x="59.713715" y="54.319252" style="line-height:1.25" xml:space="preserve"><tspan x="59.713715" y="54.319252" font-size="2.6942px" stroke-width=".11226">B</tspan></text><text x="59.713715" y="58.13781" style="line-height:1.25" xml:space="preserve"><tspan x="59.713715" y="58.13781" font-size="2.6942px" stroke-width=".11226">C</tspan></text><text x="59.713715" y="61.956337" style="line-height:1.25" xml:space="preserve"><tspan x="59.713715" y="61.956337" font-size="2.6942px" stroke-width=".11226">D</tspan></text><text x="59.713715" y="65.774857" style="line-height:1.25" xml:space="preserve"><tspan x="59.713715" y="65.774857" font-size="2.6942px" stroke-width=".11226">E</tspan></text><text x="59.713715" y="69.593361" style="line-height:1.25" xml:space="preserve"><tspan x="59.713715" y="69.593361" font-size="2.6942px" stroke-width=".11226">F</tspan></text><text x="59.489197" y="73.411903" style="line-height:1.25" xml:space="preserve"><tspan x="59.489197" y="73.411903" font-size="2.6942px" stroke-width=".11226">G</tspan></text><text x="59.713715" y="77.230476" style="line-height:1.25" xml:space="preserve"><tspan x="59.713715" y="77.230476" font-size="2.6942px" stroke-width=".11226">H</tspan></text></g><g font-size="1.7961px"><text x="67.514229" y="47.238609" style="line-height:1.25" xml:space="preserve"><tspan x="67.514229" y="47.238609" font-size="1.3471px" stroke-width=".11226">2</tspan></text><text x="63.773499" y="47.238609" style="line-height:1.25" xml:space="preserve"><tspan x="63.773499" y="47.238609" font-size="1.3471px" stroke-width=".11226">1</tspan></text><text x="71.362526" y="47.238609" style="line-height:1.25" xml:space="preserve"><tspan x="71.362526" y="47.238609" font-size="1.3471px" stroke-width=".11226">3</tspan></text><text x="75.181061" y="47.238609" style="line-height:1.25" xml:space="preserve"><tspan x="75.181061" y="47.238609" font-size="1.3471px" stroke-width=".11226">4</tspan></text><text x="79.021286" y="47.238609" style="line-height:1.25" xml:space="preserve"><tspan x="79.021286" y="47.238609" font-size="1.3471px" stroke-width=".11226">5</tspan></text><text x="82.821396" y="47.238609" style="line-height:1.25" xml:space="preserve"><tspan x="82.821396" y="47.238609" font-size="1.3471px" stroke-width=".11226">6</tspan></text><text x="86.633026" y="47.238609" style="line-height:1.25" xml:space="preserve"><tspan x="86.633026" y="47.238609" font-size="1.3471px" stroke-width=".11226">7</tspan></text><text x="90.455177" y="47.238609" style="line-height:1.25" xml:space="preserve"><tspan x="90.455177" y="47.238609" font-size="1.3471px" stroke-width=".11226">8</tspan></text><text x="94.273033" y="47.238609" style="line-height:1.25" xml:space="preserve"><tspan x="94.273033" y="47.238609" font-size="1.3471px" stroke-width=".11226">9</tspan></text><text x="97.673927" y="47.238609" style="line-height:1.25" xml:space="preserve"><tspan x="97.673927" y="47.238609" font-size="1.3471px" stroke-width=".11226">10</tspan></text><text x="101.63385" y="47.238609" style="line-height:1.25" xml:space="preserve"><tspan x="101.63385" y="47.238609" font-size="1.3471px" stroke-width=".11226">11</tspan></text><text x="105.31422" y="47.238609" style="line-height:1.25" xml:space="preserve"><tspan x="105.31422" y="47.238609" font-size="1.3471px" stroke-width=".11226">12</tspan></text></g></g><path d="m59.259 48.134v29.505l2.2037 2.1578h49.079l0.42851-0.32137v-32.994l-0.42851-0.29842h-49.079z" fill="none" stroke="#000" stroke-width=".10607"/><path transform="scale(.26458)" d="m222.88 305.03c-1.2863-0.58673-2.7682-2.2342-3.107-3.4541-0.40859-1.4714-0.37187-126.8 0.0375-128.18 0.42491-1.4308 2.2525-3.2173 3.6953-3.6121 0.88294-0.24161 22.019-0.29252 98.499-0.23725l97.375 0.0704 1.189 0.69889c0.82424 0.4845 1.4181 1.098 1.936 2l0.74702 1.3011-0.122 128.29-0.68963 1.0421c-0.3793 0.57315-1.1586 1.3524-1.7317 1.7317l-1.0421 0.68963-97.893 0.0577c-94.29 0.0556-97.93 0.0409-98.893-0.39842zm195.89-3.7218 0.97211-0.6875 5e-3 -62.55 5e-3 -62.55-1.6722-1.2754h-185.97l-8.3482 7.375-0.01 111.99 8.3695 8.3804h185.68z" fill="#808080" stroke="#808080" stroke-width=".37795"/><path transform="scale(.26458)" d="m226.19 305.36c-0.0763-0.0763-0.83345-0.14859-1.6826-0.16063-1.1324-0.0161-1.7533-0.16307-2.3299-0.55162-1.2785-0.8616-2.3146-2.4152-2.4429-3.6631-0.15407-1.4983-0.14672-122.73 8e-3 -125.73 0.0933-1.8168 0.22497-2.475 0.5625-2.8125 0.24236-0.24236 0.36696-0.44065 0.2769-0.44065-0.25287 0 0.70482-0.99414 1.5118-1.5693 0.39765-0.28343 1.0726-0.569 1.5-0.6346s44.639-0.16082 98.249-0.21159l97.472-0.0923 1.1611 0.74509c0.63862 0.40981 1.5035 1.2309 1.9221 1.8246l0.76093 1.0796 0.0546 64.337 0.0546 64.337-0.69152 0.99786c-0.38033 0.54882-1.189 1.3777-1.7971 1.842l-1.1061 0.84416h-96.672c-53.17 0-96.735-0.0624-96.811-0.13873zm192.5-4.0488 0.93533-0.6875-0.0227-62.5c-0.0125-34.375-0.0406-62.641-0.0625-62.812-0.0219-0.17187-0.25273-0.3125-0.51302-0.3125s-0.53778-0.16816-0.61665-0.37368c-0.12688-0.33065-10.861-0.37369-93.214-0.37378l-93.071-1.1e-4 -1.738 1.5613c-0.9559 0.8587-2.1628 1.955-2.6819 2.4363s-1.6193 1.4375-2.4448 2.125l-1.5009 1.25-5e-3 55.816-5e-3 55.816 1.1613 1.434c0.63872 0.78869 2.5231 2.7519 4.1875 4.3627l3.0262 2.9287 185.63 0.018z" fill="#999" stroke="#999" stroke-width=".37795"/></g><g fill="#000000" font-family="Arial" font-weight="bold" stroke-width="1.5118"><text transform="matrix(.26458 0 0 .26458 13.229 -6.8792)" font-size="33.333px" text-align="center" style="font-variant-caps:normal;font-variant-east-asian:normal;font-variant-ligatures:normal;font-variant-numeric:normal;line-height:33.3333px;shape-inside:url(#rect18);white-space:pre" xml:space="preserve"><tspan x="319.77061" y="60.858456">Reactor types</tspan></text><g font-size="26.667px"><text transform="matrix(.26458 0 0 .26458 -1.8044 -.59718)" text-align="center" style="font-variant-caps:normal;font-variant-east-asian:normal;font-variant-ligatures:normal;font-variant-numeric:normal;line-height:33.3333px;shape-inside:url(#rect19);white-space:pre" xml:space="preserve"><tspan x="93.023408" y="399.02011">Vial</tspan></text><text transform="matrix(.26458 0 0 .26458 54.107 -.59718)" text-align="center" style="font-variant-caps:normal;font-variant-east-asian:normal;font-variant-ligatures:normal;font-variant-numeric:normal;line-height:33.3333px;shape-inside:url(#rect19-1);white-space:pre" xml:space="preserve"><tspan x="84.63147" y="399.02011">Plate</tspan></text><text transform="matrix(.26458 0 0 .26458 112.87 -.51106)" text-align="center" style="font-variant-caps:normal;font-variant-east-asian:normal;font-variant-ligatures:normal;font-variant-numeric:normal;line-height:33.3333px;shape-inside:url(#rect19-4);white-space:pre" xml:space="preserve"><tspan x="110.90485" y="399.02011">Stirred tank </tspan><tspan x="139.79161" y="432.35342">reactor</tspan></text><text transform="matrix(.26458 0 0 .26458 175.12 -.51106)" text-align="center" style="font-variant-caps:normal;font-variant-east-asian:normal;font-variant-ligatures:normal;font-variant-numeric:normal;line-height:33.3333px;shape-inside:url(#rect19-9);white-space:pre" xml:space="preserve"><tspan x="73.579295" y="399.02011">Continuous/flow </tspan><tspan x="132.79161" y="432.35342">reactor</tspan></text></g></g></g></svg>
