<?xml version="1.0" encoding="UTF-8" standalone="no"?><!DOCTYPE svg PUBLIC "-//W3C//DTD SVG 1.1//EN" "http://www.w3.org/Graphics/SVG/1.1/DTD/svg11.dtd"><svg width="100%" height="100%" viewBox="0 0 1708 1525" version="1.1" xmlns="http://www.w3.org/2000/svg" xmlns:xlink="http://www.w3.org/1999/xlink" xml:space="preserve" xmlns:serif="http://www.serif.com/" style="fill-rule:evenodd;clip-rule:evenodd;"><path id="rect1114" d="M109.007,570.682c-0,0 18.746,9.717 45.387,23.509c16.899,8.75 40.053,24.02 53.76,23.866c13.362,-0.151 23.48,-6.526 39.572,-15.677c21.727,-12.357 47.987,-15.362 47.987,-15.362c-0,0 21.074,7.164 52.825,14.963c0,0 14.08,-13.174 27.854,-10.123c17.376,3.849 36.55,23.86 51.884,20.791c46.329,-9.271 85.046,-41.967 85.046,-41.967l0,392.068l-404.315,0l-0,-392.068Z" style="fill:#adbde3;"/><g id="g4886"><path id="path4810" d="M109.007,511.854l-0,450.896l404.315,0l0,-449.032" style="fill:none;fill-rule:nonzero;stroke:#000;stroke-width:10px;"/><path id="path4814" d="M315.822,413.105l0,402.452" style="fill:none;fill-rule:nonzero;stroke:#000;stroke-width:10px;"/><path id="path4842" d="M368.721,732.865l0,62.908l-27.24,-15.727l-27.24,-15.727l27.24,-15.727l27.24,-15.727Z" style="fill:#000700;fill-opacity:0.93;fill-rule:nonzero;stroke:#000;stroke-width:10px;stroke-linejoin:round;stroke-miterlimit:2;"/><path id="path4842-2" d="M259.76,732.865l0,62.908l27.241,-15.727l27.24,-15.727l-27.24,-15.727l-27.241,-15.727Z" style="fill:#000700;fill-opacity:0.93;fill-rule:nonzero;stroke:#000;stroke-width:10px;stroke-linejoin:round;stroke-miterlimit:2;"/></g><path id="rect11141" serif:id="rect1114" d="M1193.75,570.682c0,0 18.747,9.717 45.387,23.509c16.9,8.75 40.054,24.02 53.761,23.866c13.361,-0.151 23.479,-6.526 39.572,-15.677c21.726,-12.357 47.986,-15.362 47.986,-15.362c0,0 21.075,7.164 52.826,14.963c-0,0 14.079,-13.174 27.854,-10.123c17.375,3.849 36.55,23.86 51.883,20.791c46.329,-9.271 85.047,-41.967 85.047,-41.967l-0,392.068l-404.316,0l0,-392.068Z" style="fill:#adbde3;"/><g id="g48861" serif:id="g4886"><path id="path48101" serif:id="path4810" d="M1193.75,511.854l0,450.896l404.316,0l-0,-449.032" style="fill:none;fill-rule:nonzero;stroke:#000;stroke-width:10px;"/><path id="path48141" serif:id="path4814" d="M1400.56,413.105l-0,402.452" style="fill:none;fill-rule:nonzero;stroke:#000;stroke-width:10px;"/><path id="path48421" serif:id="path4842" d="M1453.46,732.865l-0,62.908l-27.24,-15.727l-27.241,-15.727l27.241,-15.727l27.24,-15.727Z" style="fill:#000700;fill-opacity:0.93;fill-rule:nonzero;stroke:#000;stroke-width:10px;stroke-linejoin:round;stroke-miterlimit:2;"/><path id="path4842-21" serif:id="path4842-2" d="M1344.5,732.865l-0,62.908l27.24,-15.727l27.24,-15.727l-27.24,-15.727l-27.24,-15.727Z" style="fill:#000700;fill-opacity:0.93;fill-rule:nonzero;stroke:#000;stroke-width:10px;stroke-linejoin:round;stroke-miterlimit:2;"/></g><g><circle cx="314.247" cy="128.924" r="88.997" style="fill:#ffe421;"/><path d="M369.344,199.325l42.896,42.896" style="fill:none;stroke:#ffe421;stroke-width:4.17px;stroke-linecap:round;stroke-linejoin:round;stroke-miterlimit:1.5;"/><path d="M403.244,147.124l59.173,13.365" style="fill:none;stroke:#ffe421;stroke-width:4.17px;stroke-linecap:round;stroke-linejoin:round;stroke-miterlimit:1.5;"/><path d="M392.487,89.004l57.139,-20.374" style="fill:none;stroke:#ffe421;stroke-width:4.17px;stroke-linecap:round;stroke-linejoin:round;stroke-miterlimit:1.5;"/><path d="M351.614,46.91l40.873,-44.827" style="fill:none;stroke:#ffe421;stroke-width:4.17px;stroke-linecap:round;stroke-linejoin:round;stroke-miterlimit:1.5;"/><path d="M260.144,199.325l-42.895,42.896" style="fill:none;stroke:#ffe421;stroke-width:4.17px;stroke-linecap:round;stroke-linejoin:round;stroke-miterlimit:1.5;"/><path d="M226.244,147.124l-59.172,13.365" style="fill:none;stroke:#ffe421;stroke-width:4.17px;stroke-linecap:round;stroke-linejoin:round;stroke-miterlimit:1.5;"/><path d="M237.001,89.004l-57.139,-20.374" style="fill:none;stroke:#ffe421;stroke-width:4.17px;stroke-linecap:round;stroke-linejoin:round;stroke-miterlimit:1.5;"/><path d="M277.874,46.91l-40.873,-44.827" style="fill:none;stroke:#ffe421;stroke-width:4.17px;stroke-linecap:round;stroke-linejoin:round;stroke-miterlimit:1.5;"/></g><g><ellipse cx="1399.7" cy="152.796" rx="92.725" ry="89.425"/><path d="M1399.7,213.349c-39.885,-47.601 -37.769,-87.586 0,-121.107c-62.997,40.369 -65.577,80.738 0,121.107" style="fill:#e6e6e6;"/></g><g><rect x="1092.62" y="1156.08" width="613.954" height="367.977" style="fill:#fff;"/><path d="M1181.23,1422.75l496.893,-0m-496.893,-25.378l496.893,0m-496.893,-25.378l496.893,0m-496.893,-25.582l496.893,0m-496.893,-25.378l496.893,0m-496.893,-25.377l496.893,-0m-496.893,-25.583l496.893,0m-496.893,-25.378l496.893,0m-496.893,-25.377l496.893,-0" style="fill:none;stroke:#d9d9d9;stroke-width:1.28px;stroke-linejoin:round;stroke-miterlimit:2;"/><path d="M1305.46,1219.32l0,229.013m124.224,-229.013l-0,229.013m124.223,-229.013l0,229.013m124.223,-229.013l0,229.013" style="fill:none;stroke:#d9d9d9;stroke-width:1.28px;stroke-linejoin:round;stroke-miterlimit:2;"/><path d="M1181.23,1448.33l0,-229.013" style="fill:none;stroke:#bfbfbf;stroke-width:1.28px;stroke-linejoin:round;stroke-miterlimit:2;"/><path d="M1181.23,1448.33l496.893,0" style="fill:none;stroke:#bfbfbf;stroke-width:1.28px;stroke-linejoin:round;stroke-miterlimit:2;"/><path d="M1210.2,1405.71c0,2.379 -1.918,4.298 -4.298,4.298c-2.366,-0 -4.297,-1.919 -4.297,-4.298c-0,-2.366 1.931,-4.298 4.297,-4.298c2.38,0 4.298,1.932 4.298,4.298" style="fill:#4472c4;fill-rule:nonzero;"/><path d="M1210.2,1405.71c0,2.379 -1.918,4.298 -4.298,4.298c-2.366,-0 -4.297,-1.919 -4.297,-4.298c-0,-2.366 1.931,-4.298 4.297,-4.298c2.38,0 4.298,1.932 4.298,4.298" style="fill:none;stroke:#4472c4;stroke-width:1.28px;stroke-linejoin:round;stroke-miterlimit:2;"/><path d="M1234.97,1375.42c-0,2.379 -1.919,4.297 -4.298,4.297c-2.366,0 -4.297,-1.918 -4.297,-4.297c-0,-2.367 1.931,-4.298 4.297,-4.298c2.379,-0 4.298,1.931 4.298,4.298" style="fill:#4472c4;fill-rule:nonzero;"/><path d="M1234.97,1375.42c-0,2.379 -1.919,4.297 -4.298,4.297c-2.366,0 -4.297,-1.918 -4.297,-4.297c-0,-2.367 1.931,-4.298 4.297,-4.298c2.379,-0 4.298,1.931 4.298,4.298" style="fill:none;stroke:#4472c4;stroke-width:1.28px;stroke-linejoin:round;stroke-miterlimit:2;"/><path d="M1259.93,1352.7c0,2.379 -1.918,4.298 -4.297,4.298c-2.367,0 -4.298,-1.919 -4.298,-4.298c0,-2.366 1.931,-4.298 4.298,-4.298c2.379,0 4.297,1.932 4.297,4.298" style="fill:#4472c4;fill-rule:nonzero;"/><path d="M1259.93,1352.7c0,2.379 -1.918,4.298 -4.297,4.298c-2.367,0 -4.298,-1.919 -4.298,-4.298c0,-2.366 1.931,-4.298 4.298,-4.298c2.379,0 4.297,1.932 4.297,4.298" style="fill:none;stroke:#4472c4;stroke-width:1.28px;stroke-linejoin:round;stroke-miterlimit:2;"/><path d="M1284.7,1335.1c0,2.379 -1.918,4.297 -4.298,4.297c-2.366,0 -4.297,-1.918 -4.297,-4.297c-0,-2.367 1.931,-4.298 4.297,-4.298c2.38,-0 4.298,1.931 4.298,4.298" style="fill:#4472c4;fill-rule:nonzero;"/><path d="M1284.7,1335.1c0,2.379 -1.918,4.297 -4.298,4.297c-2.366,0 -4.297,-1.918 -4.297,-4.297c-0,-2.367 1.931,-4.298 4.297,-4.298c2.38,-0 4.298,1.931 4.298,4.298" style="fill:none;stroke:#4472c4;stroke-width:1.28px;stroke-linejoin:round;stroke-miterlimit:2;"/><path d="M1309.67,1320.98c-0,2.379 -1.919,4.298 -4.298,4.298c-2.366,0 -4.298,-1.919 -4.298,-4.298c0,-2.366 1.932,-4.298 4.298,-4.298c2.379,0 4.298,1.932 4.298,4.298" style="fill:#4472c4;fill-rule:nonzero;"/><path d="M1309.67,1320.98c-0,2.379 -1.919,4.298 -4.298,4.298c-2.366,0 -4.298,-1.919 -4.298,-4.298c0,-2.366 1.932,-4.298 4.298,-4.298c2.379,0 4.298,1.932 4.298,4.298" style="fill:none;stroke:#4472c4;stroke-width:1.28px;stroke-linejoin:round;stroke-miterlimit:2;"/><path d="M1334.43,1309.52c0,2.379 -1.918,4.298 -4.297,4.298c-2.367,0 -4.298,-1.919 -4.298,-4.298c0,-2.366 1.931,-4.298 4.298,-4.298c2.379,0 4.297,1.932 4.297,4.298" style="fill:#4472c4;fill-rule:nonzero;"/><path d="M1334.43,1309.52c0,2.379 -1.918,4.298 -4.297,4.298c-2.367,0 -4.298,-1.919 -4.298,-4.298c0,-2.366 1.931,-4.298 4.298,-4.298c2.379,0 4.297,1.932 4.297,4.298" style="fill:none;stroke:#4472c4;stroke-width:1.28px;stroke-linejoin:round;stroke-miterlimit:2;"/><path d="M1359.19,1299.7c0,2.379 -1.918,4.297 -4.297,4.297c-2.367,0 -4.298,-1.918 -4.298,-4.297c-0,-2.367 1.931,-4.298 4.298,-4.298c2.379,-0 4.297,1.931 4.297,4.298" style="fill:#4472c4;fill-rule:nonzero;"/><path d="M1359.19,1299.7c0,2.379 -1.918,4.297 -4.297,4.297c-2.367,0 -4.298,-1.918 -4.298,-4.297c-0,-2.367 1.931,-4.298 4.298,-4.298c2.379,-0 4.297,1.931 4.297,4.298" style="fill:none;stroke:#4472c4;stroke-width:1.28px;stroke-linejoin:round;stroke-miterlimit:2;"/><path d="M1384.16,1291.71c-0,2.379 -1.919,4.298 -4.298,4.298c-2.366,-0 -4.298,-1.919 -4.298,-4.298c0,-2.366 1.932,-4.298 4.298,-4.298c2.379,0 4.298,1.932 4.298,4.298" style="fill:#4472c4;fill-rule:nonzero;"/><path d="M1384.16,1291.71c-0,2.379 -1.919,4.298 -4.298,4.298c-2.366,-0 -4.298,-1.919 -4.298,-4.298c0,-2.366 1.932,-4.298 4.298,-4.298c2.379,0 4.298,1.932 4.298,4.298" style="fill:none;stroke:#4472c4;stroke-width:1.28px;stroke-linejoin:round;stroke-miterlimit:2;"/><path d="M1408.92,1284.55c0,2.379 -1.918,4.298 -4.297,4.298c-2.366,-0 -4.298,-1.919 -4.298,-4.298c0,-2.367 1.932,-4.298 4.298,-4.298c2.379,-0 4.297,1.931 4.297,4.298" style="fill:#4472c4;fill-rule:nonzero;"/><path d="M1408.92,1284.55c0,2.379 -1.918,4.298 -4.297,4.298c-2.366,-0 -4.298,-1.919 -4.298,-4.298c0,-2.367 1.932,-4.298 4.298,-4.298c2.379,-0 4.297,1.931 4.297,4.298" style="fill:none;stroke:#4472c4;stroke-width:1.28px;stroke-linejoin:round;stroke-miterlimit:2;"/><path d="M1433.89,1278.62c-0,2.379 -1.919,4.298 -4.298,4.298c-2.366,-0 -4.297,-1.919 -4.297,-4.298c-0,-2.367 1.931,-4.298 4.297,-4.298c2.379,-0 4.298,1.931 4.298,4.298" style="fill:#4472c4;fill-rule:nonzero;"/><path d="M1433.89,1278.62c-0,2.379 -1.919,4.298 -4.298,4.298c-2.366,-0 -4.297,-1.919 -4.297,-4.298c-0,-2.367 1.931,-4.298 4.297,-4.298c2.379,-0 4.298,1.931 4.298,4.298" style="fill:none;stroke:#4472c4;stroke-width:1.28px;stroke-linejoin:round;stroke-miterlimit:2;"/><path d="M1458.65,1273.3c-0,2.379 -1.919,4.297 -4.298,4.297c-2.366,0 -4.298,-1.918 -4.298,-4.297c0,-2.367 1.932,-4.298 4.298,-4.298c2.379,-0 4.298,1.931 4.298,4.298" style="fill:#4472c4;fill-rule:nonzero;"/><path d="M1458.65,1273.3c-0,2.379 -1.919,4.297 -4.298,4.297c-2.366,0 -4.298,-1.918 -4.298,-4.297c0,-2.367 1.932,-4.298 4.298,-4.298c2.379,-0 4.298,1.931 4.298,4.298" style="fill:none;stroke:#4472c4;stroke-width:1.28px;stroke-linejoin:round;stroke-miterlimit:2;"/><path d="M1483.41,1268.59c-0,2.38 -1.919,4.298 -4.298,4.298c-2.366,0 -4.298,-1.918 -4.298,-4.298c0,-2.366 1.932,-4.297 4.298,-4.297c2.379,-0 4.298,1.931 4.298,4.297" style="fill:#4472c4;fill-rule:nonzero;"/><path d="M1483.41,1268.59c-0,2.38 -1.919,4.298 -4.298,4.298c-2.366,0 -4.298,-1.918 -4.298,-4.298c0,-2.366 1.932,-4.297 4.298,-4.297c2.379,-0 4.298,1.931 4.298,4.297" style="fill:none;stroke:#4472c4;stroke-width:1.28px;stroke-linejoin:round;stroke-miterlimit:2;"/><path d="M1508.38,1264.5c-0,2.379 -1.919,4.298 -4.298,4.298c-2.366,0 -4.297,-1.919 -4.297,-4.298c-0,-2.366 1.931,-4.298 4.297,-4.298c2.379,0 4.298,1.932 4.298,4.298" style="fill:#4472c4;fill-rule:nonzero;"/><path d="M1508.38,1264.5c-0,2.379 -1.919,4.298 -4.298,4.298c-2.366,0 -4.297,-1.919 -4.297,-4.298c-0,-2.366 1.931,-4.298 4.297,-4.298c2.379,0 4.298,1.932 4.298,4.298" style="fill:none;stroke:#4472c4;stroke-width:1.28px;stroke-linejoin:round;stroke-miterlimit:2;"/><path d="M1533.16,1260.81c-0,2.38 -1.919,4.298 -4.298,4.298c-2.379,0 -4.298,-1.918 -4.298,-4.298c0,-2.353 1.919,-4.297 4.298,-4.297c2.379,-0 4.298,1.944 4.298,4.297" style="fill:#4472c4;fill-rule:nonzero;"/><path d="M1533.16,1260.81c-0,2.38 -1.919,4.298 -4.298,4.298c-2.379,0 -4.298,-1.918 -4.298,-4.298c0,-2.353 1.919,-4.297 4.298,-4.297c2.379,-0 4.298,1.944 4.298,4.297" style="fill:none;stroke:#4472c4;stroke-width:1.28px;stroke-linejoin:round;stroke-miterlimit:2;"/><path d="M1558.12,1257.33c0,2.379 -1.919,4.298 -4.298,4.298c-2.379,0 -4.297,-1.919 -4.297,-4.298c-0,-2.353 1.918,-4.298 4.297,-4.298c2.379,0 4.298,1.945 4.298,4.298" style="fill:#4472c4;fill-rule:nonzero;"/><path d="M1558.12,1257.33c0,2.379 -1.919,4.298 -4.298,4.298c-2.379,0 -4.297,-1.919 -4.297,-4.298c-0,-2.353 1.918,-4.298 4.297,-4.298c2.379,0 4.298,1.945 4.298,4.298" style="fill:none;stroke:#4472c4;stroke-width:1.28px;stroke-linejoin:round;stroke-miterlimit:2;"/><path d="M1582.89,1254.47c-0,2.379 -1.919,4.298 -4.298,4.298c-2.379,-0 -4.298,-1.919 -4.298,-4.298c0,-2.354 1.919,-4.298 4.298,-4.298c2.379,0 4.298,1.944 4.298,4.298" style="fill:#4472c4;fill-rule:nonzero;"/><path d="M1582.89,1254.47c-0,2.379 -1.919,4.298 -4.298,4.298c-2.379,-0 -4.298,-1.919 -4.298,-4.298c0,-2.354 1.919,-4.298 4.298,-4.298c2.379,0 4.298,1.944 4.298,4.298" style="fill:none;stroke:#4472c4;stroke-width:1.28px;stroke-linejoin:round;stroke-miterlimit:2;"/><path d="M1607.65,1251.6c-0,2.379 -1.919,4.298 -4.298,4.298c-2.379,-0 -4.298,-1.919 -4.298,-4.298c0,-2.354 1.919,-4.298 4.298,-4.298c2.379,-0 4.298,1.944 4.298,4.298" style="fill:#4472c4;fill-rule:nonzero;"/><path d="M1607.65,1251.6c-0,2.379 -1.919,4.298 -4.298,4.298c-2.379,-0 -4.298,-1.919 -4.298,-4.298c0,-2.354 1.919,-4.298 4.298,-4.298c2.379,-0 4.298,1.944 4.298,4.298" style="fill:none;stroke:#4472c4;stroke-width:1.28px;stroke-linejoin:round;stroke-miterlimit:2;"/><path d="M1632.62,1249.15c0,2.379 -1.919,4.298 -4.298,4.298c-2.379,-0 -4.297,-1.919 -4.297,-4.298c-0,-2.354 1.918,-4.298 4.297,-4.298c2.379,-0 4.298,1.944 4.298,4.298" style="fill:#4472c4;fill-rule:nonzero;"/><path d="M1632.62,1249.15c0,2.379 -1.919,4.298 -4.298,4.298c-2.379,-0 -4.297,-1.919 -4.297,-4.298c-0,-2.354 1.918,-4.298 4.297,-4.298c2.379,-0 4.298,1.944 4.298,4.298" style="fill:none;stroke:#4472c4;stroke-width:1.28px;stroke-linejoin:round;stroke-miterlimit:2;"/><path d="M1657.38,1246.89c-0,2.379 -1.919,4.297 -4.298,4.297c-2.379,0 -4.297,-1.918 -4.297,-4.297c-0,-2.354 1.918,-4.298 4.297,-4.298c2.379,-0 4.298,1.944 4.298,4.298" style="fill:#4472c4;fill-rule:nonzero;"/><path d="M1657.38,1246.89c-0,2.379 -1.919,4.297 -4.298,4.297c-2.379,0 -4.297,-1.918 -4.297,-4.297c-0,-2.354 1.918,-4.298 4.297,-4.298c2.379,-0 4.298,1.944 4.298,4.298" style="fill:none;stroke:#4472c4;stroke-width:1.28px;stroke-linejoin:round;stroke-miterlimit:2;"/><rect x="1092.52" y="1155.98" width="613.954" height="367.977" style="fill:none;"/><g transform="matrix(0.999961,0,0,1,0.0448466,-2.27374e-13)"><text x="1159.26px" y="1452.68px" style="font-family:'Calibri', sans-serif;font-size:15.349px;fill:#595959;">0</text></g><g transform="matrix(0.204651,0,0,0.204659,1139.88,1427.23)"><text x="0px" y="0px" style="font-family:'Calibri', sans-serif;font-size:75px;fill:#595959;">0</text><text x="37.988px" y="0px" style="font-family:'Calibri', sans-serif;font-size:75px;fill:#595959;">,</text><text x="56.951px" y="0px" style="font-family:'Calibri', sans-serif;font-size:75px;fill:#595959;">01</text></g><g transform="matrix(0.204651,0,0,0.204659,1139.88,1401.79)"><text x="0px" y="0px" style="font-family:'Calibri', sans-serif;font-size:75px;fill:#595959;">0</text><text x="37.988px" y="0px" style="font-family:'Calibri', sans-serif;font-size:75px;fill:#595959;">,</text><text x="56.951px" y="0px" style="font-family:'Calibri', sans-serif;font-size:75px;fill:#595959;">02</text></g><g transform="matrix(0.204651,0,0,0.204659,1139.88,1376.35)"><text x="0px" y="0px" style="font-family:'Calibri', sans-serif;font-size:75px;fill:#595959;">0</text><text x="37.988px" y="0px" style="font-family:'Calibri', sans-serif;font-size:75px;fill:#595959;">,</text><text x="56.951px" y="0px" style="font-family:'Calibri', sans-serif;font-size:75px;fill:#595959;">03</text></g><g transform="matrix(0.204651,0,0,0.204659,1139.88,1350.91)"><text x="0px" y="0px" style="font-family:'Calibri', sans-serif;font-size:75px;fill:#595959;">0</text><text x="37.988px" y="0px" style="font-family:'Calibri', sans-serif;font-size:75px;fill:#595959;">,</text><text x="56.951px" y="0px" style="font-family:'Calibri', sans-serif;font-size:75px;fill:#595959;">0</text><text x="94.939px" y="0px" style="font-family:'Calibri', sans-serif;font-size:75px;fill:#595959;">4</text></g><g transform="matrix(0.204651,0,0,0.204659,1139.88,1325.47)"><text x="0px" y="0px" style="font-family:'Calibri', sans-serif;font-size:75px;fill:#595959;">0</text><text x="37.988px" y="0px" style="font-family:'Calibri', sans-serif;font-size:75px;fill:#595959;">,</text><text x="56.951px" y="0px" style="font-family:'Calibri', sans-serif;font-size:75px;fill:#595959;">05</text></g><g transform="matrix(0.204651,0,0,0.204659,1139.88,1300.03)"><text x="0px" y="0px" style="font-family:'Calibri', sans-serif;font-size:75px;fill:#595959;">0</text><text x="37.988px" y="0px" style="font-family:'Calibri', sans-serif;font-size:75px;fill:#595959;">,</text><text x="56.951px" y="0px" style="font-family:'Calibri', sans-serif;font-size:75px;fill:#595959;">06</text></g><g transform="matrix(0.204651,0,0,0.204659,1139.88,1274.59)"><text x="0px" y="0px" style="font-family:'Calibri', sans-serif;font-size:75px;fill:#595959;">0</text><text x="37.988px" y="0px" style="font-family:'Calibri', sans-serif;font-size:75px;fill:#595959;">,</text><text x="56.951px" y="0px" style="font-family:'Calibri', sans-serif;font-size:75px;fill:#595959;">07</text></g><g transform="matrix(0.204651,0,0,0.204659,1139.88,1249.14)"><text x="0px" y="0px" style="font-family:'Calibri', sans-serif;font-size:75px;fill:#595959;">0</text><text x="37.988px" y="0px" style="font-family:'Calibri', sans-serif;font-size:75px;fill:#595959;">,</text><text x="56.951px" y="0px" style="font-family:'Calibri', sans-serif;font-size:75px;fill:#595959;">08</text></g><g transform="matrix(0.204651,0,0,0.204659,1139.88,1223.7)"><text x="0px" y="0px" style="font-family:'Calibri', sans-serif;font-size:75px;fill:#595959;">0</text><text x="37.988px" y="0px" style="font-family:'Calibri', sans-serif;font-size:75px;fill:#595959;">,</text><text x="56.951px" y="0px" style="font-family:'Calibri', sans-serif;font-size:75px;fill:#595959;">09</text></g><g transform="matrix(0.999961,0,0,1,0.0455479,0)"><text x="1177.39px" y="1472.63px" style="font-family:'Calibri', sans-serif;font-size:15.349px;fill:#595959;">0</text></g><g transform="matrix(0.204651,0,0,0.204659,1291.91,1472.63)"><text x="0px" y="0px" style="font-family:'Calibri', sans-serif;font-size:75px;fill:#595959;">0</text><text x="37.988px" y="0px" style="font-family:'Calibri', sans-serif;font-size:75px;fill:#595959;">,</text><text x="56.951px" y="0px" style="font-family:'Calibri', sans-serif;font-size:75px;fill:#595959;">05</text></g><g transform="matrix(0.204651,0,0,0.204659,1420.01,1472.63)"><text x="0px" y="0px" style="font-family:'Calibri', sans-serif;font-size:75px;fill:#595959;">0</text><text x="37.988px" y="0px" style="font-family:'Calibri', sans-serif;font-size:75px;fill:#595959;">,</text><text x="56.951px" y="0px" style="font-family:'Calibri', sans-serif;font-size:75px;fill:#595959;">1</text></g><g transform="matrix(0.204651,0,0,0.204659,1540.34,1472.63)"><text x="0px" y="0px" style="font-family:'Calibri', sans-serif;font-size:75px;fill:#595959;">0</text><text x="37.988px" y="0px" style="font-family:'Calibri', sans-serif;font-size:75px;fill:#595959;">,</text><text x="56.951px" y="0px" style="font-family:'Calibri', sans-serif;font-size:75px;fill:#595959;">15</text></g><g transform="matrix(0.204651,0,0,0.204659,1668.44,1472.63)"><text x="0px" y="0px" style="font-family:'Calibri', sans-serif;font-size:75px;fill:#595959;">0</text><text x="37.988px" y="0px" style="font-family:'Calibri', sans-serif;font-size:75px;fill:#595959;">,</text><text x="56.951px" y="0px" style="font-family:'Calibri', sans-serif;font-size:75px;fill:#595959;">2</text></g><g transform="matrix(1.25313e-17,-0.204659,0.204651,1.25318e-17,1130.11,1462.26)"><text x="0px" y="0px" style="font-family:'Calibri', sans-serif;font-size:83px;fill:#595959;">R</text><text x="43.538px" y="0px" style="font-family:'Calibri', sans-serif;font-size:83px;fill:#595959;">e</text><text x="84.502px" y="0px" style="font-family:'Calibri', sans-serif;font-size:83px;fill:#595959;">a</text><text x="124.502px" y="0px" style="font-family:'Calibri', sans-serif;font-size:83px;fill:#595959;">c</text><text x="159.49px" y="0px" style="font-family:'Calibri', sans-serif;font-size:83px;fill:#595959;">t</text><text x="187.487px" y="0px" style="font-family:'Calibri', sans-serif;font-size:83px;fill:#595959;">i</text><text x="206.444px" y="0px" style="font-family:'Calibri', sans-serif;font-size:83px;fill:#595959;">o</text><text x="250.473px" y="0px" style="font-family:'Calibri', sans-serif;font-size:83px;fill:#595959;">n</text><text x="313.512px" y="0px" style="font-family:'Calibri', sans-serif;font-size:83px;fill:#595959;">v</text><text x="349.673px" y="0px" style="font-family:'Calibri', sans-serif;font-size:83px;fill:#595959;">e</text><text x="390.636px" y="0px" style="font-family:'Calibri', sans-serif;font-size:83px;fill:#595959;">l</text><text x="409.594px" y="0px" style="font-family:'Calibri', sans-serif;font-size:83px;fill:#595959;">o</text><text x="453.623px" y="0px" style="font-family:'Calibri', sans-serif;font-size:83px;fill:#595959;">c</text><text x="488.61px" y="0px" style="font-family:'Calibri', sans-serif;font-size:83px;fill:#595959;">i</text><text x="507.568px" y="0px" style="font-family:'Calibri', sans-serif;font-size:83px;fill:#595959;">t</text><text x="535.565px" y="0px" style="font-family:'Calibri', sans-serif;font-size:83px;fill:#595959;">y</text><text x="593.541px" y="0px" style="font-family:'Calibri', sans-serif;font-size:83px;fill:#595959;">i</text><text x="612.499px" y="0px" style="font-family:'Calibri', sans-serif;font-size:83px;fill:#595959;">n</text><text x="675.537px" y="0px" style="font-family:'Calibri', sans-serif;font-size:83px;fill:#595959;">m<tspan x="741.523px " y="0px ">m</tspan></text><text x="807.509px" y="0px" style="font-family:'Calibri', sans-serif;font-size:83px;fill:#595959;">o</text><text x="851.537px" y="0px" style="font-family:'Calibri', sans-serif;font-size:83px;fill:#595959;">l</text><text x="870.495px" y="0px" style="font-family:'Calibri', sans-serif;font-size:83px;fill:#595959;">/</text><text x="902.514px" y="0px" style="font-family:'Calibri', sans-serif;font-size:83px;fill:#595959;">(</text><text x="927.533px" y="0px" style="font-family:'Calibri', sans-serif;font-size:83px;fill:#595959;">L</text><text x="962.567px" y="0px" style="font-family:'Calibri', sans-serif;font-size:83px;fill:#595959;">*</text><text x="1003.57px" y="0px" style="font-family:'Calibri', sans-serif;font-size:83px;fill:#595959;">m</text><text x="1069.56px" y="0px" style="font-family:'Calibri', sans-serif;font-size:83px;fill:#595959;">i</text><text x="1088.51px" y="0px" style="font-family:'Calibri', sans-serif;font-size:83px;fill:#595959;">n</text><text x="1132.55px" y="0px" style="font-family:'Calibri', sans-serif;font-size:83px;fill:#595959;">)</text></g><g transform="matrix(0.204651,0,0,0.204659,1388.98,1498.12)"><text x="0px" y="0px" style="font-family:'Calibri', sans-serif;font-size:83px;fill:#595959;">T</text><text x="40.025px" y="0px" style="font-family:'Calibri', sans-serif;font-size:83px;fill:#595959;">i</text><text x="58.983px" y="0px" style="font-family:'Calibri', sans-serif;font-size:83px;fill:#595959;">m</text><text x="124.969px" y="0px" style="font-family:'Calibri', sans-serif;font-size:83px;fill:#595959;">e</text><text x="186.938px" y="0px" style="font-family:'Calibri', sans-serif;font-size:83px;fill:#595959;">i</text><text x="205.896px" y="0px" style="font-family:'Calibri', sans-serif;font-size:83px;fill:#595959;">n</text><text x="267.935px" y="0px" style="font-family:'Calibri', sans-serif;font-size:83px;fill:#595959;">m</text><text x="333.921px" y="0px" style="font-family:'Calibri', sans-serif;font-size:83px;fill:#595959;">i</text><text x="352.878px" y="0px" style="font-family:'Calibri', sans-serif;font-size:83px;fill:#595959;">n</text></g><g transform="matrix(0.204651,0,0,0.204659,1291.14,1191.64)"><text x="0px" y="0px" style="font-family:'Calibri', sans-serif;font-size:117px;fill:#595959;">p</text><text x="61.046px" y="0px" style="font-family:'Calibri', sans-serif;font-size:117px;fill:#595959;">r</text><text x="98.117px" y="0px" style="font-family:'Calibri', sans-serif;font-size:117px;fill:#595959;">o</text><text x="160.158px" y="0px" style="font-family:'Calibri', sans-serif;font-size:117px;fill:#595959;">d<tspan x="221.203px " y="0px ">u</tspan></text><text x="282.249px" y="0px" style="font-family:'Calibri', sans-serif;font-size:117px;fill:#595959;">c</text><text x="331.232px" y="0px" style="font-family:'Calibri', sans-serif;font-size:117px;fill:#595959;">t</text><text x="397.236px" y="0px" style="font-family:'Calibri', sans-serif;font-size:117px;fill:#595959;">c</text><text x="444.247px" y="0px" style="font-family:'Calibri', sans-serif;font-size:117px;fill:#595959;">o</text><text x="506.288px" y="0px" style="font-family:'Calibri', sans-serif;font-size:117px;fill:#595959;">n</text><text x="567.333px" y="0px" style="font-family:'Calibri', sans-serif;font-size:117px;fill:#595959;">c</text><text x="616.316px" y="0px" style="font-family:'Calibri', sans-serif;font-size:117px;fill:#595959;">e</text><text x="674.264px" y="0px" style="font-family:'Calibri', sans-serif;font-size:117px;fill:#595959;">n</text><text x="733.224px" y="0px" style="font-family:'Calibri', sans-serif;font-size:117px;fill:#595959;">t</text><text x="772.22px" y="0px" style="font-family:'Calibri', sans-serif;font-size:117px;fill:#595959;">r</text><text x="808.778px" y="0px" style="font-family:'Calibri', sans-serif;font-size:117px;fill:#595959;">a</text><text x="862.693px" y="0px" style="font-family:'Calibri', sans-serif;font-size:117px;fill:#595959;">t</text><text x="901.688px" y="0px" style="font-family:'Calibri', sans-serif;font-size:117px;fill:#595959;">i</text><text x="928.629px" y="0px" style="font-family:'Calibri', sans-serif;font-size:117px;fill:#595959;">o</text><text x="990.669px" y="0px" style="font-family:'Calibri', sans-serif;font-size:117px;fill:#595959;">n</text></g><rect x="1092.11" y="1155.57" width="615.182" height="369.205" style="fill:none;"/><clipPath id="_clip1"><rect x="1092.11" y="1155.57" width="615.182" height="369.205"/></clipPath><g clip-path="url(#_clip1)"><rect x="1092.62" y="1156.08" width="613.954" height="367.977" style="fill:none;stroke:#d9d9d9;stroke-width:1.28px;stroke-linejoin:round;stroke-miterlimit:2;"/></g></g><g><rect x="0.524" y="1156.09" width="628.232" height="367.949" style="fill:#fff;"/><path d="M83.241,1409.07l516.406,-0m-516.406,-37.696l516.406,0m-516.406,-37.695l516.406,-0m-516.406,-37.695l516.406,-0m-516.406,-37.486l516.406,-0m-516.406,-37.696l516.406,0" style="fill:none;stroke:#d9d9d9;stroke-width:1.31px;stroke-linejoin:round;stroke-miterlimit:2;"/><path d="M212.238,1220.8l-0,225.754m129.206,-225.754l-0,225.754m128.997,-225.754l-0,225.754m129.206,-225.754l0,225.754" style="fill:none;stroke:#d9d9d9;stroke-width:1.31px;stroke-linejoin:round;stroke-miterlimit:2;"/><path d="M83.241,1446.55l-0,-225.754" style="fill:none;stroke:#bfbfbf;stroke-width:1.31px;stroke-linejoin:round;stroke-miterlimit:2;"/><path d="M83.241,1446.55l516.406,-0" style="fill:none;stroke:#bfbfbf;stroke-width:1.31px;stroke-linejoin:round;stroke-miterlimit:2;"/><path d="M113.37,1443.97c-0,2.435 -1.977,4.398 -4.398,4.398c-2.434,-0 -4.398,-1.963 -4.398,-4.398c0,-2.421 1.964,-4.398 4.398,-4.398c2.421,0 4.398,1.977 4.398,4.398" style="fill:#4472c4;fill-rule:nonzero;"/><path d="M113.37,1443.97c-0,2.435 -1.977,4.398 -4.398,4.398c-2.434,-0 -4.398,-1.963 -4.398,-4.398c0,-2.421 1.964,-4.398 4.398,-4.398c2.421,0 4.398,1.977 4.398,4.398" style="fill:none;stroke:#4472c4;stroke-width:1.31px;stroke-linejoin:round;stroke-miterlimit:2;"/><path d="M139.337,1441.88c-0,2.434 -1.977,4.398 -4.398,4.398c-2.434,-0 -4.398,-1.964 -4.398,-4.398c0,-2.421 1.964,-4.398 4.398,-4.398c2.421,0 4.398,1.977 4.398,4.398" style="fill:#4472c4;fill-rule:nonzero;"/><path d="M139.337,1441.88c-0,2.434 -1.977,4.398 -4.398,4.398c-2.434,-0 -4.398,-1.964 -4.398,-4.398c0,-2.421 1.964,-4.398 4.398,-4.398c2.421,0 4.398,1.977 4.398,4.398" style="fill:none;stroke:#4472c4;stroke-width:1.31px;stroke-linejoin:round;stroke-miterlimit:2;"/><path d="M165.094,1439.79c0,2.434 -1.976,4.398 -4.398,4.398c-2.434,-0 -4.397,-1.964 -4.397,-4.398c-0,-2.422 1.963,-4.398 4.397,-4.398c2.422,0 4.398,1.976 4.398,4.398" style="fill:#4472c4;fill-rule:nonzero;"/><path d="M165.094,1439.79c0,2.434 -1.976,4.398 -4.398,4.398c-2.434,-0 -4.397,-1.964 -4.397,-4.398c-0,-2.422 1.963,-4.398 4.397,-4.398c2.422,0 4.398,1.976 4.398,4.398" style="fill:none;stroke:#4472c4;stroke-width:1.31px;stroke-linejoin:round;stroke-miterlimit:2;"/><path d="M190.852,1437.9c-0,2.435 -1.977,4.398 -4.398,4.398c-2.434,-0 -4.398,-1.963 -4.398,-4.398c0,-2.421 1.964,-4.398 4.398,-4.398c2.421,0 4.398,1.977 4.398,4.398" style="fill:#4472c4;fill-rule:nonzero;"/><path d="M190.852,1437.9c-0,2.435 -1.977,4.398 -4.398,4.398c-2.434,-0 -4.398,-1.963 -4.398,-4.398c0,-2.421 1.964,-4.398 4.398,-4.398c2.421,0 4.398,1.977 4.398,4.398" style="fill:none;stroke:#4472c4;stroke-width:1.31px;stroke-linejoin:round;stroke-miterlimit:2;"/><path d="M216.609,1436.02c0,2.435 -1.976,4.398 -4.398,4.398c-2.434,0 -4.397,-1.963 -4.397,-4.398c-0,-2.421 1.963,-4.398 4.397,-4.398c2.422,0 4.398,1.977 4.398,4.398" style="fill:#4472c4;fill-rule:nonzero;"/><path d="M216.609,1436.02c0,2.435 -1.976,4.398 -4.398,4.398c-2.434,0 -4.397,-1.963 -4.397,-4.398c-0,-2.421 1.963,-4.398 4.397,-4.398c2.422,0 4.398,1.977 4.398,4.398" style="fill:none;stroke:#4472c4;stroke-width:1.31px;stroke-linejoin:round;stroke-miterlimit:2;"/><path d="M242.576,1434.13c-0,2.434 -1.976,4.397 -4.398,4.397c-2.434,0 -4.397,-1.963 -4.397,-4.397c-0,-2.422 1.963,-4.398 4.397,-4.398c2.422,-0 4.398,1.976 4.398,4.398" style="fill:#4472c4;fill-rule:nonzero;"/><path d="M242.576,1434.13c-0,2.434 -1.976,4.397 -4.398,4.397c-2.434,0 -4.397,-1.963 -4.397,-4.397c-0,-2.422 1.963,-4.398 4.397,-4.398c2.422,-0 4.398,1.976 4.398,4.398" style="fill:none;stroke:#4472c4;stroke-width:1.31px;stroke-linejoin:round;stroke-miterlimit:2;"/><path d="M268.333,1432.46c0,2.435 -1.976,4.398 -4.397,4.398c-2.435,-0 -4.398,-1.963 -4.398,-4.398c0,-2.421 1.963,-4.398 4.398,-4.398c2.421,0 4.397,1.977 4.397,4.398" style="fill:#4472c4;fill-rule:nonzero;"/><path d="M268.333,1432.46c0,2.435 -1.976,4.398 -4.397,4.398c-2.435,-0 -4.398,-1.963 -4.398,-4.398c0,-2.421 1.963,-4.398 4.398,-4.398c2.421,0 4.397,1.977 4.397,4.398" style="fill:none;stroke:#4472c4;stroke-width:1.31px;stroke-linejoin:round;stroke-miterlimit:2;"/><path d="M294.091,1430.78c-0,2.434 -1.976,4.398 -4.398,4.398c-2.434,-0 -4.397,-1.964 -4.397,-4.398c-0,-2.422 1.963,-4.398 4.397,-4.398c2.422,0 4.398,1.976 4.398,4.398" style="fill:#4472c4;fill-rule:nonzero;"/><path d="M294.091,1430.78c-0,2.434 -1.976,4.398 -4.398,4.398c-2.434,-0 -4.397,-1.964 -4.397,-4.398c-0,-2.422 1.963,-4.398 4.397,-4.398c2.422,0 4.398,1.976 4.398,4.398" style="fill:none;stroke:#4472c4;stroke-width:1.31px;stroke-linejoin:round;stroke-miterlimit:2;"/><path d="M320.058,1428.9c-0,2.435 -1.976,4.398 -4.398,4.398c-2.434,-0 -4.397,-1.963 -4.397,-4.398c-0,-2.421 1.963,-4.398 4.397,-4.398c2.422,0 4.398,1.977 4.398,4.398" style="fill:#4472c4;fill-rule:nonzero;"/><path d="M320.058,1428.9c-0,2.435 -1.976,4.398 -4.398,4.398c-2.434,-0 -4.397,-1.963 -4.397,-4.398c-0,-2.421 1.963,-4.398 4.397,-4.398c2.422,0 4.398,1.977 4.398,4.398" style="fill:none;stroke:#4472c4;stroke-width:1.31px;stroke-linejoin:round;stroke-miterlimit:2;"/><path d="M345.815,1427.22c0,2.434 -1.976,4.397 -4.397,4.397c-2.435,0 -4.398,-1.963 -4.398,-4.397c0,-2.422 1.963,-4.398 4.398,-4.398c2.421,-0 4.397,1.976 4.397,4.398" style="fill:#4472c4;fill-rule:nonzero;"/><path d="M345.815,1427.22c0,2.434 -1.976,4.397 -4.397,4.397c-2.435,0 -4.398,-1.963 -4.398,-4.397c0,-2.422 1.963,-4.398 4.398,-4.398c2.421,-0 4.397,1.976 4.397,4.398" style="fill:none;stroke:#4472c4;stroke-width:1.31px;stroke-linejoin:round;stroke-miterlimit:2;"/><path d="M371.573,1425.55c-0,2.435 -1.976,4.398 -4.398,4.398c-2.434,0 -4.397,-1.963 -4.397,-4.398c-0,-2.421 1.963,-4.397 4.397,-4.397c2.422,-0 4.398,1.976 4.398,4.397" style="fill:#4472c4;fill-rule:nonzero;"/><path d="M371.573,1425.55c-0,2.435 -1.976,4.398 -4.398,4.398c-2.434,0 -4.397,-1.963 -4.397,-4.398c-0,-2.421 1.963,-4.397 4.397,-4.397c2.422,-0 4.398,1.976 4.398,4.397" style="fill:none;stroke:#4472c4;stroke-width:1.31px;stroke-linejoin:round;stroke-miterlimit:2;"/><path d="M397.33,1423.87c0,2.434 -1.976,4.398 -4.397,4.398c-2.435,-0 -4.398,-1.964 -4.398,-4.398c0,-2.421 1.963,-4.398 4.398,-4.398c2.421,0 4.397,1.977 4.397,4.398" style="fill:#4472c4;fill-rule:nonzero;"/><path d="M397.33,1423.87c0,2.434 -1.976,4.398 -4.397,4.398c-2.435,-0 -4.398,-1.964 -4.398,-4.398c0,-2.421 1.963,-4.398 4.398,-4.398c2.421,0 4.397,1.977 4.397,4.398" style="fill:none;stroke:#4472c4;stroke-width:1.31px;stroke-linejoin:round;stroke-miterlimit:2;"/><path d="M423.297,1422.19c0,2.434 -1.976,4.397 -4.397,4.397c-2.435,0 -4.398,-1.963 -4.398,-4.397c0,-2.422 1.963,-4.398 4.398,-4.398c2.421,-0 4.397,1.976 4.397,4.398" style="fill:#4472c4;fill-rule:nonzero;"/><path d="M423.297,1422.19c0,2.434 -1.976,4.397 -4.397,4.397c-2.435,0 -4.398,-1.963 -4.398,-4.397c0,-2.422 1.963,-4.398 4.398,-4.398c2.421,-0 4.397,1.976 4.397,4.398" style="fill:none;stroke:#4472c4;stroke-width:1.31px;stroke-linejoin:round;stroke-miterlimit:2;"/><path d="M449.055,1420.53c-0,2.435 -1.963,4.398 -4.398,4.398c-2.434,0 -4.397,-1.963 -4.397,-4.398c-0,-2.434 1.963,-4.397 4.397,-4.397c2.435,-0 4.398,1.963 4.398,4.397" style="fill:#4472c4;fill-rule:nonzero;"/><path d="M449.055,1420.53c-0,2.435 -1.963,4.398 -4.398,4.398c-2.434,0 -4.397,-1.963 -4.397,-4.398c-0,-2.434 1.963,-4.397 4.397,-4.397c2.435,-0 4.398,1.963 4.398,4.397" style="fill:none;stroke:#4472c4;stroke-width:1.31px;stroke-linejoin:round;stroke-miterlimit:2;"/><path d="M474.812,1418.86c0,2.435 -1.963,4.398 -4.397,4.398c-2.435,-0 -4.398,-1.963 -4.398,-4.398c0,-2.434 1.963,-4.398 4.398,-4.398c2.434,0 4.397,1.964 4.397,4.398" style="fill:#4472c4;fill-rule:nonzero;"/><path d="M474.812,1418.86c0,2.435 -1.963,4.398 -4.397,4.398c-2.435,-0 -4.398,-1.963 -4.398,-4.398c0,-2.434 1.963,-4.398 4.398,-4.398c2.434,0 4.397,1.964 4.397,4.398" style="fill:none;stroke:#4472c4;stroke-width:1.31px;stroke-linejoin:round;stroke-miterlimit:2;"/><path d="M500.779,1417.18c0,2.434 -1.963,4.397 -4.397,4.397c-2.435,0 -4.398,-1.963 -4.398,-4.397c-0,-2.435 1.963,-4.398 4.398,-4.398c2.434,-0 4.397,1.963 4.397,4.398" style="fill:#4472c4;fill-rule:nonzero;"/><path d="M500.779,1417.18c0,2.434 -1.963,4.397 -4.397,4.397c-2.435,0 -4.398,-1.963 -4.398,-4.397c-0,-2.435 1.963,-4.398 4.398,-4.398c2.434,-0 4.397,1.963 4.397,4.398" style="fill:none;stroke:#4472c4;stroke-width:1.31px;stroke-linejoin:round;stroke-miterlimit:2;"/><path d="M526.537,1415.51c-0,2.435 -1.963,4.398 -4.398,4.398c-2.434,0 -4.398,-1.963 -4.398,-4.398c0,-2.434 1.964,-4.397 4.398,-4.397c2.435,-0 4.398,1.963 4.398,4.397" style="fill:#4472c4;fill-rule:nonzero;"/><path d="M526.537,1415.51c-0,2.435 -1.963,4.398 -4.398,4.398c-2.434,0 -4.398,-1.963 -4.398,-4.398c0,-2.434 1.964,-4.397 4.398,-4.397c2.435,-0 4.398,1.963 4.398,4.397" style="fill:none;stroke:#4472c4;stroke-width:1.31px;stroke-linejoin:round;stroke-miterlimit:2;"/><path d="M552.294,1413.83c0,2.434 -1.963,4.398 -4.397,4.398c-2.435,-0 -4.398,-1.964 -4.398,-4.398c-0,-2.435 1.963,-4.398 4.398,-4.398c2.434,0 4.397,1.963 4.397,4.398" style="fill:#4472c4;fill-rule:nonzero;"/><path d="M552.294,1413.83c0,2.434 -1.963,4.398 -4.397,4.398c-2.435,-0 -4.398,-1.964 -4.398,-4.398c-0,-2.435 1.963,-4.398 4.398,-4.398c2.434,0 4.397,1.963 4.397,4.398" style="fill:none;stroke:#4472c4;stroke-width:1.31px;stroke-linejoin:round;stroke-miterlimit:2;"/><path d="M578.261,1412.16c0,2.434 -1.963,4.397 -4.397,4.397c-2.435,0 -4.398,-1.963 -4.398,-4.397c-0,-2.435 1.963,-4.398 4.398,-4.398c2.434,-0 4.397,1.963 4.397,4.398" style="fill:#4472c4;fill-rule:nonzero;"/><path d="M578.261,1412.16c0,2.434 -1.963,4.397 -4.397,4.397c-2.435,0 -4.398,-1.963 -4.398,-4.397c-0,-2.435 1.963,-4.398 4.398,-4.398c2.434,-0 4.397,1.963 4.397,4.398" style="fill:none;stroke:#4472c4;stroke-width:1.31px;stroke-linejoin:round;stroke-miterlimit:2;"/><rect x="0.419" y="1155.98" width="628.232" height="368.158" style="fill:none;"/><g transform="matrix(0.999961,0,0,1,0.00235262,0)"><text x="60.814px" y="1451.16px" style="font-family:'Calibri', sans-serif;font-size:15.706px;fill:#595959;">0</text></g><g transform="matrix(0.209411,0,0,0.209419,48.9386,1413.51)"><text x="0px" y="0px" style="font-family:'Calibri', sans-serif;font-size:75px;fill:#595959;">0</text><text x="37.988px" y="0px" style="font-family:'Calibri', sans-serif;font-size:75px;fill:#595959;">,</text><text x="56.951px" y="0px" style="font-family:'Calibri', sans-serif;font-size:75px;fill:#595959;">1</text></g><g transform="matrix(0.209411,0,0,0.209419,48.9386,1375.86)"><text x="0px" y="0px" style="font-family:'Calibri', sans-serif;font-size:75px;fill:#595959;">0</text><text x="37.988px" y="0px" style="font-family:'Calibri', sans-serif;font-size:75px;fill:#595959;">,</text><text x="56.951px" y="0px" style="font-family:'Calibri', sans-serif;font-size:75px;fill:#595959;">2</text></g><g transform="matrix(0.209411,0,0,0.209419,48.9386,1338.21)"><text x="0px" y="0px" style="font-family:'Calibri', sans-serif;font-size:75px;fill:#595959;">0</text><text x="37.988px" y="0px" style="font-family:'Calibri', sans-serif;font-size:75px;fill:#595959;">,</text><text x="56.951px" y="0px" style="font-family:'Calibri', sans-serif;font-size:75px;fill:#595959;">3</text></g><g transform="matrix(0.209411,0,0,0.209419,48.9386,1300.57)"><text x="0px" y="0px" style="font-family:'Calibri', sans-serif;font-size:75px;fill:#595959;">0</text><text x="37.988px" y="0px" style="font-family:'Calibri', sans-serif;font-size:75px;fill:#595959;">,</text><text x="56.951px" y="0px" style="font-family:'Calibri', sans-serif;font-size:75px;fill:#595959;">4</text></g><g transform="matrix(0.209411,0,0,0.209419,48.9386,1262.92)"><text x="0px" y="0px" style="font-family:'Calibri', sans-serif;font-size:75px;fill:#595959;">0</text><text x="37.988px" y="0px" style="font-family:'Calibri', sans-serif;font-size:75px;fill:#595959;">,</text><text x="56.951px" y="0px" style="font-family:'Calibri', sans-serif;font-size:75px;fill:#595959;">5</text></g><g transform="matrix(0.209411,0,0,0.209419,48.9386,1225.27)"><text x="0px" y="0px" style="font-family:'Calibri', sans-serif;font-size:75px;fill:#595959;">0</text><text x="37.988px" y="0px" style="font-family:'Calibri', sans-serif;font-size:75px;fill:#595959;">,</text><text x="56.951px" y="0px" style="font-family:'Calibri', sans-serif;font-size:75px;fill:#595959;">6</text></g><g transform="matrix(0.999961,0,0,1,0.00307019,0)"><text x="79.363px" y="1471.58px" style="font-family:'Calibri', sans-serif;font-size:15.706px;fill:#595959;">0</text></g><g transform="matrix(0.209411,0,0,0.209419,198.538,1471.58)"><text x="0px" y="0px" style="font-family:'Calibri', sans-serif;font-size:75px;fill:#595959;">0</text><text x="37.988px" y="0px" style="font-family:'Calibri', sans-serif;font-size:75px;fill:#595959;">,</text><text x="56.951px" y="0px" style="font-family:'Calibri', sans-serif;font-size:75px;fill:#595959;">05</text></g><g transform="matrix(0.209411,0,0,0.209419,331.609,1471.58)"><text x="0px" y="0px" style="font-family:'Calibri', sans-serif;font-size:75px;fill:#595959;">0</text><text x="37.988px" y="0px" style="font-family:'Calibri', sans-serif;font-size:75px;fill:#595959;">,</text><text x="56.951px" y="0px" style="font-family:'Calibri', sans-serif;font-size:75px;fill:#595959;">1</text></g><g transform="matrix(0.209411,0,0,0.209419,456.723,1471.58)"><text x="0px" y="0px" style="font-family:'Calibri', sans-serif;font-size:75px;fill:#595959;">0</text><text x="37.988px" y="0px" style="font-family:'Calibri', sans-serif;font-size:75px;fill:#595959;">,</text><text x="56.951px" y="0px" style="font-family:'Calibri', sans-serif;font-size:75px;fill:#595959;">15</text></g><g transform="matrix(0.209411,0,0,0.209419,589.794,1471.58)"><text x="0px" y="0px" style="font-family:'Calibri', sans-serif;font-size:75px;fill:#595959;">0</text><text x="37.988px" y="0px" style="font-family:'Calibri', sans-serif;font-size:75px;fill:#595959;">,</text><text x="56.951px" y="0px" style="font-family:'Calibri', sans-serif;font-size:75px;fill:#595959;">2</text></g><g transform="matrix(1.28227e-17,-0.209419,0.209411,1.28232e-17,38.9479,1469.37)"><text x="0px" y="0px" style="font-family:'Calibri', sans-serif;font-size:83px;fill:#595959;">R</text><text x="43.538px" y="0px" style="font-family:'Calibri', sans-serif;font-size:83px;fill:#595959;">e</text><text x="84.502px" y="0px" style="font-family:'Calibri', sans-serif;font-size:83px;fill:#595959;">a</text><text x="124.502px" y="0px" style="font-family:'Calibri', sans-serif;font-size:83px;fill:#595959;">c</text><text x="159.49px" y="0px" style="font-family:'Calibri', sans-serif;font-size:83px;fill:#595959;">t</text><text x="187.487px" y="0px" style="font-family:'Calibri', sans-serif;font-size:83px;fill:#595959;">i</text><text x="206.444px" y="0px" style="font-family:'Calibri', sans-serif;font-size:83px;fill:#595959;">o</text><text x="250.473px" y="0px" style="font-family:'Calibri', sans-serif;font-size:83px;fill:#595959;">n</text><text x="313.512px" y="0px" style="font-family:'Calibri', sans-serif;font-size:83px;fill:#595959;">v</text><text x="349.673px" y="0px" style="font-family:'Calibri', sans-serif;font-size:83px;fill:#595959;">e</text><text x="390.636px" y="0px" style="font-family:'Calibri', sans-serif;font-size:83px;fill:#595959;">l</text><text x="409.594px" y="0px" style="font-family:'Calibri', sans-serif;font-size:83px;fill:#595959;">o</text><text x="453.623px" y="0px" style="font-family:'Calibri', sans-serif;font-size:83px;fill:#595959;">c</text><text x="488.61px" y="0px" style="font-family:'Calibri', sans-serif;font-size:83px;fill:#595959;">i</text><text x="507.568px" y="0px" style="font-family:'Calibri', sans-serif;font-size:83px;fill:#595959;">t</text><text x="535.565px" y="0px" style="font-family:'Calibri', sans-serif;font-size:83px;fill:#595959;">y</text><text x="593.541px" y="0px" style="font-family:'Calibri', sans-serif;font-size:83px;fill:#595959;">i</text><text x="612.499px" y="0px" style="font-family:'Calibri', sans-serif;font-size:83px;fill:#595959;">n</text><text x="675.537px" y="0px" style="font-family:'Calibri', sans-serif;font-size:83px;fill:#595959;">m<tspan x="741.523px " y="0px ">m</tspan></text><text x="807.509px" y="0px" style="font-family:'Calibri', sans-serif;font-size:83px;fill:#595959;">o</text><text x="851.537px" y="0px" style="font-family:'Calibri', sans-serif;font-size:83px;fill:#595959;">l</text><text x="870.495px" y="0px" style="font-family:'Calibri', sans-serif;font-size:83px;fill:#595959;">/</text><text x="902.514px" y="0px" style="font-family:'Calibri', sans-serif;font-size:83px;fill:#595959;">(</text><text x="927.533px" y="0px" style="font-family:'Calibri', sans-serif;font-size:83px;fill:#595959;">L</text><text x="962.567px" y="0px" style="font-family:'Calibri', sans-serif;font-size:83px;fill:#595959;">*</text><text x="1003.57px" y="0px" style="font-family:'Calibri', sans-serif;font-size:83px;fill:#595959;">m</text><text x="1069.56px" y="0px" style="font-family:'Calibri', sans-serif;font-size:83px;fill:#595959;">i</text><text x="1088.51px" y="0px" style="font-family:'Calibri', sans-serif;font-size:83px;fill:#595959;">n</text><text x="1132.55px" y="0px" style="font-family:'Calibri', sans-serif;font-size:83px;fill:#595959;">)</text></g><g transform="matrix(0.209411,0,0,0.209419,299.857,1497.66)"><text x="0px" y="0px" style="font-family:'Calibri', sans-serif;font-size:83px;fill:#595959;">T</text><text x="40.025px" y="0px" style="font-family:'Calibri', sans-serif;font-size:83px;fill:#595959;">i</text><text x="58.983px" y="0px" style="font-family:'Calibri', sans-serif;font-size:83px;fill:#595959;">m</text><text x="124.969px" y="0px" style="font-family:'Calibri', sans-serif;font-size:83px;fill:#595959;">e</text><text x="186.938px" y="0px" style="font-family:'Calibri', sans-serif;font-size:83px;fill:#595959;">i</text><text x="205.896px" y="0px" style="font-family:'Calibri', sans-serif;font-size:83px;fill:#595959;">n</text><text x="267.935px" y="0px" style="font-family:'Calibri', sans-serif;font-size:83px;fill:#595959;">m</text><text x="333.921px" y="0px" style="font-family:'Calibri', sans-serif;font-size:83px;fill:#595959;">i</text><text x="352.878px" y="0px" style="font-family:'Calibri', sans-serif;font-size:83px;fill:#595959;">n</text></g><g transform="matrix(0.209411,0,0,0.209419,203.719,1192.46)"><text x="0px" y="0px" style="font-family:'Calibri', sans-serif;font-size:117px;fill:#595959;">p</text><text x="61.046px" y="0px" style="font-family:'Calibri', sans-serif;font-size:117px;fill:#595959;">r</text><text x="98.117px" y="0px" style="font-family:'Calibri', sans-serif;font-size:117px;fill:#595959;">o</text><text x="160.158px" y="0px" style="font-family:'Calibri', sans-serif;font-size:117px;fill:#595959;">d<tspan x="221.203px " y="0px ">u</tspan></text><text x="282.249px" y="0px" style="font-family:'Calibri', sans-serif;font-size:117px;fill:#595959;">c</text><text x="331.232px" y="0px" style="font-family:'Calibri', sans-serif;font-size:117px;fill:#595959;">t</text><text x="397.236px" y="0px" style="font-family:'Calibri', sans-serif;font-size:117px;fill:#595959;">c</text><text x="444.247px" y="0px" style="font-family:'Calibri', sans-serif;font-size:117px;fill:#595959;">o</text><text x="506.288px" y="0px" style="font-family:'Calibri', sans-serif;font-size:117px;fill:#595959;">n</text><text x="567.333px" y="0px" style="font-family:'Calibri', sans-serif;font-size:117px;fill:#595959;">c</text><text x="616.316px" y="0px" style="font-family:'Calibri', sans-serif;font-size:117px;fill:#595959;">e</text><text x="674.264px" y="0px" style="font-family:'Calibri', sans-serif;font-size:117px;fill:#595959;">n</text><text x="733.224px" y="0px" style="font-family:'Calibri', sans-serif;font-size:117px;fill:#595959;">t</text><text x="772.22px" y="0px" style="font-family:'Calibri', sans-serif;font-size:117px;fill:#595959;">r</text><text x="808.778px" y="0px" style="font-family:'Calibri', sans-serif;font-size:117px;fill:#595959;">a</text><text x="862.693px" y="0px" style="font-family:'Calibri', sans-serif;font-size:117px;fill:#595959;">t</text><text x="901.688px" y="0px" style="font-family:'Calibri', sans-serif;font-size:117px;fill:#595959;">i</text><text x="928.629px" y="0px" style="font-family:'Calibri', sans-serif;font-size:117px;fill:#595959;">o</text><text x="990.669px" y="0px" style="font-family:'Calibri', sans-serif;font-size:117px;fill:#595959;">n</text></g><rect x="0" y="1155.57" width="629.488" height="369.205" style="fill:none;"/><clipPath id="_clip2"><rect x="0" y="1155.57" width="629.488" height="369.205"/></clipPath><g clip-path="url(#_clip2)"><rect x="0.524" y="1156.09" width="628.232" height="367.949" style="fill:none;stroke:#d9d9d9;stroke-width:1.31px;stroke-linejoin:round;stroke-miterlimit:2;"/></g></g></svg>